  0
SECTION
  2
HEADER
  9
$ACADVER
  1
AC1014
  9
$ACADMAINTVER
 70
     9
  9
$DWGCODEPAGE
  3
ANSI_1252
  9
$INSBASE
 10
0.0
 20
0.0
 30
0.0
  9
$EXTMIN
 10
0.0
 20
0.0
 30
0.0
  9
$EXTMAX
 10
25.0
 20
35.0
 30
0.0
  9
$LIMMIN
 10
0.0
 20
0.0
  9
$LIMMAX
 10
420.0
 20
297.0
  9
$ORTHOMODE
 70
     0
  9
$REGENMODE
 70
     1
  9
$FILLMODE
 70
     1
  9
$QTEXTMODE
 70
     0
  9
$MIRRTEXT
 70
     1
  9
$DRAGMODE
 70
     2
  9
$LTSCALE
 40
1.8
  9
$OSMODE
 70
    37
  9
$ATTMODE
 70
     1
  9
$TEXTSIZE
 40
2.5
  9
$TRACEWID
 40
1.0
  9
$TEXTSTYLE
  7
STANDARD
  9
$CLAYER
  8
0
  9
$CELTYPE
  6
BYLAYER
  9
$CECOLOR
 62
   256
  9
$CELTSCALE
 40
1.0
  9
$DELOBJ
 70
     1
  9
$DISPSILH
 70
     0
  9
$DIMSCALE
 40
1.0
  9
$DIMASZ
 40
2.5
  9
$DIMEXO
 40
0.625
  9
$DIMDLI
 40
3.75
  9
$DIMRND
 40
0.0
  9
$DIMDLE
 40
0.0
  9
$DIMEXE
 40
1.25
  9
$DIMTP
 40
0.0
  9
$DIMTM
 40
0.0
  9
$DIMTXT
 40
2.5
  9
$DIMCEN
 40
2.5
  9
$DIMTSZ
 40
0.0
  9
$DIMTOL
 70
     0
  9
$DIMLIM
 70
     0
  9
$DIMTIH
 70
     0
  9
$DIMTOH
 70
     0
  9
$DIMSE1
 70
     0
  9
$DIMSE2
 70
     0
  9
$DIMTAD
 70
     1
  9
$DIMZIN
 70
     8
  9
$DIMBLK
  1

  9
$DIMASO
 70
     1
  9
$DIMSHO
 70
     1
  9
$DIMPOST
  1

  9
$DIMAPOST
  1

  9
$DIMALT
 70
     0
  9
$DIMALTD
 70
     3
  9
$DIMALTF
 40
0.03937007874016
  9
$DIMLFAC
 40
1.0
  9
$DIMTOFL
 70
     1
  9
$DIMTVP
 40
0.0
  9
$DIMTIX
 70
     0
  9
$DIMSOXD
 70
     0
  9
$DIMSAH
 70
     0
  9
$DIMBLK1
  1

  9
$DIMBLK2
  1

  9
$DIMSTYLE
  2
ISO-25
  9
$DIMCLRD
 70
     0
  9
$DIMCLRE
 70
     0
  9
$DIMCLRT
 70
     0
  9
$DIMTFAC
 40
1.0
  9
$DIMGAP
 40
0.625
  9
$DIMJUST
 70
     0
  9
$DIMSD1
 70
     0
  9
$DIMSD2
 70
     0
  9
$DIMTOLJ
 70
     0
  9
$DIMTZIN
 70
     8
  9
$DIMALTZ
 70
     0
  9
$DIMALTTZ
 70
     0
  9
$DIMFIT
 70
     3
  9
$DIMUPT
 70
     0
  9
$DIMUNIT
 70
     2
  9
$DIMDEC
 70
     2
  9
$DIMTDEC
 70
     2
  9
$DIMALTU
 70
     2
  9
$DIMALTTD
 70
     3
  9
$DIMTXSTY
  7
STANDARD
  9
$DIMAUNIT
 70
     0
  9
$LUNITS
 70
     2
  9
$LUPREC
 70
     4
  9
$SKETCHINC
 40
1.0
  9
$FILLETRAD
 40
10.0
  9
$AUNITS
 70
     0
  9
$AUPREC
 70
     0
  9
$MENU
  1
.
  9
$ELEVATION
 40
0.0
  9
$PELEVATION
 40
0.0
  9
$THICKNESS
 40
0.0
  9
$LIMCHECK
 70
     0
  9
$CHAMFERA
 40
10.0
  9
$CHAMFERB
 40
10.0
  9
$CHAMFERC
 40
20.0
  9
$CHAMFERD
 40
0.0
  9
$SKPOLY
 70
     0
  9
$TDCREATE
 40
2456254.602083333
  9
$TDUPDATE
 40
2456254.605555556
  9
$TDINDWG
 40
0.0000000116
  9
$TDUSRTIMER
 40
0.0000000116
  9
$USRTIMER
 70
     1
  9
$ANGBASE
 50
0.0
  9
$ANGDIR
 70
     0
  9
$PDMODE
 70
     0
  9
$PDSIZE
 40
0.0
  9
$PLINEWID
 40
0.0
  9
$COORDS
 70
     1
  9
$SPLFRAME
 70
     0
  9
$SPLINETYPE
 70
     6
  9
$SPLINESEGS
 70
     8
  9
$ATTDIA
 70
     0
  9
$ATTREQ
 70
     1
  9
$HANDLING
 70
     1
  9
$HANDSEED
  5
7A3
  9
$SURFTAB1
 70
     6
  9
$SURFTAB2
 70
     6
  9
$SURFTYPE
 70
     6
  9
$SURFU
 70
     6
  9
$SURFV
 70
     6
  9
$UCSNAME
  2

  9
$UCSORG
 10
0.0
 20
0.0
 30
0.0
  9
$UCSXDIR
 10
1.0
 20
0.0
 30
0.0
  9
$UCSYDIR
 10
0.0
 20
1.0
 30
0.0
  9
$PUCSNAME
  2

  9
$PUCSORG
 10
0.0
 20
0.0
 30
0.0
  9
$PUCSXDIR
 10
1.0
 20
0.0
 30
0.0
  9
$PUCSYDIR
 10
0.0
 20
1.0
 30
0.0
  9
$USERI1
 70
     0
  9
$USERI2
 70
     0
  9
$USERI3
 70
     0
  9
$USERI4
 70
     0
  9
$USERI5
 70
     0
  9
$USERR1
 40
0.0
  9
$USERR2
 40
0.0
  9
$USERR3
 40
0.0
  9
$USERR4
 40
0.0
  9
$USERR5
 40
0.0
  9
$WORLDVIEW
 70
     1
  9
$SHADEDGE
 70
     3
  9
$SHADEDIF
 70
    70
  9
$TILEMODE
 70
     1
  9
$MAXACTVP
 70
    64
  9
$PINSBASE
 10
0.0
 20
0.0
 30
0.0
  9
$PLIMCHECK
 70
     0
  9
$PEXTMIN
 10
1.000000000000000E+20
 20
1.000000000000000E+20
 30
1.000000000000000E+20
  9
$PEXTMAX
 10
-1.000000000000000E+20
 20
-1.000000000000000E+20
 30
-1.000000000000000E+20
  9
$PLIMMIN
 10
0.0
 20
0.0
  9
$PLIMMAX
 10
420.0
 20
297.0
  9
$UNITMODE
 70
     0
  9
$VISRETAIN
 70
     1
  9
$PLINEGEN
 70
     0
  9
$PSLTSCALE
 70
     1
  9
$TREEDEPTH
 70
  3020
  9
$PICKSTYLE
 70
     1
  9
$CMLSTYLE
  2
STANDARD
  9
$CMLJUST
 70
     0
  9
$CMLSCALE
 40
20.0
  9
$PROXYGRAPHICS
 70
     1
  9
$MEASUREMENT
 70
     1
  0
ENDSEC
  0
SECTION
  2
CLASSES
  0
CLASS
  1
ACDBDICTIONARYWDFLT
  2
AcDbDictionaryWithDefault
  3
ObjectDBX Classes
 90
        0
280
     0
281
     0
  0
CLASS
  1
VISUALSTYLE
  2
AcDbVisualStyle
  3
ObjectDBX Classes
 90
     4095
280
     0
281
     0
  0
CLASS
  1
MATERIAL
  2
AcDbMaterial
  3
ObjectDBX Classes
 90
     1153
280
     0
281
     0
  0
CLASS
  1
SCALE
  2
AcDbScale
  3
ObjectDBX Classes
 90
     1153
280
     0
281
     0
  0
CLASS
  1
DICTIONARYVAR
  2
AcDbDictionaryVar
  3
ObjectDBX Classes
 90
        0
280
     0
281
     0
  0
CLASS
  1
XRECORD
  2
AcDbXrecord
  3
AutoCAD 2000
 90
        0
280
     0
281
     0
  0
CLASS
  1
LWPOLYLINE
  2
AcDbPolyline
  3
AutoCAD 2000
 90
        0
280
     0
281
     1
  0
CLASS
  1
HATCH
  2
AcDbHatch
  3
AutoCAD 2000
 90
        0
280
     0
281
     1
  0
CLASS
  1
ACDBPLACEHOLDER
  2
AcDbPlaceHolder
  3
ObjectDBX Classes
 90
        0
280
     0
281
     0
  0
CLASS
  1
LAYOUT
  2
AcDbLayout
  3
ObjectDBX Classes
 90
        0
280
     0
281
     0
  0
ENDSEC
  0
SECTION
  2
TABLES
  0
TABLE
  2
VPORT
  5
8
330
0
100
AcDbSymbolTable
 70
     1
  0
VPORT
  5
29
330
8
100
AcDbSymbolTableRecord
100
AcDbViewportTableRecord
  2
*ACTIVE
 70
     0
 10
0.0
 20
0.0
 11
1.0
 21
1.0
 12
11.26
 22
4.5
 13
0.0
 23
0.0
 14
10.0
 24
10.0
 15
10.0
 25
10.0
 16
0.0
 26
0.0
 36
1.0
 17
0.0
 27
0.0
 37
0.0
 40
9.0
 41
2.503333333333333
 42
50.0
 43
0.0
 44
0.0
 50
0.0
 51
0.0
 71
     0
 72
   100
 73
     1
 74
     3
 75
     0
 76
     0
 77
     0
 78
     0
  0
ENDTAB
  0
TABLE
  2
LTYPE
  5
5
330
0
100
AcDbSymbolTable
 70
     1
  0
LTYPE
  5
14
330
5
100
AcDbSymbolTableRecord
100
AcDbLinetypeTableRecord
  2
BYBLOCK
 70
     0
  3

 72
    65
 73
     0
 40
0.0
  0
LTYPE
  5
15
330
5
100
AcDbSymbolTableRecord
100
AcDbLinetypeTableRecord
  2
BYLAYER
 70
     0
  3

 72
    65
 73
     0
 40
0.0
  0
LTYPE
  5
16
330
5
100
AcDbSymbolTableRecord
100
AcDbLinetypeTableRecord
  2
CONTINUOUS
 70
     0
  3
Solid line
 72
    65
 73
     0
 40
0.0
  0
ENDTAB
  0
TABLE
  2
LAYER
  5
2
330
0
100
AcDbSymbolTable
 70
     1
  0
LAYER
  5
10
330
2
100
AcDbSymbolTableRecord
100
AcDbLayerTableRecord
  2
0
 70
     0
 62
     7
  6
CONTINUOUS
  0
ENDTAB
  0
TABLE
  2
STYLE
  5
3
330
0
100
AcDbSymbolTable
 70
     1
  0
STYLE
  5
11
330
3
100
AcDbSymbolTableRecord
100
AcDbTextStyleTableRecord
  2
STANDARD
 70
     0
 40
0.0
 41
1.0
 50
0.0
 71
     0
 42
2.5
  3
txt
  4

  0
ENDTAB
  0
TABLE
  2
VIEW
  5
6
330
0
100
AcDbSymbolTable
 70
     0
  0
ENDTAB
  0
TABLE
  2
UCS
  5
7
330
0
100
AcDbSymbolTable
 70
     0
  0
ENDTAB
  0
TABLE
  2
APPID
  5
9
330
0
100
AcDbSymbolTable
 70
     2
  0
APPID
  5
12
330
9
100
AcDbSymbolTableRecord
100
AcDbRegAppTableRecord
  2
ACAD
 70
     0
  0
APPID
  5
3F
330
9
100
AcDbSymbolTableRecord
100
AcDbRegAppTableRecord
  2
CCLAB
 70
     0
  0
ENDTAB
  0
TABLE
  2
DIMSTYLE
  5
A
330
0
100
AcDbSymbolTable
 70
     1
  0
DIMSTYLE
105
27
330
A
100
AcDbSymbolTableRecord
100
AcDbDimStyleTableRecord
  2
ISO-25
 70
     0
  3

  4

  5

  6

  7

 40
1.0
 41
2.5
 42
0.625
 43
3.75
 44
1.25
 45
0.0
 46
0.0
 47
0.0
 48
0.0
140
2.5
141
2.5
142
0.0
143
0.03937007874016
144
1.0
145
0.0
146
1.0
147
0.625
 71
     0
 72
     0
 73
     0
 74
     0
 75
     0
 76
     0
 77
     1
 78
     8
170
     0
171
     3
172
     1
173
     0
174
     0
175
     0
176
     0
177
     0
178
     0
270
     2
271
     2
272
     2
273
     2
274
     3
340
11
275
     0
280
     0
281
     0
282
     0
283
     0
284
     8
285
     0
286
     0
287
     3
288
     0
  0
ENDTAB
  0
TABLE
  2
BLOCK_RECORD
  5
1
330
0
100
AcDbSymbolTable
 70
     4
  0
BLOCK_RECORD
  5
1F
330
1
100
AcDbSymbolTableRecord
100
AcDbBlockTableRecord
  2
*MODEL_SPACE
  0
BLOCK_RECORD
  5
1B
330
1
100
AcDbSymbolTableRecord
100
AcDbBlockTableRecord
  2
*PAPER_SPACE
  0
ENDTAB
  0
ENDSEC
  0
SECTION
  2
BLOCKS
  0
BLOCK
  5
20
330
1F
100
AcDbEntity
  8
0
100
AcDbBlockBegin
  2
*MODEL_SPACE
 70
     0
 10
0.0
 20
0.0
 30
0.0
  3
*MODEL_SPACE
  1

  0
ENDBLK
  5
21
330
1F
100
AcDbEntity
  8
0
100
AcDbBlockEnd
  0
BLOCK
  5
1C
330
1B
100
AcDbEntity
 67
     1
  8
0
100
AcDbBlockBegin
  2
*PAPER_SPACE
 70
     0
 10
0.0
 20
0.0
 30
0.0
  3
*PAPER_SPACE
  1

  0
ENDBLK
  5
1D
330
1B
100
AcDbEntity
 67
     1
  8
0
100
AcDbBlockEnd
  0
ENDSEC
  0
SECTION
  2
ENTITIES
  0
LINE
  5
3F1
330
1F
100
AcDbEntity
  8
0
100
AcDbLine
 10
12.803123
 20
-8.25
 30
0.0
 11
12.8
 21
-4.0
 31
0.0
  0
LINE
  5
3F2
330
1F
100
AcDbEntity
  8
0
100
AcDbLine
 10
-12.8
 20
4.0
 30
0.0
 11
-12.803123
 21
8.25
 31
0.0
  0
LINE
  5
3F3
330
1F
100
AcDbEntity
  8
0
100
AcDbLine
 10
-13.848993
 20
-12.894865
 30
0.0
 11
-13.85
 21
-12.85
 31
0.0
  0
LINE
  5
3F4
330
1F
100
AcDbEntity
  8
0
100
AcDbLine
 10
9.701006999999999
 20
-12.894865
 30
0.0
 11
9.7
 21
-12.85
 31
0.0
  0
LINE
  5
3F5
330
1F
100
AcDbEntity
  8
0
100
AcDbLine
 10
-9.7
 20
-10.7
 30
0.0
 11
-9.701006999999999
 21
-10.655135
 31
0.0
  0
LINE
  5
3F6
330
1F
100
AcDbEntity
  8
0
100
AcDbLine
 10
13.85
 20
-10.7
 30
0.0
 11
13.848993
 21
-10.655135
 31
0.0
  0
LINE
  5
3F7
330
1F
100
AcDbEntity
  8
0
100
AcDbLine
 10
9.701006999999999
 20
10.655135
 30
0.0
 11
9.7
 21
10.7
 31
0.0
  0
LINE
  5
3F8
330
1F
100
AcDbEntity
  8
0
100
AcDbLine
 10
-13.848993
 20
10.655135
 30
0.0
 11
-13.85
 21
10.7
 31
0.0
  0
LINE
  5
3F9
330
1F
100
AcDbEntity
  8
0
100
AcDbLine
 10
13.85
 20
12.85
 30
0.0
 11
13.848993
 21
12.894865
 31
0.0
  0
LINE
  5
3FA
330
1F
100
AcDbEntity
  8
0
100
AcDbLine
 10
-9.7
 20
12.85
 30
0.0
 11
-9.701006999999999
 21
12.894865
 31
0.0
  0
LINE
  5
3FB
330
1F
100
AcDbEntity
  8
0
100
AcDbLine
 10
-14.997986
 20
-13.089729
 30
0.0
 11
-15.0
 21
-13.0
 31
0.0
  0
LINE
  5
3FC
330
1F
100
AcDbEntity
  8
0
100
AcDbLine
 10
15.0
 20
13.0
 30
0.0
 11
14.997986
 21
13.089729
 31
0.0
  0
LINE
  5
3FD
330
1F
100
AcDbEntity
  8
0
100
AcDbLine
 10
-3.640423
 20
-0.264232
 30
0.0
 11
-3.648936
 21
-0.088146
 31
0.0
  0
LINE
  5
3FE
330
1F
100
AcDbEntity
  8
0
100
AcDbLine
 10
3.648936
 20
0.088146
 30
0.0
 11
3.640423
 21
0.264232
 31
0.0
  0
LINE
  5
3FF
330
1F
100
AcDbEntity
  8
0
100
AcDbLine
 10
9.704025
 20
-12.939639
 30
0.0
 11
9.701006999999999
 21
-12.894865
 31
0.0
  0
LINE
  5
400
330
1F
100
AcDbEntity
  8
0
100
AcDbLine
 10
-9.701006999999999
 20
-10.655135
 30
0.0
 11
-9.704025
 21
-10.610361
 31
0.0
  0
LINE
  5
401
330
1F
100
AcDbEntity
  8
0
100
AcDbLine
 10
9.704025
 20
10.610361
 30
0.0
 11
9.701006999999999
 21
10.655135
 31
0.0
  0
LINE
  5
402
330
1F
100
AcDbEntity
  8
0
100
AcDbLine
 10
-9.701006999999999
 20
12.894865
 30
0.0
 11
-9.704025
 21
12.939639
 31
0.0
  0
LINE
  5
403
330
1F
100
AcDbEntity
  8
0
100
AcDbLine
 10
-14.991948
 20
-13.179278
 30
0.0
 11
-14.997986
 21
-13.089729
 31
0.0
  0
LINE
  5
404
330
1F
100
AcDbEntity
  8
0
100
AcDbLine
 10
14.997986
 20
13.089729
 30
0.0
 11
14.991948
 21
13.179278
 31
0.0
  0
LINE
  5
405
330
1F
100
AcDbEntity
  8
0
100
AcDbLine
 10
-13.845974
 20
-12.939639
 30
0.0
 11
-13.848993
 21
-12.894865
 31
0.0
  0
LINE
  5
406
330
1F
100
AcDbEntity
  8
0
100
AcDbLine
 10
13.848993
 20
-10.655135
 30
0.0
 11
13.845974
 21
-10.610361
 31
0.0
  0
LINE
  5
407
330
1F
100
AcDbEntity
  8
0
100
AcDbLine
 10
-13.845974
 20
10.610361
 30
0.0
 11
-13.848993
 21
10.655135
 31
0.0
  0
LINE
  5
408
330
1F
100
AcDbEntity
  8
0
100
AcDbLine
 10
13.848993
 20
12.894865
 30
0.0
 11
13.845974
 21
12.939639
 31
0.0
  0
LINE
  5
409
330
1F
100
AcDbEntity
  8
0
100
AcDbLine
 10
-3.623419
 20
-0.439702
 30
0.0
 11
-3.640423
 21
-0.264232
 31
0.0
  0
LINE
  5
40A
330
1F
100
AcDbEntity
  8
0
100
AcDbLine
 10
3.640423
 20
0.264232
 30
0.0
 11
3.623419
 21
0.439702
 31
0.0
  0
LINE
  5
40B
330
1F
100
AcDbEntity
  8
0
100
AcDbLine
 10
13.845974
 20
-10.610361
 30
0.0
 11
13.84095
 21
-10.565766
 31
0.0
  0
LINE
  5
40C
330
1F
100
AcDbEntity
  8
0
100
AcDbLine
 10
-13.84095
 20
10.565766
 30
0.0
 11
-13.845974
 21
10.610361
 31
0.0
  0
LINE
  5
40D
330
1F
100
AcDbEntity
  8
0
100
AcDbLine
 10
-13.84095
 20
-12.984233
 30
0.0
 11
-13.845974
 21
-12.939639
 31
0.0
  0
LINE
  5
40E
330
1F
100
AcDbEntity
  8
0
100
AcDbLine
 10
13.845974
 20
12.939639
 30
0.0
 11
13.84095
 21
12.984233
 31
0.0
  0
LINE
  5
40F
330
1F
100
AcDbEntity
  8
0
100
AcDbLine
 10
-14.981899
 20
-13.268467
 30
0.0
 11
-14.991948
 21
-13.179278
 31
0.0
  0
LINE
  5
410
330
1F
100
AcDbEntity
  8
0
100
AcDbLine
 10
14.991948
 20
13.179278
 30
0.0
 11
14.981899
 21
13.268467
 31
0.0
  0
LINE
  5
411
330
1F
100
AcDbEntity
  8
0
100
AcDbLine
 10
-9.704025
 20
-10.610361
 30
0.0
 11
-9.70905
 21
-10.565766
 31
0.0
  0
LINE
  5
412
330
1F
100
AcDbEntity
  8
0
100
AcDbLine
 10
9.70905
 20
10.565766
 30
0.0
 11
9.704025
 21
10.610361
 31
0.0
  0
LINE
  5
413
330
1F
100
AcDbEntity
  8
0
100
AcDbLine
 10
9.70905
 20
-12.984233
 30
0.0
 11
9.704025
 21
-12.939639
 31
0.0
  0
LINE
  5
414
330
1F
100
AcDbEntity
  8
0
100
AcDbLine
 10
-9.704025
 20
12.939639
 30
0.0
 11
-9.70905
 21
12.984233
 31
0.0
  0
LINE
  5
415
330
1F
100
AcDbEntity
  8
0
100
AcDbLine
 10
-3.597961
 20
-0.614146
 30
0.0
 11
-3.623419
 21
-0.439702
 31
0.0
  0
LINE
  5
416
330
1F
100
AcDbEntity
  8
0
100
AcDbLine
 10
3.623419
 20
0.439702
 30
0.0
 11
3.597961
 21
0.614146
 31
0.0
  0
LINE
  5
417
330
1F
100
AcDbEntity
  8
0
100
AcDbLine
 10
-13.83393
 20
-13.028557
 30
0.0
 11
-13.84095
 21
-12.984233
 31
0.0
  0
LINE
  5
418
330
1F
100
AcDbEntity
  8
0
100
AcDbLine
 10
9.71607
 20
-13.028557
 30
0.0
 11
9.70905
 21
-12.984233
 31
0.0
  0
LINE
  5
419
330
1F
100
AcDbEntity
  8
0
100
AcDbLine
 10
13.84095
 20
12.984233
 30
0.0
 11
13.83393
 21
13.028557
 31
0.0
  0
LINE
  5
41A
330
1F
100
AcDbEntity
  8
0
100
AcDbLine
 10
-9.70905
 20
12.984233
 30
0.0
 11
-9.71607
 21
13.028557
 31
0.0
  0
LINE
  5
41B
330
1F
100
AcDbEntity
  8
0
100
AcDbLine
 10
-14.967859
 20
-13.357114
 30
0.0
 11
-14.981899
 21
-13.268467
 31
0.0
  0
LINE
  5
41C
330
1F
100
AcDbEntity
  8
0
100
AcDbLine
 10
14.981899
 20
13.268467
 30
0.0
 11
14.967859
 21
13.357114
 31
0.0
  0
LINE
  5
41D
330
1F
100
AcDbEntity
  8
0
100
AcDbLine
 10
-9.70905
 20
-10.565766
 30
0.0
 11
-9.71607
 21
-10.521443
 31
0.0
  0
LINE
  5
41E
330
1F
100
AcDbEntity
  8
0
100
AcDbLine
 10
13.84095
 20
-10.565766
 30
0.0
 11
13.83393
 21
-10.521443
 31
0.0
  0
LINE
  5
41F
330
1F
100
AcDbEntity
  8
0
100
AcDbLine
 10
9.71607
 20
10.521443
 30
0.0
 11
9.70905
 21
10.565766
 31
0.0
  0
LINE
  5
420
330
1F
100
AcDbEntity
  8
0
100
AcDbLine
 10
-13.83393
 20
10.521443
 30
0.0
 11
-13.84095
 21
10.565766
 31
0.0
  0
LINE
  5
421
330
1F
100
AcDbEntity
  8
0
100
AcDbLine
 10
-3.564111
 20
-0.787157
 30
0.0
 11
-3.597961
 21
-0.614146
 31
0.0
  0
LINE
  5
422
330
1F
100
AcDbEntity
  8
0
100
AcDbLine
 10
3.597961
 20
0.614146
 30
0.0
 11
3.564111
 21
0.787157
 31
0.0
  0
LINE
  5
423
330
1F
100
AcDbEntity
  8
0
100
AcDbLine
 10
-14.949856
 20
-13.445042
 30
0.0
 11
-14.967859
 21
-13.357114
 31
0.0
  0
LINE
  5
424
330
1F
100
AcDbEntity
  8
0
100
AcDbLine
 10
14.967859
 20
13.357114
 30
0.0
 11
14.949856
 21
13.445042
 31
0.0
  0
LINE
  5
425
330
1F
100
AcDbEntity
  8
0
100
AcDbLine
 10
-13.824928
 20
-13.072521
 30
0.0
 11
-13.83393
 21
-13.028557
 31
0.0
  0
LINE
  5
426
330
1F
100
AcDbEntity
  8
0
100
AcDbLine
 10
9.725071999999999
 20
-13.072521
 30
0.0
 11
9.71607
 21
-13.028557
 31
0.0
  0
LINE
  5
427
330
1F
100
AcDbEntity
  8
0
100
AcDbLine
 10
-9.71607
 20
-10.521443
 30
0.0
 11
-9.725071999999999
 21
-10.477479
 31
0.0
  0
LINE
  5
428
330
1F
100
AcDbEntity
  8
0
100
AcDbLine
 10
13.83393
 20
-10.521443
 30
0.0
 11
13.824928
 21
-10.477479
 31
0.0
  0
LINE
  5
429
330
1F
100
AcDbEntity
  8
0
100
AcDbLine
 10
9.725071999999999
 20
10.477479
 30
0.0
 11
9.71607
 21
10.521443
 31
0.0
  0
LINE
  5
42A
330
1F
100
AcDbEntity
  8
0
100
AcDbLine
 10
-13.824928
 20
10.477479
 30
0.0
 11
-13.83393
 21
10.521443
 31
0.0
  0
LINE
  5
42B
330
1F
100
AcDbEntity
  8
0
100
AcDbLine
 10
13.83393
 20
13.028557
 30
0.0
 11
13.824928
 21
13.072521
 31
0.0
  0
LINE
  5
42C
330
1F
100
AcDbEntity
  8
0
100
AcDbLine
 10
-9.71607
 20
13.028557
 30
0.0
 11
-9.725071999999999
 21
13.072521
 31
0.0
  0
LINE
  5
42D
330
1F
100
AcDbEntity
  8
0
100
AcDbLine
 10
-3.521945
 20
-0.958332
 30
0.0
 11
-3.564111
 21
-0.787157
 31
0.0
  0
LINE
  5
42E
330
1F
100
AcDbEntity
  8
0
100
AcDbLine
 10
3.564111
 20
0.787157
 30
0.0
 11
3.521945
 21
0.958332
 31
0.0
  0
LINE
  5
42F
330
1F
100
AcDbEntity
  8
0
100
AcDbLine
 10
-14.927926
 20
-13.532074
 30
0.0
 11
-14.949856
 21
-13.445042
 31
0.0
  0
LINE
  5
430
330
1F
100
AcDbEntity
  8
0
100
AcDbLine
 10
-9.725071999999999
 20
-10.477479
 30
0.0
 11
-9.736037
 21
-10.433963
 31
0.0
  0
LINE
  5
431
330
1F
100
AcDbEntity
  8
0
100
AcDbLine
 10
13.824928
 20
-10.477479
 30
0.0
 11
13.813963
 21
-10.433963
 31
0.0
  0
LINE
  5
432
330
1F
100
AcDbEntity
  8
0
100
AcDbLine
 10
9.736037
 20
10.433963
 30
0.0
 11
9.725071999999999
 21
10.477479
 31
0.0
  0
LINE
  5
433
330
1F
100
AcDbEntity
  8
0
100
AcDbLine
 10
-13.813963
 20
10.433963
 30
0.0
 11
-13.824928
 21
10.477479
 31
0.0
  0
LINE
  5
434
330
1F
100
AcDbEntity
  8
0
100
AcDbLine
 10
14.949856
 20
13.445042
 30
0.0
 11
14.927926
 21
13.532074
 31
0.0
  0
LINE
  5
435
330
1F
100
AcDbEntity
  8
0
100
AcDbLine
 10
-13.813963
 20
-13.116036
 30
0.0
 11
-13.824928
 21
-13.072521
 31
0.0
  0
LINE
  5
436
330
1F
100
AcDbEntity
  8
0
100
AcDbLine
 10
9.736037
 20
-13.116036
 30
0.0
 11
9.725071999999999
 21
-13.072521
 31
0.0
  0
LINE
  5
437
330
1F
100
AcDbEntity
  8
0
100
AcDbLine
 10
13.824928
 20
13.072521
 30
0.0
 11
13.813963
 21
13.116036
 31
0.0
  0
LINE
  5
438
330
1F
100
AcDbEntity
  8
0
100
AcDbLine
 10
-9.725071999999999
 20
13.072521
 30
0.0
 11
-9.736037
 21
13.116036
 31
0.0
  0
LINE
  5
439
330
1F
100
AcDbEntity
  8
0
100
AcDbLine
 10
-3.471564
 20
-1.127272
 30
0.0
 11
-3.521945
 21
-0.958332
 31
0.0
  0
LINE
  5
43A
330
1F
100
AcDbEntity
  8
0
100
AcDbLine
 10
3.521945
 20
0.958332
 30
0.0
 11
3.471564
 21
1.127272
 31
0.0
  0
LINE
  5
43B
330
1F
100
AcDbEntity
  8
0
100
AcDbLine
 10
-13.801057
 20
-13.159017
 30
0.0
 11
-13.813963
 21
-13.116036
 31
0.0
  0
LINE
  5
43C
330
1F
100
AcDbEntity
  8
0
100
AcDbLine
 10
9.748942999999999
 20
-13.159017
 30
0.0
 11
9.736037
 21
-13.116036
 31
0.0
  0
LINE
  5
43D
330
1F
100
AcDbEntity
  8
0
100
AcDbLine
 10
13.813963
 20
13.116036
 30
0.0
 11
13.801057
 21
13.159017
 31
0.0
  0
LINE
  5
43E
330
1F
100
AcDbEntity
  8
0
100
AcDbLine
 10
-9.736037
 20
13.116036
 30
0.0
 11
-9.748942999999999
 21
13.159017
 31
0.0
  0
LINE
  5
43F
330
1F
100
AcDbEntity
  8
0
100
AcDbLine
 10
-9.736037
 20
-10.433963
 30
0.0
 11
-9.748942999999999
 21
-10.390983
 31
0.0
  0
LINE
  5
440
330
1F
100
AcDbEntity
  8
0
100
AcDbLine
 10
13.813963
 20
-10.433963
 30
0.0
 11
13.801057
 21
-10.390983
 31
0.0
  0
LINE
  5
441
330
1F
100
AcDbEntity
  8
0
100
AcDbLine
 10
9.748942999999999
 20
10.390983
 30
0.0
 11
9.736037
 21
10.433963
 31
0.0
  0
LINE
  5
442
330
1F
100
AcDbEntity
  8
0
100
AcDbLine
 10
-13.801057
 20
10.390983
 30
0.0
 11
-13.813963
 21
10.433963
 31
0.0
  0
LINE
  5
443
330
1F
100
AcDbEntity
  8
0
100
AcDbLine
 10
-14.902113
 20
-13.618034
 30
0.0
 11
-14.927926
 21
-13.532074
 31
0.0
  0
LINE
  5
444
330
1F
100
AcDbEntity
  8
0
100
AcDbLine
 10
14.927926
 20
13.532074
 30
0.0
 11
14.902113
 21
13.618034
 31
0.0
  0
LINE
  5
445
330
1F
100
AcDbEntity
  8
0
100
AcDbLine
 10
-14.87247
 20
-13.702749
 30
0.0
 11
-14.902113
 21
-13.618034
 31
0.0
  0
LINE
  5
446
330
1F
100
AcDbEntity
  8
0
100
AcDbLine
 10
14.902113
 20
13.618034
 30
0.0
 11
14.87247
 21
13.702749
 31
0.0
  0
LINE
  5
447
330
1F
100
AcDbEntity
  8
0
100
AcDbLine
 10
-13.786235
 20
-13.201375
 30
0.0
 11
-13.801057
 21
-13.159017
 31
0.0
  0
LINE
  5
448
330
1F
100
AcDbEntity
  8
0
100
AcDbLine
 10
9.763765
 20
-13.201375
 30
0.0
 11
9.748942999999999
 21
-13.159017
 31
0.0
  0
LINE
  5
449
330
1F
100
AcDbEntity
  8
0
100
AcDbLine
 10
-9.748942999999999
 20
-10.390983
 30
0.0
 11
-9.763765
 21
-10.348625
 31
0.0
  0
LINE
  5
44A
330
1F
100
AcDbEntity
  8
0
100
AcDbLine
 10
13.801057
 20
-10.390983
 30
0.0
 11
13.786235
 21
-10.348625
 31
0.0
  0
LINE
  5
44B
330
1F
100
AcDbEntity
  8
0
100
AcDbLine
 10
9.763765
 20
10.348625
 30
0.0
 11
9.748942999999999
 21
10.390983
 31
0.0
  0
LINE
  5
44C
330
1F
100
AcDbEntity
  8
0
100
AcDbLine
 10
-13.786235
 20
10.348625
 30
0.0
 11
-13.801057
 21
10.390983
 31
0.0
  0
LINE
  5
44D
330
1F
100
AcDbEntity
  8
0
100
AcDbLine
 10
13.801057
 20
13.159017
 30
0.0
 11
13.786235
 21
13.201375
 31
0.0
  0
LINE
  5
44E
330
1F
100
AcDbEntity
  8
0
100
AcDbLine
 10
-9.748942999999999
 20
13.159017
 30
0.0
 11
-9.763765
 21
13.201375
 31
0.0
  0
LINE
  5
44F
330
1F
100
AcDbEntity
  8
0
100
AcDbLine
 10
-3.413085
 20
-1.293582
 30
0.0
 11
-3.471564
 21
-1.127272
 31
0.0
  0
LINE
  5
450
330
1F
100
AcDbEntity
  8
0
100
AcDbLine
 10
3.471564
 20
1.127272
 30
0.0
 11
3.413085
 21
1.293582
 31
0.0
  0
LINE
  5
451
330
1F
100
AcDbEntity
  8
0
100
AcDbLine
 10
-14.839056
 20
-13.78605
 30
0.0
 11
-14.87247
 21
-13.702749
 31
0.0
  0
LINE
  5
452
330
1F
100
AcDbEntity
  8
0
100
AcDbLine
 10
14.87247
 20
13.702749
 30
0.0
 11
14.839056
 21
13.78605
 31
0.0
  0
LINE
  5
453
330
1F
100
AcDbEntity
  8
0
100
AcDbLine
 10
9.780472
 20
-13.243025
 30
0.0
 11
9.763765
 21
-13.201375
 31
0.0
  0
LINE
  5
454
330
1F
100
AcDbEntity
  8
0
100
AcDbLine
 10
-9.763765
 20
-10.348625
 30
0.0
 11
-9.780472
 21
-10.306975
 31
0.0
  0
LINE
  5
455
330
1F
100
AcDbEntity
  8
0
100
AcDbLine
 10
9.780472
 20
10.306975
 30
0.0
 11
9.763765
 21
10.348625
 31
0.0
  0
LINE
  5
456
330
1F
100
AcDbEntity
  8
0
100
AcDbLine
 10
-9.763765
 20
13.201375
 30
0.0
 11
-9.780472
 21
13.243025
 31
0.0
  0
LINE
  5
457
330
1F
100
AcDbEntity
  8
0
100
AcDbLine
 10
-13.769527
 20
-13.243025
 30
0.0
 11
-13.786235
 21
-13.201375
 31
0.0
  0
LINE
  5
458
330
1F
100
AcDbEntity
  8
0
100
AcDbLine
 10
13.786235
 20
-10.348625
 30
0.0
 11
13.769527
 21
-10.306975
 31
0.0
  0
LINE
  5
459
330
1F
100
AcDbEntity
  8
0
100
AcDbLine
 10
-13.769527
 20
10.306975
 30
0.0
 11
-13.786235
 21
10.348625
 31
0.0
  0
LINE
  5
45A
330
1F
100
AcDbEntity
  8
0
100
AcDbLine
 10
13.786235
 20
13.201375
 30
0.0
 11
13.769527
 21
13.243025
 31
0.0
  0
LINE
  5
45B
330
1F
100
AcDbEntity
  8
0
100
AcDbLine
 10
-3.346643
 20
-1.456874
 30
0.0
 11
-3.413085
 21
-1.293582
 31
0.0
  0
LINE
  5
45C
330
1F
100
AcDbEntity
  8
0
100
AcDbLine
 10
3.413085
 20
1.293582
 30
0.0
 11
3.346643
 21
1.456874
 31
0.0
  0
LINE
  5
45D
330
1F
100
AcDbEntity
  8
0
100
AcDbLine
 10
-13.750969
 20
-13.283884
 30
0.0
 11
-13.769527
 21
-13.243025
 31
0.0
  0
LINE
  5
45E
330
1F
100
AcDbEntity
  8
0
100
AcDbLine
 10
13.769527
 20
-10.306975
 30
0.0
 11
13.750969
 21
-10.266116
 31
0.0
  0
LINE
  5
45F
330
1F
100
AcDbEntity
  8
0
100
AcDbLine
 10
-13.750969
 20
10.266116
 30
0.0
 11
-13.769527
 21
10.306975
 31
0.0
  0
LINE
  5
460
330
1F
100
AcDbEntity
  8
0
100
AcDbLine
 10
13.769527
 20
13.243025
 30
0.0
 11
13.750969
 21
13.283884
 31
0.0
  0
LINE
  5
461
330
1F
100
AcDbEntity
  8
0
100
AcDbLine
 10
9.799031
 20
-13.283884
 30
0.0
 11
9.780472
 21
-13.243025
 31
0.0
  0
LINE
  5
462
330
1F
100
AcDbEntity
  8
0
100
AcDbLine
 10
-9.780472
 20
-10.306975
 30
0.0
 11
-9.799031
 21
-10.266116
 31
0.0
  0
LINE
  5
463
330
1F
100
AcDbEntity
  8
0
100
AcDbLine
 10
9.799031
 20
10.266116
 30
0.0
 11
9.780472
 21
10.306975
 31
0.0
  0
LINE
  5
464
330
1F
100
AcDbEntity
  8
0
100
AcDbLine
 10
-9.780472
 20
13.243025
 30
0.0
 11
-9.799031
 21
13.283884
 31
0.0
  0
LINE
  5
465
330
1F
100
AcDbEntity
  8
0
100
AcDbLine
 10
-14.801938
 20
-13.867767
 30
0.0
 11
-14.839056
 21
-13.78605
 31
0.0
  0
LINE
  5
466
330
1F
100
AcDbEntity
  8
0
100
AcDbLine
 10
14.839056
 20
13.78605
 30
0.0
 11
14.801938
 21
13.867767
 31
0.0
  0
LINE
  5
467
330
1F
100
AcDbEntity
  8
0
100
AcDbLine
 10
-3.272394
 20
-1.616767
 30
0.0
 11
-3.346643
 21
-1.456874
 31
0.0
  0
LINE
  5
468
330
1F
100
AcDbEntity
  8
0
100
AcDbLine
 10
3.346643
 20
1.456874
 30
0.0
 11
3.272394
 21
1.616767
 31
0.0
  0
LINE
  5
469
330
1F
100
AcDbEntity
  8
0
100
AcDbLine
 10
-13.730596
 20
-13.323869
 30
0.0
 11
-13.750969
 21
-13.283884
 31
0.0
  0
LINE
  5
46A
330
1F
100
AcDbEntity
  8
0
100
AcDbLine
 10
13.750969
 20
-10.266116
 30
0.0
 11
13.730596
 21
-10.226131
 31
0.0
  0
LINE
  5
46B
330
1F
100
AcDbEntity
  8
0
100
AcDbLine
 10
-13.730596
 20
10.226131
 30
0.0
 11
-13.750969
 21
10.266116
 31
0.0
  0
LINE
  5
46C
330
1F
100
AcDbEntity
  8
0
100
AcDbLine
 10
13.750969
 20
13.283884
 30
0.0
 11
13.730596
 21
13.323869
 31
0.0
  0
LINE
  5
46D
330
1F
100
AcDbEntity
  8
0
100
AcDbLine
 10
-14.761191
 20
-13.947738
 30
0.0
 11
-14.801938
 21
-13.867767
 31
0.0
  0
LINE
  5
46E
330
1F
100
AcDbEntity
  8
0
100
AcDbLine
 10
14.801938
 20
13.867767
 30
0.0
 11
14.761191
 21
13.947738
 31
0.0
  0
LINE
  5
46F
330
1F
100
AcDbEntity
  8
0
100
AcDbLine
 10
9.819405
 20
-13.323869
 30
0.0
 11
9.799031
 21
-13.283884
 31
0.0
  0
LINE
  5
470
330
1F
100
AcDbEntity
  8
0
100
AcDbLine
 10
-9.799031
 20
-10.266116
 30
0.0
 11
-9.819405
 21
-10.226131
 31
0.0
  0
LINE
  5
471
330
1F
100
AcDbEntity
  8
0
100
AcDbLine
 10
9.819405
 20
10.226131
 30
0.0
 11
9.799031
 21
10.266116
 31
0.0
  0
LINE
  5
472
330
1F
100
AcDbEntity
  8
0
100
AcDbLine
 10
-9.799031
 20
13.283884
 30
0.0
 11
-9.819405
 21
13.323869
 31
0.0
  0
LINE
  5
473
330
1F
100
AcDbEntity
  8
0
100
AcDbLine
 10
-9.819405
 20
-10.226131
 30
0.0
 11
-9.841550999999999
 21
-10.1871
 31
0.0
  0
LINE
  5
474
330
1F
100
AcDbEntity
  8
0
100
AcDbLine
 10
9.841550999999999
 20
10.1871
 30
0.0
 11
9.819405
 21
10.226131
 31
0.0
  0
LINE
  5
475
330
1F
100
AcDbEntity
  8
0
100
AcDbLine
 10
9.841550999999999
 20
-13.362899
 30
0.0
 11
9.819405
 21
-13.323869
 31
0.0
  0
LINE
  5
476
330
1F
100
AcDbEntity
  8
0
100
AcDbLine
 10
-9.819405
 20
13.323869
 30
0.0
 11
-9.841550999999999
 21
13.362899
 31
0.0
  0
LINE
  5
477
330
1F
100
AcDbEntity
  8
0
100
AcDbLine
 10
-14.716898
 20
-14.025799
 30
0.0
 11
-14.761191
 21
-13.947738
 31
0.0
  0
LINE
  5
478
330
1F
100
AcDbEntity
  8
0
100
AcDbLine
 10
14.761191
 20
13.947738
 30
0.0
 11
14.716898
 21
14.025799
 31
0.0
  0
LINE
  5
479
330
1F
100
AcDbEntity
  8
0
100
AcDbLine
 10
13.730596
 20
-10.226131
 30
0.0
 11
13.708448
 21
-10.1871
 31
0.0
  0
LINE
  5
47A
330
1F
100
AcDbEntity
  8
0
100
AcDbLine
 10
-13.708448
 20
10.1871
 30
0.0
 11
-13.730596
 21
10.226131
 31
0.0
  0
LINE
  5
47B
330
1F
100
AcDbEntity
  8
0
100
AcDbLine
 10
-13.708448
 20
-13.362899
 30
0.0
 11
-13.730596
 21
-13.323869
 31
0.0
  0
LINE
  5
47C
330
1F
100
AcDbEntity
  8
0
100
AcDbLine
 10
13.730596
 20
13.323869
 30
0.0
 11
13.708448
 21
13.362899
 31
0.0
  0
LINE
  5
47D
330
1F
100
AcDbEntity
  8
0
100
AcDbLine
 10
6.0
 20
-0.919615
 30
0.0
 11
5.46906
 21
0.0
 31
0.0
  0
LINE
  5
47E
330
1F
100
AcDbEntity
  8
0
100
AcDbLine
 10
-5.46906
 20
0.0
 30
0.0
 11
-6.0
 21
0.919615
 31
0.0
  0
LINE
  5
47F
330
1F
100
AcDbEntity
  8
0
100
AcDbLine
 10
-13.684573
 20
-13.400897
 30
0.0
 11
-13.708448
 21
-13.362899
 31
0.0
  0
LINE
  5
480
330
1F
100
AcDbEntity
  8
0
100
AcDbLine
 10
13.708448
 20
13.362899
 30
0.0
 11
13.684573
 21
13.400897
 31
0.0
  0
LINE
  5
481
330
1F
100
AcDbEntity
  8
0
100
AcDbLine
 10
13.708448
 20
-10.1871
 30
0.0
 11
13.684573
 21
-10.149103
 31
0.0
  0
LINE
  5
482
330
1F
100
AcDbEntity
  8
0
100
AcDbLine
 10
-13.684573
 20
10.149103
 30
0.0
 11
-13.708448
 21
10.1871
 31
0.0
  0
LINE
  5
483
330
1F
100
AcDbEntity
  8
0
100
AcDbLine
 10
-14.669147
 20
-14.101794
 30
0.0
 11
-14.716898
 21
-14.025799
 31
0.0
  0
LINE
  5
484
330
1F
100
AcDbEntity
  8
0
100
AcDbLine
 10
14.716898
 20
14.025799
 30
0.0
 11
14.669147
 21
14.101794
 31
0.0
  0
LINE
  5
485
330
1F
100
AcDbEntity
  8
0
100
AcDbLine
 10
9.865427
 20
-13.400897
 30
0.0
 11
9.841550999999999
 21
-13.362899
 31
0.0
  0
LINE
  5
486
330
1F
100
AcDbEntity
  8
0
100
AcDbLine
 10
-9.841550999999999
 20
13.362899
 30
0.0
 11
-9.865427
 21
13.400897
 31
0.0
  0
LINE
  5
487
330
1F
100
AcDbEntity
  8
0
100
AcDbLine
 10
-9.841550999999999
 20
-10.1871
 30
0.0
 11
-9.865427
 21
-10.149103
 31
0.0
  0
LINE
  5
488
330
1F
100
AcDbEntity
  8
0
100
AcDbLine
 10
9.865427
 20
10.149103
 30
0.0
 11
9.841550999999999
 21
10.1871
 31
0.0
  0
LINE
  5
489
330
1F
100
AcDbEntity
  8
0
100
AcDbLine
 10
-13.659017
 20
-13.437785
 30
0.0
 11
-13.684573
 21
-13.400897
 31
0.0
  0
LINE
  5
48A
330
1F
100
AcDbEntity
  8
0
100
AcDbLine
 10
9.890983
 20
-13.437785
 30
0.0
 11
9.865427
 21
-13.400897
 31
0.0
  0
LINE
  5
48B
330
1F
100
AcDbEntity
  8
0
100
AcDbLine
 10
-9.865427
 20
-10.149103
 30
0.0
 11
-9.890983
 21
-10.112215
 31
0.0
  0
LINE
  5
48C
330
1F
100
AcDbEntity
  8
0
100
AcDbLine
 10
13.684573
 20
-10.149103
 30
0.0
 11
13.659017
 21
-10.112215
 31
0.0
  0
LINE
  5
48D
330
1F
100
AcDbEntity
  8
0
100
AcDbLine
 10
9.890983
 20
10.112215
 30
0.0
 11
9.865427
 21
10.149103
 31
0.0
  0
LINE
  5
48E
330
1F
100
AcDbEntity
  8
0
100
AcDbLine
 10
-13.659017
 20
10.112215
 30
0.0
 11
-13.684573
 21
10.149103
 31
0.0
  0
LINE
  5
48F
330
1F
100
AcDbEntity
  8
0
100
AcDbLine
 10
13.684573
 20
13.400897
 30
0.0
 11
13.659017
 21
13.437785
 31
0.0
  0
LINE
  5
490
330
1F
100
AcDbEntity
  8
0
100
AcDbLine
 10
-9.865427
 20
13.400897
 30
0.0
 11
-9.890983
 21
13.437785
 31
0.0
  0
LINE
  5
491
330
1F
100
AcDbEntity
  8
0
100
AcDbLine
 10
-14.618034
 20
-14.17557
 30
0.0
 11
-14.669147
 21
-14.101794
 31
0.0
  0
LINE
  5
492
330
1F
100
AcDbEntity
  8
0
100
AcDbLine
 10
14.669147
 20
14.101794
 30
0.0
 11
14.618034
 21
14.17557
 31
0.0
  0
LINE
  5
493
330
1F
100
AcDbEntity
  8
0
100
AcDbLine
 10
-4.362428
 20
-3.349511
 30
0.0
 11
-4.531372
 21
-3.117158
 31
0.0
  0
LINE
  5
494
330
1F
100
AcDbEntity
  8
0
100
AcDbLine
 10
4.531372
 20
3.117158
 30
0.0
 11
4.362428
 21
3.349511
 31
0.0
  0
LINE
  5
495
330
1F
100
AcDbEntity
  8
0
100
AcDbLine
 10
9.918168
 20
-13.47349
 30
0.0
 11
9.890983
 21
-13.437785
 31
0.0
  0
LINE
  5
496
330
1F
100
AcDbEntity
  8
0
100
AcDbLine
 10
-9.890983
 20
-10.112215
 30
0.0
 11
-9.918168
 21
-10.07651
 31
0.0
  0
LINE
  5
497
330
1F
100
AcDbEntity
  8
0
100
AcDbLine
 10
9.918168
 20
10.07651
 30
0.0
 11
9.890983
 21
10.112215
 31
0.0
  0
LINE
  5
498
330
1F
100
AcDbEntity
  8
0
100
AcDbLine
 10
-9.890983
 20
13.437785
 30
0.0
 11
-9.918168
 21
13.47349
 31
0.0
  0
LINE
  5
499
330
1F
100
AcDbEntity
  8
0
100
AcDbLine
 10
-14.563663
 20
-14.24698
 30
0.0
 11
-14.618034
 21
-14.17557
 31
0.0
  0
LINE
  5
49A
330
1F
100
AcDbEntity
  8
0
100
AcDbLine
 10
14.618034
 20
14.17557
 30
0.0
 11
14.563663
 21
14.24698
 31
0.0
  0
LINE
  5
49B
330
1F
100
AcDbEntity
  8
0
100
AcDbLine
 10
-13.631831
 20
-13.47349
 30
0.0
 11
-13.659017
 21
-13.437785
 31
0.0
  0
LINE
  5
49C
330
1F
100
AcDbEntity
  8
0
100
AcDbLine
 10
13.659017
 20
-10.112215
 30
0.0
 11
13.631831
 21
-10.07651
 31
0.0
  0
LINE
  5
49D
330
1F
100
AcDbEntity
  8
0
100
AcDbLine
 10
-13.631831
 20
10.07651
 30
0.0
 11
-13.659017
 21
10.112215
 31
0.0
  0
LINE
  5
49E
330
1F
100
AcDbEntity
  8
0
100
AcDbLine
 10
13.659017
 20
13.437785
 30
0.0
 11
13.631831
 21
13.47349
 31
0.0
  0
LINE
  5
49F
330
1F
100
AcDbEntity
  8
0
100
AcDbLine
 10
-4.181583
 20
-3.572725
 30
0.0
 11
-4.362428
 21
-3.349511
 31
0.0
  0
LINE
  5
4A0
330
1F
100
AcDbEntity
  8
0
100
AcDbLine
 10
4.362428
 20
3.349511
 30
0.0
 11
4.181583
 21
3.572725
 31
0.0
  0
LINE
  5
4A1
330
1F
100
AcDbEntity
  8
0
100
AcDbLine
 10
-14.506143
 20
-14.315878
 30
0.0
 11
-14.563663
 21
-14.24698
 31
0.0
  0
LINE
  5
4A2
330
1F
100
AcDbEntity
  8
0
100
AcDbLine
 10
13.631831
 20
-10.07651
 30
0.0
 11
13.603071
 21
-10.042061
 31
0.0
  0
LINE
  5
4A3
330
1F
100
AcDbEntity
  8
0
100
AcDbLine
 10
-13.603071
 20
10.042061
 30
0.0
 11
-13.631831
 21
10.07651
 31
0.0
  0
LINE
  5
4A4
330
1F
100
AcDbEntity
  8
0
100
AcDbLine
 10
14.563663
 20
14.24698
 30
0.0
 11
14.506143
 21
14.315878
 31
0.0
  0
LINE
  5
4A5
330
1F
100
AcDbEntity
  8
0
100
AcDbLine
 10
-13.603071
 20
-13.507938
 30
0.0
 11
-13.631831
 21
-13.47349
 31
0.0
  0
LINE
  5
4A6
330
1F
100
AcDbEntity
  8
0
100
AcDbLine
 10
13.631831
 20
13.47349
 30
0.0
 11
13.603071
 21
13.507938
 31
0.0
  0
LINE
  5
4A7
330
1F
100
AcDbEntity
  8
0
100
AcDbLine
 10
-9.918168
 20
-10.07651
 30
0.0
 11
-9.946928999999999
 21
-10.042061
 31
0.0
  0
LINE
  5
4A8
330
1F
100
AcDbEntity
  8
0
100
AcDbLine
 10
9.946928999999999
 20
10.042061
 30
0.0
 11
9.918168
 21
10.07651
 31
0.0
  0
LINE
  5
4A9
330
1F
100
AcDbEntity
  8
0
100
AcDbLine
 10
9.946928999999999
 20
-13.507938
 30
0.0
 11
9.918168
 21
-13.47349
 31
0.0
  0
LINE
  5
4AA
330
1F
100
AcDbEntity
  8
0
100
AcDbLine
 10
-9.918168
 20
13.47349
 30
0.0
 11
-9.946928999999999
 21
13.507938
 31
0.0
  0
LINE
  5
4AB
330
1F
100
AcDbEntity
  8
0
100
AcDbLine
 10
4.531372
 20
-3.117158
 30
0.0
 11
3.272394
 21
-1.616767
 31
0.0
  0
LINE
  5
4AC
330
1F
100
AcDbEntity
  8
0
100
AcDbLine
 10
-3.272394
 20
1.616767
 30
0.0
 11
-4.531372
 21
3.117158
 31
0.0
  0
LINE
  5
4AD
330
1F
100
AcDbEntity
  8
0
100
AcDbLine
 10
-3.98933
 20
-3.786192
 30
0.0
 11
-4.181583
 21
-3.572725
 31
0.0
  0
LINE
  5
4AE
330
1F
100
AcDbEntity
  8
0
100
AcDbLine
 10
4.181583
 20
3.572725
 30
0.0
 11
3.98933
 21
3.786192
 31
0.0
  0
LINE
  5
4AF
330
1F
100
AcDbEntity
  8
0
100
AcDbLine
 10
-13.572795
 20
-13.541062
 30
0.0
 11
-13.603071
 21
-13.507938
 31
0.0
  0
LINE
  5
4B0
330
1F
100
AcDbEntity
  8
0
100
AcDbLine
 10
9.977205
 20
-13.541062
 30
0.0
 11
9.946928999999999
 21
-13.507938
 31
0.0
  0
LINE
  5
4B1
330
1F
100
AcDbEntity
  8
0
100
AcDbLine
 10
-9.946928999999999
 20
-10.042061
 30
0.0
 11
-9.977205
 21
-10.008937
 31
0.0
  0
LINE
  5
4B2
330
1F
100
AcDbEntity
  8
0
100
AcDbLine
 10
13.603071
 20
-10.042061
 30
0.0
 11
13.572795
 21
-10.008937
 31
0.0
  0
LINE
  5
4B3
330
1F
100
AcDbEntity
  8
0
100
AcDbLine
 10
9.977205
 20
10.008937
 30
0.0
 11
9.946928999999999
 21
10.042061
 31
0.0
  0
LINE
  5
4B4
330
1F
100
AcDbEntity
  8
0
100
AcDbLine
 10
-13.572795
 20
10.008937
 30
0.0
 11
-13.603071
 21
10.042061
 31
0.0
  0
LINE
  5
4B5
330
1F
100
AcDbEntity
  8
0
100
AcDbLine
 10
13.603071
 20
13.507938
 30
0.0
 11
13.572795
 21
13.541062
 31
0.0
  0
LINE
  5
4B6
330
1F
100
AcDbEntity
  8
0
100
AcDbLine
 10
-9.946928999999999
 20
13.507938
 30
0.0
 11
-9.977205
 21
13.541062
 31
0.0
  0
LINE
  5
4B7
330
1F
100
AcDbEntity
  8
0
100
AcDbLine
 10
-14.44559
 20
-14.382125
 30
0.0
 11
-14.506143
 21
-14.315878
 31
0.0
  0
LINE
  5
4B8
330
1F
100
AcDbEntity
  8
0
100
AcDbLine
 10
14.506143
 20
14.315878
 30
0.0
 11
14.44559
 21
14.382125
 31
0.0
  0
LINE
  5
4B9
330
1F
100
AcDbEntity
  8
0
100
AcDbLine
 10
10.008937
 20
-13.572795
 30
0.0
 11
9.977205
 21
-13.541062
 31
0.0
  0
LINE
  5
4BA
330
1F
100
AcDbEntity
  8
0
100
AcDbLine
 10
-9.977205
 20
13.541062
 30
0.0
 11
-10.008937
 21
13.572795
 31
0.0
  0
LINE
  5
4BB
330
1F
100
AcDbEntity
  8
0
100
AcDbLine
 10
-14.382125
 20
-14.44559
 30
0.0
 11
-14.44559
 21
-14.382125
 31
0.0
  0
LINE
  5
4BC
330
1F
100
AcDbEntity
  8
0
100
AcDbLine
 10
-13.541062
 20
-13.572795
 30
0.0
 11
-13.572795
 21
-13.541062
 31
0.0
  0
LINE
  5
4BD
330
1F
100
AcDbEntity
  8
0
100
AcDbLine
 10
8.25
 20
-10.053123
 30
0.0
 11
4.196877
 21
-6.0
 31
0.0
  0
LINE
  5
4BE
330
1F
100
AcDbEntity
  8
0
100
AcDbLine
 10
-9.977205
 20
-10.008937
 30
0.0
 11
-10.008937
 21
-9.977205
 31
0.0
  0
LINE
  5
4BF
330
1F
100
AcDbEntity
  8
0
100
AcDbLine
 10
10.053123
 20
-8.25
 30
0.0
 11
6.0
 21
-4.196877
 31
0.0
  0
LINE
  5
4C0
330
1F
100
AcDbEntity
  8
0
100
AcDbLine
 10
-3.786192
 20
-3.98933
 30
0.0
 11
-3.98933
 21
-3.786192
 31
0.0
  0
LINE
  5
4C1
330
1F
100
AcDbEntity
  8
0
100
AcDbLine
 10
3.98933
 20
3.786192
 30
0.0
 11
3.786192
 21
3.98933
 31
0.0
  0
LINE
  5
4C2
330
1F
100
AcDbEntity
  8
0
100
AcDbLine
 10
-6.0
 20
4.196877
 30
0.0
 11
-10.053123
 21
8.25
 31
0.0
  0
LINE
  5
4C3
330
1F
100
AcDbEntity
  8
0
100
AcDbLine
 10
-4.196877
 20
6.0
 30
0.0
 11
-8.25
 21
10.053123
 31
0.0
  0
LINE
  5
4C4
330
1F
100
AcDbEntity
  8
0
100
AcDbLine
 10
10.008937
 20
9.977205
 30
0.0
 11
9.977205
 21
10.008937
 31
0.0
  0
LINE
  5
4C5
330
1F
100
AcDbEntity
  8
0
100
AcDbLine
 10
13.572795
 20
13.541062
 30
0.0
 11
13.541062
 21
13.572795
 31
0.0
  0
LINE
  5
4C6
330
1F
100
AcDbEntity
  8
0
100
AcDbLine
 10
14.44559
 20
14.382125
 30
0.0
 11
14.382125
 21
14.44559
 31
0.0
  0
LINE
  5
4C7
330
1F
100
AcDbEntity
  8
0
100
AcDbLine
 10
13.572795
 20
-10.008937
 30
0.0
 11
13.541062
 21
-9.977205
 31
0.0
  0
LINE
  5
4C8
330
1F
100
AcDbEntity
  8
0
100
AcDbLine
 10
-13.541062
 20
9.977205
 30
0.0
 11
-13.572795
 21
10.008937
 31
0.0
  0
LINE
  5
4C9
330
1F
100
AcDbEntity
  8
0
100
AcDbLine
 10
-14.315878
 20
-14.506143
 30
0.0
 11
-14.382125
 21
-14.44559
 31
0.0
  0
LINE
  5
4CA
330
1F
100
AcDbEntity
  8
0
100
AcDbLine
 10
14.382125
 20
14.44559
 30
0.0
 11
14.315878
 21
14.506143
 31
0.0
  0
LINE
  5
4CB
330
1F
100
AcDbEntity
  8
0
100
AcDbLine
 10
-13.507938
 20
-13.603071
 30
0.0
 11
-13.541062
 21
-13.572795
 31
0.0
  0
LINE
  5
4CC
330
1F
100
AcDbEntity
  8
0
100
AcDbLine
 10
10.042061
 20
-13.603071
 30
0.0
 11
10.008937
 21
-13.572795
 31
0.0
  0
LINE
  5
4CD
330
1F
100
AcDbEntity
  8
0
100
AcDbLine
 10
-10.008937
 20
-9.977205
 30
0.0
 11
-10.042061
 21
-9.946928999999999
 31
0.0
  0
LINE
  5
4CE
330
1F
100
AcDbEntity
  8
0
100
AcDbLine
 10
13.541062
 20
-9.977205
 30
0.0
 11
13.507938
 21
-9.946928999999999
 31
0.0
  0
LINE
  5
4CF
330
1F
100
AcDbEntity
  8
0
100
AcDbLine
 10
10.042061
 20
9.946928999999999
 30
0.0
 11
10.008937
 21
9.977205
 31
0.0
  0
LINE
  5
4D0
330
1F
100
AcDbEntity
  8
0
100
AcDbLine
 10
-13.507938
 20
9.946928999999999
 30
0.0
 11
-13.541062
 21
9.977205
 31
0.0
  0
LINE
  5
4D1
330
1F
100
AcDbEntity
  8
0
100
AcDbLine
 10
13.541062
 20
13.572795
 30
0.0
 11
13.507938
 21
13.603071
 31
0.0
  0
LINE
  5
4D2
330
1F
100
AcDbEntity
  8
0
100
AcDbLine
 10
-10.008937
 20
13.572795
 30
0.0
 11
-10.042061
 21
13.603071
 31
0.0
  0
LINE
  5
4D3
330
1F
100
AcDbEntity
  8
0
100
AcDbLine
 10
-3.572725
 20
-4.181583
 30
0.0
 11
-3.786192
 21
-3.98933
 31
0.0
  0
LINE
  5
4D4
330
1F
100
AcDbEntity
  8
0
100
AcDbLine
 10
3.786192
 20
3.98933
 30
0.0
 11
3.572725
 21
4.181583
 31
0.0
  0
LINE
  5
4D5
330
1F
100
AcDbEntity
  8
0
100
AcDbLine
 10
3.117158
 20
-4.531372
 30
0.0
 11
1.616767
 21
-3.272394
 31
0.0
  0
LINE
  5
4D6
330
1F
100
AcDbEntity
  8
0
100
AcDbLine
 10
-1.616767
 20
3.272394
 30
0.0
 11
-3.117158
 21
4.531372
 31
0.0
  0
LINE
  5
4D7
330
1F
100
AcDbEntity
  8
0
100
AcDbLine
 10
13.507938
 20
-9.946928999999999
 30
0.0
 11
13.47349
 21
-9.918168
 31
0.0
  0
LINE
  5
4D8
330
1F
100
AcDbEntity
  8
0
100
AcDbLine
 10
-13.47349
 20
9.918168
 30
0.0
 11
-13.507938
 21
9.946928999999999
 31
0.0
  0
LINE
  5
4D9
330
1F
100
AcDbEntity
  8
0
100
AcDbLine
 10
-10.042061
 20
-9.946928999999999
 30
0.0
 11
-10.07651
 21
-9.918168
 31
0.0
  0
LINE
  5
4DA
330
1F
100
AcDbEntity
  8
0
100
AcDbLine
 10
10.07651
 20
9.918168
 30
0.0
 11
10.042061
 21
9.946928999999999
 31
0.0
  0
LINE
  5
4DB
330
1F
100
AcDbEntity
  8
0
100
AcDbLine
 10
-13.47349
 20
-13.631831
 30
0.0
 11
-13.507938
 21
-13.603071
 31
0.0
  0
LINE
  5
4DC
330
1F
100
AcDbEntity
  8
0
100
AcDbLine
 10
13.507938
 20
13.603071
 30
0.0
 11
13.47349
 21
13.631831
 31
0.0
  0
LINE
  5
4DD
330
1F
100
AcDbEntity
  8
0
100
AcDbLine
 10
-14.24698
 20
-14.563663
 30
0.0
 11
-14.315878
 21
-14.506143
 31
0.0
  0
LINE
  5
4DE
330
1F
100
AcDbEntity
  8
0
100
AcDbLine
 10
10.07651
 20
-13.631831
 30
0.0
 11
10.042061
 21
-13.603071
 31
0.0
  0
LINE
  5
4DF
330
1F
100
AcDbEntity
  8
0
100
AcDbLine
 10
-10.042061
 20
13.603071
 30
0.0
 11
-10.07651
 21
13.631831
 31
0.0
  0
LINE
  5
4E0
330
1F
100
AcDbEntity
  8
0
100
AcDbLine
 10
14.315878
 20
14.506143
 30
0.0
 11
14.24698
 21
14.563663
 31
0.0
  0
LINE
  5
4E1
330
1F
100
AcDbEntity
  8
0
100
AcDbLine
 10
-3.349511
 20
-4.362428
 30
0.0
 11
-3.572725
 21
-4.181583
 31
0.0
  0
LINE
  5
4E2
330
1F
100
AcDbEntity
  8
0
100
AcDbLine
 10
3.572725
 20
4.181583
 30
0.0
 11
3.349511
 21
4.362428
 31
0.0
  0
LINE
  5
4E3
330
1F
100
AcDbEntity
  8
0
100
AcDbLine
 10
-13.437785
 20
-13.659017
 30
0.0
 11
-13.47349
 21
-13.631831
 31
0.0
  0
LINE
  5
4E4
330
1F
100
AcDbEntity
  8
0
100
AcDbLine
 10
10.112215
 20
-13.659017
 30
0.0
 11
10.07651
 21
-13.631831
 31
0.0
  0
LINE
  5
4E5
330
1F
100
AcDbEntity
  8
0
100
AcDbLine
 10
13.47349
 20
13.631831
 30
0.0
 11
13.437785
 21
13.659017
 31
0.0
  0
LINE
  5
4E6
330
1F
100
AcDbEntity
  8
0
100
AcDbLine
 10
-10.07651
 20
13.631831
 30
0.0
 11
-10.112215
 21
13.659017
 31
0.0
  0
LINE
  5
4E7
330
1F
100
AcDbEntity
  8
0
100
AcDbLine
 10
-14.17557
 20
-14.618034
 30
0.0
 11
-14.24698
 21
-14.563663
 31
0.0
  0
LINE
  5
4E8
330
1F
100
AcDbEntity
  8
0
100
AcDbLine
 10
14.24698
 20
14.563663
 30
0.0
 11
14.17557
 21
14.618034
 31
0.0
  0
LINE
  5
4E9
330
1F
100
AcDbEntity
  8
0
100
AcDbLine
 10
-10.07651
 20
-9.918168
 30
0.0
 11
-10.112215
 21
-9.890983
 31
0.0
  0
LINE
  5
4EA
330
1F
100
AcDbEntity
  8
0
100
AcDbLine
 10
13.47349
 20
-9.918168
 30
0.0
 11
13.437785
 21
-9.890983
 31
0.0
  0
LINE
  5
4EB
330
1F
100
AcDbEntity
  8
0
100
AcDbLine
 10
10.112215
 20
9.890983
 30
0.0
 11
10.07651
 21
9.918168
 31
0.0
  0
LINE
  5
4EC
330
1F
100
AcDbEntity
  8
0
100
AcDbLine
 10
-13.437785
 20
9.890983
 30
0.0
 11
-13.47349
 21
9.918168
 31
0.0
  0
LINE
  5
4ED
330
1F
100
AcDbEntity
  8
0
100
AcDbLine
 10
-3.117158
 20
-4.531372
 30
0.0
 11
-3.349511
 21
-4.362428
 31
0.0
  0
LINE
  5
4EE
330
1F
100
AcDbEntity
  8
0
100
AcDbLine
 10
3.349511
 20
4.362428
 30
0.0
 11
3.117158
 21
4.531372
 31
0.0
  0
LINE
  5
4EF
330
1F
100
AcDbEntity
  8
0
100
AcDbLine
 10
-14.101794
 20
-14.669147
 30
0.0
 11
-14.17557
 21
-14.618034
 31
0.0
  0
LINE
  5
4F0
330
1F
100
AcDbEntity
  8
0
100
AcDbLine
 10
14.17557
 20
14.618034
 30
0.0
 11
14.101794
 21
14.669147
 31
0.0
  0
LINE
  5
4F1
330
1F
100
AcDbEntity
  8
0
100
AcDbLine
 10
-13.400897
 20
-13.684573
 30
0.0
 11
-13.437785
 21
-13.659017
 31
0.0
  0
LINE
  5
4F2
330
1F
100
AcDbEntity
  8
0
100
AcDbLine
 10
10.149103
 20
-13.684573
 30
0.0
 11
10.112215
 21
-13.659017
 31
0.0
  0
LINE
  5
4F3
330
1F
100
AcDbEntity
  8
0
100
AcDbLine
 10
-10.112215
 20
-9.890983
 30
0.0
 11
-10.149103
 21
-9.865427
 31
0.0
  0
LINE
  5
4F4
330
1F
100
AcDbEntity
  8
0
100
AcDbLine
 10
13.437785
 20
-9.890983
 30
0.0
 11
13.400897
 21
-9.865427
 31
0.0
  0
LINE
  5
4F5
330
1F
100
AcDbEntity
  8
0
100
AcDbLine
 10
10.149103
 20
9.865427
 30
0.0
 11
10.112215
 21
9.890983
 31
0.0
  0
LINE
  5
4F6
330
1F
100
AcDbEntity
  8
0
100
AcDbLine
 10
-13.400897
 20
9.865427
 30
0.0
 11
-13.437785
 21
9.890983
 31
0.0
  0
LINE
  5
4F7
330
1F
100
AcDbEntity
  8
0
100
AcDbLine
 10
13.437785
 20
13.659017
 30
0.0
 11
13.400897
 21
13.684573
 31
0.0
  0
LINE
  5
4F8
330
1F
100
AcDbEntity
  8
0
100
AcDbLine
 10
-10.112215
 20
13.659017
 30
0.0
 11
-10.149103
 21
13.684573
 31
0.0
  0
LINE
  5
4F9
330
1F
100
AcDbEntity
  8
0
100
AcDbLine
 10
-10.149103
 20
-9.865427
 30
0.0
 11
-10.1871
 21
-9.841550999999999
 31
0.0
  0
LINE
  5
4FA
330
1F
100
AcDbEntity
  8
0
100
AcDbLine
 10
10.1871
 20
9.841550999999999
 30
0.0
 11
10.149103
 21
9.865427
 31
0.0
  0
LINE
  5
4FB
330
1F
100
AcDbEntity
  8
0
100
AcDbLine
 10
13.400897
 20
-9.865427
 30
0.0
 11
13.362899
 21
-9.841550999999999
 31
0.0
  0
LINE
  5
4FC
330
1F
100
AcDbEntity
  8
0
100
AcDbLine
 10
-13.362899
 20
9.841550999999999
 30
0.0
 11
-13.400897
 21
9.865427
 31
0.0
  0
LINE
  5
4FD
330
1F
100
AcDbEntity
  8
0
100
AcDbLine
 10
-14.025799
 20
-14.716898
 30
0.0
 11
-14.101794
 21
-14.669147
 31
0.0
  0
LINE
  5
4FE
330
1F
100
AcDbEntity
  8
0
100
AcDbLine
 10
14.101794
 20
14.669147
 30
0.0
 11
14.025799
 21
14.716898
 31
0.0
  0
LINE
  5
4FF
330
1F
100
AcDbEntity
  8
0
100
AcDbLine
 10
10.1871
 20
-13.708448
 30
0.0
 11
10.149103
 21
-13.684573
 31
0.0
  0
LINE
  5
500
330
1F
100
AcDbEntity
  8
0
100
AcDbLine
 10
-10.149103
 20
13.684573
 30
0.0
 11
-10.1871
 21
13.708448
 31
0.0
  0
LINE
  5
501
330
1F
100
AcDbEntity
  8
0
100
AcDbLine
 10
-13.362899
 20
-13.708448
 30
0.0
 11
-13.400897
 21
-13.684573
 31
0.0
  0
LINE
  5
502
330
1F
100
AcDbEntity
  8
0
100
AcDbLine
 10
13.400897
 20
13.684573
 30
0.0
 11
13.362899
 21
13.708448
 31
0.0
  0
LINE
  5
503
330
1F
100
AcDbEntity
  8
0
100
AcDbLine
 10
0.919615
 20
-6.0
 30
0.0
 11
0.0
 21
-5.46906
 31
0.0
  0
LINE
  5
504
330
1F
100
AcDbEntity
  8
0
100
AcDbLine
 10
0.0
 20
5.46906
 30
0.0
 11
-0.919615
 21
6.0
 31
0.0
  0
LINE
  5
505
330
1F
100
AcDbEntity
  8
0
100
AcDbLine
 10
-13.323869
 20
-13.730596
 30
0.0
 11
-13.362899
 21
-13.708448
 31
0.0
  0
LINE
  5
506
330
1F
100
AcDbEntity
  8
0
100
AcDbLine
 10
13.362899
 20
13.708448
 30
0.0
 11
13.323869
 21
13.730596
 31
0.0
  0
LINE
  5
507
330
1F
100
AcDbEntity
  8
0
100
AcDbLine
 10
10.226131
 20
-13.730596
 30
0.0
 11
10.1871
 21
-13.708448
 31
0.0
  0
LINE
  5
508
330
1F
100
AcDbEntity
  8
0
100
AcDbLine
 10
-10.1871
 20
13.708448
 30
0.0
 11
-10.226131
 21
13.730596
 31
0.0
  0
LINE
  5
509
330
1F
100
AcDbEntity
  8
0
100
AcDbLine
 10
-13.947738
 20
-14.761191
 30
0.0
 11
-14.025799
 21
-14.716898
 31
0.0
  0
LINE
  5
50A
330
1F
100
AcDbEntity
  8
0
100
AcDbLine
 10
14.025799
 20
14.716898
 30
0.0
 11
13.947738
 21
14.761191
 31
0.0
  0
LINE
  5
50B
330
1F
100
AcDbEntity
  8
0
100
AcDbLine
 10
13.362899
 20
-9.841550999999999
 30
0.0
 11
13.323869
 21
-9.819405
 31
0.0
  0
LINE
  5
50C
330
1F
100
AcDbEntity
  8
0
100
AcDbLine
 10
-13.323869
 20
9.819405
 30
0.0
 11
-13.362899
 21
9.841550999999999
 31
0.0
  0
LINE
  5
50D
330
1F
100
AcDbEntity
  8
0
100
AcDbLine
 10
-10.1871
 20
-9.841550999999999
 30
0.0
 11
-10.226131
 21
-9.819405
 31
0.0
  0
LINE
  5
50E
330
1F
100
AcDbEntity
  8
0
100
AcDbLine
 10
10.226131
 20
9.819405
 30
0.0
 11
10.1871
 21
9.841550999999999
 31
0.0
  0
LINE
  5
50F
330
1F
100
AcDbEntity
  8
0
100
AcDbLine
 10
-10.226131
 20
-9.819405
 30
0.0
 11
-10.266116
 21
-9.799031
 31
0.0
  0
LINE
  5
510
330
1F
100
AcDbEntity
  8
0
100
AcDbLine
 10
13.323869
 20
-9.819405
 30
0.0
 11
13.283884
 21
-9.799031
 31
0.0
  0
LINE
  5
511
330
1F
100
AcDbEntity
  8
0
100
AcDbLine
 10
10.266116
 20
9.799031
 30
0.0
 11
10.226131
 21
9.819405
 31
0.0
  0
LINE
  5
512
330
1F
100
AcDbEntity
  8
0
100
AcDbLine
 10
-13.283884
 20
9.799031
 30
0.0
 11
-13.323869
 21
9.819405
 31
0.0
  0
LINE
  5
513
330
1F
100
AcDbEntity
  8
0
100
AcDbLine
 10
-13.867767
 20
-14.801938
 30
0.0
 11
-13.947738
 21
-14.761191
 31
0.0
  0
LINE
  5
514
330
1F
100
AcDbEntity
  8
0
100
AcDbLine
 10
13.947738
 20
14.761191
 30
0.0
 11
13.867767
 21
14.801938
 31
0.0
  0
LINE
  5
515
330
1F
100
AcDbEntity
  8
0
100
AcDbLine
 10
-13.283884
 20
-13.750969
 30
0.0
 11
-13.323869
 21
-13.730596
 31
0.0
  0
LINE
  5
516
330
1F
100
AcDbEntity
  8
0
100
AcDbLine
 10
10.266116
 20
-13.750969
 30
0.0
 11
10.226131
 21
-13.730596
 31
0.0
  0
LINE
  5
517
330
1F
100
AcDbEntity
  8
0
100
AcDbLine
 10
13.323869
 20
13.730596
 30
0.0
 11
13.283884
 21
13.750969
 31
0.0
  0
LINE
  5
518
330
1F
100
AcDbEntity
  8
0
100
AcDbLine
 10
-10.226131
 20
13.730596
 30
0.0
 11
-10.266116
 21
13.750969
 31
0.0
  0
LINE
  5
519
330
1F
100
AcDbEntity
  8
0
100
AcDbLine
 10
-1.456874
 20
-3.346643
 30
0.0
 11
-1.616767
 21
-3.272394
 31
0.0
  0
LINE
  5
51A
330
1F
100
AcDbEntity
  8
0
100
AcDbLine
 10
1.616767
 20
3.272394
 30
0.0
 11
1.456874
 21
3.346643
 31
0.0
  0
LINE
  5
51B
330
1F
100
AcDbEntity
  8
0
100
AcDbLine
 10
-13.78605
 20
-14.839056
 30
0.0
 11
-13.867767
 21
-14.801938
 31
0.0
  0
LINE
  5
51C
330
1F
100
AcDbEntity
  8
0
100
AcDbLine
 10
13.867767
 20
14.801938
 30
0.0
 11
13.78605
 21
14.839056
 31
0.0
  0
LINE
  5
51D
330
1F
100
AcDbEntity
  8
0
100
AcDbLine
 10
-10.266116
 20
-9.799031
 30
0.0
 11
-10.306975
 21
-9.780472
 31
0.0
  0
LINE
  5
51E
330
1F
100
AcDbEntity
  8
0
100
AcDbLine
 10
13.283884
 20
-9.799031
 30
0.0
 11
13.243025
 21
-9.780472
 31
0.0
  0
LINE
  5
51F
330
1F
100
AcDbEntity
  8
0
100
AcDbLine
 10
10.306975
 20
9.780472
 30
0.0
 11
10.266116
 21
9.799031
 31
0.0
  0
LINE
  5
520
330
1F
100
AcDbEntity
  8
0
100
AcDbLine
 10
-13.243025
 20
9.780472
 30
0.0
 11
-13.283884
 21
9.799031
 31
0.0
  0
LINE
  5
521
330
1F
100
AcDbEntity
  8
0
100
AcDbLine
 10
-13.243025
 20
-13.769527
 30
0.0
 11
-13.283884
 21
-13.750969
 31
0.0
  0
LINE
  5
522
330
1F
100
AcDbEntity
  8
0
100
AcDbLine
 10
10.306975
 20
-13.769527
 30
0.0
 11
10.266116
 21
-13.750969
 31
0.0
  0
LINE
  5
523
330
1F
100
AcDbEntity
  8
0
100
AcDbLine
 10
13.283884
 20
13.750969
 30
0.0
 11
13.243025
 21
13.769527
 31
0.0
  0
LINE
  5
524
330
1F
100
AcDbEntity
  8
0
100
AcDbLine
 10
-10.266116
 20
13.750969
 30
0.0
 11
-10.306975
 21
13.769527
 31
0.0
  0
LINE
  5
525
330
1F
100
AcDbEntity
  8
0
100
AcDbLine
 10
-1.293582
 20
-3.413085
 30
0.0
 11
-1.456874
 21
-3.346643
 31
0.0
  0
LINE
  5
526
330
1F
100
AcDbEntity
  8
0
100
AcDbLine
 10
1.456874
 20
3.346643
 30
0.0
 11
1.293582
 21
3.413085
 31
0.0
  0
LINE
  5
527
330
1F
100
AcDbEntity
  8
0
100
AcDbLine
 10
-13.201375
 20
-13.786235
 30
0.0
 11
-13.243025
 21
-13.769527
 31
0.0
  0
LINE
  5
528
330
1F
100
AcDbEntity
  8
0
100
AcDbLine
 10
10.348625
 20
-13.786235
 30
0.0
 11
10.306975
 21
-13.769527
 31
0.0
  0
LINE
  5
529
330
1F
100
AcDbEntity
  8
0
100
AcDbLine
 10
13.243025
 20
13.769527
 30
0.0
 11
13.201375
 21
13.786235
 31
0.0
  0
LINE
  5
52A
330
1F
100
AcDbEntity
  8
0
100
AcDbLine
 10
-10.306975
 20
13.769527
 30
0.0
 11
-10.348625
 21
13.786235
 31
0.0
  0
LINE
  5
52B
330
1F
100
AcDbEntity
  8
0
100
AcDbLine
 10
-10.306975
 20
-9.780472
 30
0.0
 11
-10.348625
 21
-9.763765
 31
0.0
  0
LINE
  5
52C
330
1F
100
AcDbEntity
  8
0
100
AcDbLine
 10
13.243025
 20
-9.780472
 30
0.0
 11
13.201375
 21
-9.763765
 31
0.0
  0
LINE
  5
52D
330
1F
100
AcDbEntity
  8
0
100
AcDbLine
 10
10.348625
 20
9.763765
 30
0.0
 11
10.306975
 21
9.780472
 31
0.0
  0
LINE
  5
52E
330
1F
100
AcDbEntity
  8
0
100
AcDbLine
 10
-13.201375
 20
9.763765
 30
0.0
 11
-13.243025
 21
9.780472
 31
0.0
  0
LINE
  5
52F
330
1F
100
AcDbEntity
  8
0
100
AcDbLine
 10
-13.702749
 20
-14.87247
 30
0.0
 11
-13.78605
 21
-14.839056
 31
0.0
  0
LINE
  5
530
330
1F
100
AcDbEntity
  8
0
100
AcDbLine
 10
13.78605
 20
14.839056
 30
0.0
 11
13.702749
 21
14.87247
 31
0.0
  0
LINE
  5
531
330
1F
100
AcDbEntity
  8
0
100
AcDbLine
 10
-1.127272
 20
-3.471564
 30
0.0
 11
-1.293582
 21
-3.413085
 31
0.0
  0
LINE
  5
532
330
1F
100
AcDbEntity
  8
0
100
AcDbLine
 10
1.293582
 20
3.413085
 30
0.0
 11
1.127272
 21
3.471564
 31
0.0
  0
LINE
  5
533
330
1F
100
AcDbEntity
  8
0
100
AcDbLine
 10
-13.159017
 20
-13.801057
 30
0.0
 11
-13.201375
 21
-13.786235
 31
0.0
  0
LINE
  5
534
330
1F
100
AcDbEntity
  8
0
100
AcDbLine
 10
10.390983
 20
-13.801057
 30
0.0
 11
10.348625
 21
-13.786235
 31
0.0
  0
LINE
  5
535
330
1F
100
AcDbEntity
  8
0
100
AcDbLine
 10
-10.348625
 20
-9.763765
 30
0.0
 11
-10.390983
 21
-9.748942999999999
 31
0.0
  0
LINE
  5
536
330
1F
100
AcDbEntity
  8
0
100
AcDbLine
 10
13.201375
 20
-9.763765
 30
0.0
 11
13.159017
 21
-9.748942999999999
 31
0.0
  0
LINE
  5
537
330
1F
100
AcDbEntity
  8
0
100
AcDbLine
 10
10.390983
 20
9.748942999999999
 30
0.0
 11
10.348625
 21
9.763765
 31
0.0
  0
LINE
  5
538
330
1F
100
AcDbEntity
  8
0
100
AcDbLine
 10
-13.159017
 20
9.748942999999999
 30
0.0
 11
-13.201375
 21
9.763765
 31
0.0
  0
LINE
  5
539
330
1F
100
AcDbEntity
  8
0
100
AcDbLine
 10
13.201375
 20
13.786235
 30
0.0
 11
13.159017
 21
13.801057
 31
0.0
  0
LINE
  5
53A
330
1F
100
AcDbEntity
  8
0
100
AcDbLine
 10
-10.348625
 20
13.786235
 30
0.0
 11
-10.390983
 21
13.801057
 31
0.0
  0
LINE
  5
53B
330
1F
100
AcDbEntity
  8
0
100
AcDbLine
 10
-13.618034
 20
-14.902113
 30
0.0
 11
-13.702749
 21
-14.87247
 31
0.0
  0
LINE
  5
53C
330
1F
100
AcDbEntity
  8
0
100
AcDbLine
 10
13.702749
 20
14.87247
 30
0.0
 11
13.618034
 21
14.902113
 31
0.0
  0
LINE
  5
53D
330
1F
100
AcDbEntity
  8
0
100
AcDbLine
 10
-13.532074
 20
-14.927926
 30
0.0
 11
-13.618034
 21
-14.902113
 31
0.0
  0
LINE
  5
53E
330
1F
100
AcDbEntity
  8
0
100
AcDbLine
 10
13.618034
 20
14.902113
 30
0.0
 11
13.532074
 21
14.927926
 31
0.0
  0
LINE
  5
53F
330
1F
100
AcDbEntity
  8
0
100
AcDbLine
 10
10.433963
 20
-13.813963
 30
0.0
 11
10.390983
 21
-13.801057
 31
0.0
  0
LINE
  5
540
330
1F
100
AcDbEntity
  8
0
100
AcDbLine
 10
-10.390983
 20
-9.748942999999999
 30
0.0
 11
-10.433963
 21
-9.736037
 31
0.0
  0
LINE
  5
541
330
1F
100
AcDbEntity
  8
0
100
AcDbLine
 10
10.433963
 20
9.736037
 30
0.0
 11
10.390983
 21
9.748942999999999
 31
0.0
  0
LINE
  5
542
330
1F
100
AcDbEntity
  8
0
100
AcDbLine
 10
-10.390983
 20
13.801057
 30
0.0
 11
-10.433963
 21
13.813963
 31
0.0
  0
LINE
  5
543
330
1F
100
AcDbEntity
  8
0
100
AcDbLine
 10
-13.116036
 20
-13.813963
 30
0.0
 11
-13.159017
 21
-13.801057
 31
0.0
  0
LINE
  5
544
330
1F
100
AcDbEntity
  8
0
100
AcDbLine
 10
13.159017
 20
-9.748942999999999
 30
0.0
 11
13.116036
 21
-9.736037
 31
0.0
  0
LINE
  5
545
330
1F
100
AcDbEntity
  8
0
100
AcDbLine
 10
-13.116036
 20
9.736037
 30
0.0
 11
-13.159017
 21
9.748942999999999
 31
0.0
  0
LINE
  5
546
330
1F
100
AcDbEntity
  8
0
100
AcDbLine
 10
13.159017
 20
13.801057
 30
0.0
 11
13.116036
 21
13.813963
 31
0.0
  0
LINE
  5
547
330
1F
100
AcDbEntity
  8
0
100
AcDbLine
 10
-0.958332
 20
-3.521945
 30
0.0
 11
-1.127272
 21
-3.471564
 31
0.0
  0
LINE
  5
548
330
1F
100
AcDbEntity
  8
0
100
AcDbLine
 10
1.127272
 20
3.471564
 30
0.0
 11
0.958332
 21
3.521945
 31
0.0
  0
LINE
  5
549
330
1F
100
AcDbEntity
  8
0
100
AcDbLine
 10
-13.072521
 20
-13.824928
 30
0.0
 11
-13.116036
 21
-13.813963
 31
0.0
  0
LINE
  5
54A
330
1F
100
AcDbEntity
  8
0
100
AcDbLine
 10
13.116036
 20
-9.736037
 30
0.0
 11
13.072521
 21
-9.725071999999999
 31
0.0
  0
LINE
  5
54B
330
1F
100
AcDbEntity
  8
0
100
AcDbLine
 10
-13.072521
 20
9.725071999999999
 30
0.0
 11
-13.116036
 21
9.736037
 31
0.0
  0
LINE
  5
54C
330
1F
100
AcDbEntity
  8
0
100
AcDbLine
 10
13.116036
 20
13.813963
 30
0.0
 11
13.072521
 21
13.824928
 31
0.0
  0
LINE
  5
54D
330
1F
100
AcDbEntity
  8
0
100
AcDbLine
 10
-13.445042
 20
-14.949856
 30
0.0
 11
-13.532074
 21
-14.927926
 31
0.0
  0
LINE
  5
54E
330
1F
100
AcDbEntity
  8
0
100
AcDbLine
 10
10.477479
 20
-13.824928
 30
0.0
 11
10.433963
 21
-13.813963
 31
0.0
  0
LINE
  5
54F
330
1F
100
AcDbEntity
  8
0
100
AcDbLine
 10
-10.433963
 20
-9.736037
 30
0.0
 11
-10.477479
 21
-9.725071999999999
 31
0.0
  0
LINE
  5
550
330
1F
100
AcDbEntity
  8
0
100
AcDbLine
 10
10.477479
 20
9.725071999999999
 30
0.0
 11
10.433963
 21
9.736037
 31
0.0
  0
LINE
  5
551
330
1F
100
AcDbEntity
  8
0
100
AcDbLine
 10
-10.433963
 20
13.813963
 30
0.0
 11
-10.477479
 21
13.824928
 31
0.0
  0
LINE
  5
552
330
1F
100
AcDbEntity
  8
0
100
AcDbLine
 10
13.532074
 20
14.927926
 30
0.0
 11
13.445042
 21
14.949856
 31
0.0
  0
LINE
  5
553
330
1F
100
AcDbEntity
  8
0
100
AcDbLine
 10
-0.787157
 20
-3.564111
 30
0.0
 11
-0.958332
 21
-3.521945
 31
0.0
  0
LINE
  5
554
330
1F
100
AcDbEntity
  8
0
100
AcDbLine
 10
0.958332
 20
3.521945
 30
0.0
 11
0.787157
 21
3.564111
 31
0.0
  0
LINE
  5
555
330
1F
100
AcDbEntity
  8
0
100
AcDbLine
 10
-13.028557
 20
-13.83393
 30
0.0
 11
-13.072521
 21
-13.824928
 31
0.0
  0
LINE
  5
556
330
1F
100
AcDbEntity
  8
0
100
AcDbLine
 10
10.521443
 20
-13.83393
 30
0.0
 11
10.477479
 21
-13.824928
 31
0.0
  0
LINE
  5
557
330
1F
100
AcDbEntity
  8
0
100
AcDbLine
 10
-10.477479
 20
-9.725071999999999
 30
0.0
 11
-10.521443
 21
-9.71607
 31
0.0
  0
LINE
  5
558
330
1F
100
AcDbEntity
  8
0
100
AcDbLine
 10
13.072521
 20
-9.725071999999999
 30
0.0
 11
13.028557
 21
-9.71607
 31
0.0
  0
LINE
  5
559
330
1F
100
AcDbEntity
  8
0
100
AcDbLine
 10
10.521443
 20
9.71607
 30
0.0
 11
10.477479
 21
9.725071999999999
 31
0.0
  0
LINE
  5
55A
330
1F
100
AcDbEntity
  8
0
100
AcDbLine
 10
-13.028557
 20
9.71607
 30
0.0
 11
-13.072521
 21
9.725071999999999
 31
0.0
  0
LINE
  5
55B
330
1F
100
AcDbEntity
  8
0
100
AcDbLine
 10
13.072521
 20
13.824928
 30
0.0
 11
13.028557
 21
13.83393
 31
0.0
  0
LINE
  5
55C
330
1F
100
AcDbEntity
  8
0
100
AcDbLine
 10
-10.477479
 20
13.824928
 30
0.0
 11
-10.521443
 21
13.83393
 31
0.0
  0
LINE
  5
55D
330
1F
100
AcDbEntity
  8
0
100
AcDbLine
 10
-13.357114
 20
-14.967859
 30
0.0
 11
-13.445042
 21
-14.949856
 31
0.0
  0
LINE
  5
55E
330
1F
100
AcDbEntity
  8
0
100
AcDbLine
 10
13.445042
 20
14.949856
 30
0.0
 11
13.357114
 21
14.967859
 31
0.0
  0
LINE
  5
55F
330
1F
100
AcDbEntity
  8
0
100
AcDbLine
 10
-0.614146
 20
-3.597961
 30
0.0
 11
-0.787157
 21
-3.564111
 31
0.0
  0
LINE
  5
560
330
1F
100
AcDbEntity
  8
0
100
AcDbLine
 10
0.787157
 20
3.564111
 30
0.0
 11
0.614146
 21
3.597961
 31
0.0
  0
LINE
  5
561
330
1F
100
AcDbEntity
  8
0
100
AcDbLine
 10
10.565766
 20
-13.84095
 30
0.0
 11
10.521443
 21
-13.83393
 31
0.0
  0
LINE
  5
562
330
1F
100
AcDbEntity
  8
0
100
AcDbLine
 10
-10.521443
 20
-9.71607
 30
0.0
 11
-10.565766
 21
-9.70905
 31
0.0
  0
LINE
  5
563
330
1F
100
AcDbEntity
  8
0
100
AcDbLine
 10
10.565766
 20
9.70905
 30
0.0
 11
10.521443
 21
9.71607
 31
0.0
  0
LINE
  5
564
330
1F
100
AcDbEntity
  8
0
100
AcDbLine
 10
-10.521443
 20
13.83393
 30
0.0
 11
-10.565766
 21
13.84095
 31
0.0
  0
LINE
  5
565
330
1F
100
AcDbEntity
  8
0
100
AcDbLine
 10
-13.268467
 20
-14.981899
 30
0.0
 11
-13.357114
 21
-14.967859
 31
0.0
  0
LINE
  5
566
330
1F
100
AcDbEntity
  8
0
100
AcDbLine
 10
13.357114
 20
14.967859
 30
0.0
 11
13.268467
 21
14.981899
 31
0.0
  0
LINE
  5
567
330
1F
100
AcDbEntity
  8
0
100
AcDbLine
 10
-12.984233
 20
-13.84095
 30
0.0
 11
-13.028557
 21
-13.83393
 31
0.0
  0
LINE
  5
568
330
1F
100
AcDbEntity
  8
0
100
AcDbLine
 10
13.028557
 20
-9.71607
 30
0.0
 11
12.984233
 21
-9.70905
 31
0.0
  0
LINE
  5
569
330
1F
100
AcDbEntity
  8
0
100
AcDbLine
 10
-12.984233
 20
9.70905
 30
0.0
 11
-13.028557
 21
9.71607
 31
0.0
  0
LINE
  5
56A
330
1F
100
AcDbEntity
  8
0
100
AcDbLine
 10
13.028557
 20
13.83393
 30
0.0
 11
12.984233
 21
13.84095
 31
0.0
  0
LINE
  5
56B
330
1F
100
AcDbEntity
  8
0
100
AcDbLine
 10
-0.439702
 20
-3.623419
 30
0.0
 11
-0.614146
 21
-3.597961
 31
0.0
  0
LINE
  5
56C
330
1F
100
AcDbEntity
  8
0
100
AcDbLine
 10
0.614146
 20
3.597961
 30
0.0
 11
0.439702
 21
3.623419
 31
0.0
  0
LINE
  5
56D
330
1F
100
AcDbEntity
  8
0
100
AcDbLine
 10
12.984233
 20
-9.70905
 30
0.0
 11
12.939639
 21
-9.704025
 31
0.0
  0
LINE
  5
56E
330
1F
100
AcDbEntity
  8
0
100
AcDbLine
 10
-12.939639
 20
9.704025
 30
0.0
 11
-12.984233
 21
9.70905
 31
0.0
  0
LINE
  5
56F
330
1F
100
AcDbEntity
  8
0
100
AcDbLine
 10
-10.565766
 20
-9.70905
 30
0.0
 11
-10.610361
 21
-9.704025
 31
0.0
  0
LINE
  5
570
330
1F
100
AcDbEntity
  8
0
100
AcDbLine
 10
10.610361
 20
9.704025
 30
0.0
 11
10.565766
 21
9.70905
 31
0.0
  0
LINE
  5
571
330
1F
100
AcDbEntity
  8
0
100
AcDbLine
 10
-13.179278
 20
-14.991948
 30
0.0
 11
-13.268467
 21
-14.981899
 31
0.0
  0
LINE
  5
572
330
1F
100
AcDbEntity
  8
0
100
AcDbLine
 10
13.268467
 20
14.981899
 30
0.0
 11
13.179278
 21
14.991948
 31
0.0
  0
LINE
  5
573
330
1F
100
AcDbEntity
  8
0
100
AcDbLine
 10
-12.939639
 20
-13.845974
 30
0.0
 11
-12.984233
 21
-13.84095
 31
0.0
  0
LINE
  5
574
330
1F
100
AcDbEntity
  8
0
100
AcDbLine
 10
12.984233
 20
13.84095
 30
0.0
 11
12.939639
 21
13.845974
 31
0.0
  0
LINE
  5
575
330
1F
100
AcDbEntity
  8
0
100
AcDbLine
 10
10.610361
 20
-13.845974
 30
0.0
 11
10.565766
 21
-13.84095
 31
0.0
  0
LINE
  5
576
330
1F
100
AcDbEntity
  8
0
100
AcDbLine
 10
-10.565766
 20
13.84095
 30
0.0
 11
-10.610361
 21
13.845974
 31
0.0
  0
LINE
  5
577
330
1F
100
AcDbEntity
  8
0
100
AcDbLine
 10
-0.264232
 20
-3.640423
 30
0.0
 11
-0.439702
 21
-3.623419
 31
0.0
  0
LINE
  5
578
330
1F
100
AcDbEntity
  8
0
100
AcDbLine
 10
0.439702
 20
3.623419
 30
0.0
 11
0.264232
 21
3.640423
 31
0.0
  0
LINE
  5
579
330
1F
100
AcDbEntity
  8
0
100
AcDbLine
 10
-13.089729
 20
-14.997986
 30
0.0
 11
-13.179278
 21
-14.991948
 31
0.0
  0
LINE
  5
57A
330
1F
100
AcDbEntity
  8
0
100
AcDbLine
 10
-12.894865
 20
-13.848993
 30
0.0
 11
-12.939639
 21
-13.845974
 31
0.0
  0
LINE
  5
57B
330
1F
100
AcDbEntity
  8
0
100
AcDbLine
 10
10.655135
 20
-13.848993
 30
0.0
 11
10.610361
 21
-13.845974
 31
0.0
  0
LINE
  5
57C
330
1F
100
AcDbEntity
  8
0
100
AcDbLine
 10
12.939639
 20
13.845974
 30
0.0
 11
12.894865
 21
13.848993
 31
0.0
  0
LINE
  5
57D
330
1F
100
AcDbEntity
  8
0
100
AcDbLine
 10
-10.610361
 20
13.845974
 30
0.0
 11
-10.655135
 21
13.848993
 31
0.0
  0
LINE
  5
57E
330
1F
100
AcDbEntity
  8
0
100
AcDbLine
 10
13.179278
 20
14.991948
 30
0.0
 11
13.089729
 21
14.997986
 31
0.0
  0
LINE
  5
57F
330
1F
100
AcDbEntity
  8
0
100
AcDbLine
 10
-10.610361
 20
-9.704025
 30
0.0
 11
-10.655135
 21
-9.701006999999999
 31
0.0
  0
LINE
  5
580
330
1F
100
AcDbEntity
  8
0
100
AcDbLine
 10
12.939639
 20
-9.704025
 30
0.0
 11
12.894865
 21
-9.701006999999999
 31
0.0
  0
LINE
  5
581
330
1F
100
AcDbEntity
  8
0
100
AcDbLine
 10
10.655135
 20
9.701006999999999
 30
0.0
 11
10.610361
 21
9.704025
 31
0.0
  0
LINE
  5
582
330
1F
100
AcDbEntity
  8
0
100
AcDbLine
 10
-12.894865
 20
9.701006999999999
 30
0.0
 11
-12.939639
 21
9.704025
 31
0.0
  0
LINE
  5
583
330
1F
100
AcDbEntity
  8
0
100
AcDbLine
 10
-0.088146
 20
-3.648936
 30
0.0
 11
-0.264232
 21
-3.640423
 31
0.0
  0
LINE
  5
584
330
1F
100
AcDbEntity
  8
0
100
AcDbLine
 10
0.264232
 20
3.640423
 30
0.0
 11
0.088146
 21
3.648936
 31
0.0
  0
LINE
  5
585
330
1F
100
AcDbEntity
  8
0
100
AcDbLine
 10
-13.0
 20
-15.0
 30
0.0
 11
-13.089729
 21
-14.997986
 31
0.0
  0
LINE
  5
586
330
1F
100
AcDbEntity
  8
0
100
AcDbLine
 10
-12.85
 20
-13.85
 30
0.0
 11
-12.894865
 21
-13.848993
 31
0.0
  0
LINE
  5
587
330
1F
100
AcDbEntity
  8
0
100
AcDbLine
 10
10.7
 20
-13.85
 30
0.0
 11
10.655135
 21
-13.848993
 31
0.0
  0
LINE
  5
588
330
1F
100
AcDbEntity
  8
0
100
AcDbLine
 10
-10.655135
 20
-9.701006999999999
 30
0.0
 11
-10.7
 21
-9.7
 31
0.0
  0
LINE
  5
589
330
1F
100
AcDbEntity
  8
0
100
AcDbLine
 10
12.894865
 20
-9.701006999999999
 30
0.0
 11
12.85
 21
-9.7
 31
0.0
  0
LINE
  5
58A
330
1F
100
AcDbEntity
  8
0
100
AcDbLine
 10
10.7
 20
9.7
 30
0.0
 11
10.655135
 21
9.701006999999999
 31
0.0
  0
LINE
  5
58B
330
1F
100
AcDbEntity
  8
0
100
AcDbLine
 10
-12.85
 20
9.7
 30
0.0
 11
-12.894865
 21
9.701006999999999
 31
0.0
  0
LINE
  5
58C
330
1F
100
AcDbEntity
  8
0
100
AcDbLine
 10
12.894865
 20
13.848993
 30
0.0
 11
12.85
 21
13.85
 31
0.0
  0
LINE
  5
58D
330
1F
100
AcDbEntity
  8
0
100
AcDbLine
 10
-10.655135
 20
13.848993
 30
0.0
 11
-10.7
 21
13.85
 31
0.0
  0
LINE
  5
58E
330
1F
100
AcDbEntity
  8
0
100
AcDbLine
 10
13.089729
 20
14.997986
 30
0.0
 11
13.0
 21
15.0
 31
0.0
  0
LINE
  5
58F
330
1F
100
AcDbEntity
  8
0
100
AcDbLine
 10
8.25
 20
-12.803123
 30
0.0
 11
4.0
 21
-12.8
 31
0.0
  0
LINE
  5
590
330
1F
100
AcDbEntity
  8
0
100
AcDbLine
 10
-4.0
 20
12.8
 30
0.0
 11
-8.25
 21
12.803123
 31
0.0
  0
LINE
  5
591
330
1F
100
AcDbEntity
  8
0
100
AcDbLine
 10
-13.0
 20
-15.0
 30
0.0
 11
-4.5
 21
-15.0
 31
0.0
  0
LINE
  5
592
330
1F
100
AcDbEntity
  8
0
100
AcDbLine
 10
4.5
 20
-15.0
 30
0.0
 11
13.0
 21
-15.0
 31
0.0
  0
LINE
  5
593
330
1F
100
AcDbEntity
  8
0
100
AcDbLine
 10
-4.5
 20
-14.5
 30
0.0
 11
-4.0
 21
-14.5
 31
0.0
  0
LINE
  5
594
330
1F
100
AcDbEntity
  8
0
100
AcDbLine
 10
4.0
 20
-14.5
 30
0.0
 11
4.5
 21
-14.5
 31
0.0
  0
LINE
  5
595
330
1F
100
AcDbEntity
  8
0
100
AcDbLine
 10
-12.85
 20
-13.85
 30
0.0
 11
-10.7
 21
-13.85
 31
0.0
  0
LINE
  5
596
330
1F
100
AcDbEntity
  8
0
100
AcDbLine
 10
10.7
 20
-13.85
 30
0.0
 11
12.85
 21
-13.85
 31
0.0
  0
LINE
  5
597
330
1F
100
AcDbEntity
  8
0
100
AcDbLine
 10
-12.85
 20
-9.7
 30
0.0
 11
-10.7
 21
-9.7
 31
0.0
  0
LINE
  5
598
330
1F
100
AcDbEntity
  8
0
100
AcDbLine
 10
10.7
 20
-9.7
 30
0.0
 11
12.85
 21
-9.7
 31
0.0
  0
LINE
  5
599
330
1F
100
AcDbEntity
  8
0
100
AcDbLine
 10
-12.803123
 20
-8.25
 30
0.0
 11
-10.053123
 21
-8.25
 31
0.0
  0
LINE
  5
59A
330
1F
100
AcDbEntity
  8
0
100
AcDbLine
 10
10.053123
 20
-8.25
 30
0.0
 11
12.803123
 21
-8.25
 31
0.0
  0
LINE
  5
59B
330
1F
100
AcDbEntity
  8
0
100
AcDbLine
 10
-4.196877
 20
-6.0
 30
0.0
 11
-0.919615
 21
-6.0
 31
0.0
  0
LINE
  5
59C
330
1F
100
AcDbEntity
  8
0
100
AcDbLine
 10
0.919615
 20
-6.0
 30
0.0
 11
4.196877
 21
-6.0
 31
0.0
  0
LINE
  5
59D
330
1F
100
AcDbEntity
  8
0
100
AcDbLine
 10
-15.0
 20
-4.5
 30
0.0
 11
-14.5
 21
-4.5
 31
0.0
  0
LINE
  5
59E
330
1F
100
AcDbEntity
  8
0
100
AcDbLine
 10
14.5
 20
-4.5
 30
0.0
 11
15.0
 21
-4.5
 31
0.0
  0
LINE
  5
59F
330
1F
100
AcDbEntity
  8
0
100
AcDbLine
 10
-14.5
 20
-4.0
 30
0.0
 11
-12.8
 21
-4.0
 31
0.0
  0
LINE
  5
5A0
330
1F
100
AcDbEntity
  8
0
100
AcDbLine
 10
12.8
 20
-4.0
 30
0.0
 11
14.5
 21
-4.0
 31
0.0
  0
LINE
  5
5A1
330
1F
100
AcDbEntity
  8
0
100
AcDbLine
 10
-0.088146
 20
-3.648936
 30
0.0
 11
0.088146
 21
-3.648936
 31
0.0
  0
LINE
  5
5A2
330
1F
100
AcDbEntity
  8
0
100
AcDbLine
 10
-0.088146
 20
3.648936
 30
0.0
 11
0.088146
 21
3.648936
 31
0.0
  0
LINE
  5
5A3
330
1F
100
AcDbEntity
  8
0
100
AcDbLine
 10
12.8
 20
4.0
 30
0.0
 11
14.5
 21
4.0
 31
0.0
  0
LINE
  5
5A4
330
1F
100
AcDbEntity
  8
0
100
AcDbLine
 10
-14.5
 20
4.0
 30
0.0
 11
-12.8
 21
4.0
 31
0.0
  0
LINE
  5
5A5
330
1F
100
AcDbEntity
  8
0
100
AcDbLine
 10
14.5
 20
4.5
 30
0.0
 11
15.0
 21
4.5
 31
0.0
  0
LINE
  5
5A6
330
1F
100
AcDbEntity
  8
0
100
AcDbLine
 10
-15.0
 20
4.5
 30
0.0
 11
-14.5
 21
4.5
 31
0.0
  0
LINE
  5
5A7
330
1F
100
AcDbEntity
  8
0
100
AcDbLine
 10
0.919615
 20
6.0
 30
0.0
 11
4.196877
 21
6.0
 31
0.0
  0
LINE
  5
5A8
330
1F
100
AcDbEntity
  8
0
100
AcDbLine
 10
-4.196877
 20
6.0
 30
0.0
 11
-0.919615
 21
6.0
 31
0.0
  0
LINE
  5
5A9
330
1F
100
AcDbEntity
  8
0
100
AcDbLine
 10
10.053123
 20
8.25
 30
0.0
 11
12.803123
 21
8.25
 31
0.0
  0
LINE
  5
5AA
330
1F
100
AcDbEntity
  8
0
100
AcDbLine
 10
-12.803123
 20
8.25
 30
0.0
 11
-10.053123
 21
8.25
 31
0.0
  0
LINE
  5
5AB
330
1F
100
AcDbEntity
  8
0
100
AcDbLine
 10
10.7
 20
9.7
 30
0.0
 11
12.85
 21
9.7
 31
0.0
  0
LINE
  5
5AC
330
1F
100
AcDbEntity
  8
0
100
AcDbLine
 10
-12.85
 20
9.7
 30
0.0
 11
-10.7
 21
9.7
 31
0.0
  0
LINE
  5
5AD
330
1F
100
AcDbEntity
  8
0
100
AcDbLine
 10
10.7
 20
13.85
 30
0.0
 11
12.85
 21
13.85
 31
0.0
  0
LINE
  5
5AE
330
1F
100
AcDbEntity
  8
0
100
AcDbLine
 10
-12.85
 20
13.85
 30
0.0
 11
-10.7
 21
13.85
 31
0.0
  0
LINE
  5
5AF
330
1F
100
AcDbEntity
  8
0
100
AcDbLine
 10
4.0
 20
14.5
 30
0.0
 11
4.5
 21
14.5
 31
0.0
  0
LINE
  5
5B0
330
1F
100
AcDbEntity
  8
0
100
AcDbLine
 10
-4.5
 20
14.5
 30
0.0
 11
-4.0
 21
14.5
 31
0.0
  0
LINE
  5
5B1
330
1F
100
AcDbEntity
  8
0
100
AcDbLine
 10
4.5
 20
15.0
 30
0.0
 11
13.0
 21
15.0
 31
0.0
  0
LINE
  5
5B2
330
1F
100
AcDbEntity
  8
0
100
AcDbLine
 10
-13.0
 20
15.0
 30
0.0
 11
-4.5
 21
15.0
 31
0.0
  0
LINE
  5
5B3
330
1F
100
AcDbEntity
  8
0
100
AcDbLine
 10
-8.25
 20
-12.803123
 30
0.0
 11
-4.0
 21
-12.8
 31
0.0
  0
LINE
  5
5B4
330
1F
100
AcDbEntity
  8
0
100
AcDbLine
 10
4.0
 20
12.8
 30
0.0
 11
8.25
 21
12.803123
 31
0.0
  0
LINE
  5
5B5
330
1F
100
AcDbEntity
  8
0
100
AcDbLine
 10
13.0
 20
-15.0
 30
0.0
 11
13.089729
 21
-14.997986
 31
0.0
  0
LINE
  5
5B6
330
1F
100
AcDbEntity
  8
0
100
AcDbLine
 10
-10.7
 20
-13.85
 30
0.0
 11
-10.655135
 21
-13.848993
 31
0.0
  0
LINE
  5
5B7
330
1F
100
AcDbEntity
  8
0
100
AcDbLine
 10
12.85
 20
-13.85
 30
0.0
 11
12.894865
 21
-13.848993
 31
0.0
  0
LINE
  5
5B8
330
1F
100
AcDbEntity
  8
0
100
AcDbLine
 10
-12.894865
 20
-9.701006999999999
 30
0.0
 11
-12.85
 21
-9.7
 31
0.0
  0
LINE
  5
5B9
330
1F
100
AcDbEntity
  8
0
100
AcDbLine
 10
10.655135
 20
-9.701006999999999
 30
0.0
 11
10.7
 21
-9.7
 31
0.0
  0
LINE
  5
5BA
330
1F
100
AcDbEntity
  8
0
100
AcDbLine
 10
12.85
 20
9.7
 30
0.0
 11
12.894865
 21
9.701006999999999
 31
0.0
  0
LINE
  5
5BB
330
1F
100
AcDbEntity
  8
0
100
AcDbLine
 10
-10.7
 20
9.7
 30
0.0
 11
-10.655135
 21
9.701006999999999
 31
0.0
  0
LINE
  5
5BC
330
1F
100
AcDbEntity
  8
0
100
AcDbLine
 10
10.655135
 20
13.848993
 30
0.0
 11
10.7
 21
13.85
 31
0.0
  0
LINE
  5
5BD
330
1F
100
AcDbEntity
  8
0
100
AcDbLine
 10
-12.894865
 20
13.848993
 30
0.0
 11
-12.85
 21
13.85
 31
0.0
  0
LINE
  5
5BE
330
1F
100
AcDbEntity
  8
0
100
AcDbLine
 10
-13.089729
 20
14.997986
 30
0.0
 11
-13.0
 21
15.0
 31
0.0
  0
LINE
  5
5BF
330
1F
100
AcDbEntity
  8
0
100
AcDbLine
 10
0.088146
 20
-3.648936
 30
0.0
 11
0.264232
 21
-3.640423
 31
0.0
  0
LINE
  5
5C0
330
1F
100
AcDbEntity
  8
0
100
AcDbLine
 10
-0.264232
 20
3.640423
 30
0.0
 11
-0.088146
 21
3.648936
 31
0.0
  0
LINE
  5
5C1
330
1F
100
AcDbEntity
  8
0
100
AcDbLine
 10
-12.939639
 20
-9.704025
 30
0.0
 11
-12.894865
 21
-9.701006999999999
 31
0.0
  0
LINE
  5
5C2
330
1F
100
AcDbEntity
  8
0
100
AcDbLine
 10
10.610361
 20
-9.704025
 30
0.0
 11
10.655135
 21
-9.701006999999999
 31
0.0
  0
LINE
  5
5C3
330
1F
100
AcDbEntity
  8
0
100
AcDbLine
 10
12.894865
 20
9.701006999999999
 30
0.0
 11
12.939639
 21
9.704025
 31
0.0
  0
LINE
  5
5C4
330
1F
100
AcDbEntity
  8
0
100
AcDbLine
 10
-10.655135
 20
9.701006999999999
 30
0.0
 11
-10.610361
 21
9.704025
 31
0.0
  0
LINE
  5
5C5
330
1F
100
AcDbEntity
  8
0
100
AcDbLine
 10
13.089729
 20
-14.997986
 30
0.0
 11
13.179278
 21
-14.991948
 31
0.0
  0
LINE
  5
5C6
330
1F
100
AcDbEntity
  8
0
100
AcDbLine
 10
-10.655135
 20
-13.848993
 30
0.0
 11
-10.610361
 21
-13.845974
 31
0.0
  0
LINE
  5
5C7
330
1F
100
AcDbEntity
  8
0
100
AcDbLine
 10
12.894865
 20
-13.848993
 30
0.0
 11
12.939639
 21
-13.845974
 31
0.0
  0
LINE
  5
5C8
330
1F
100
AcDbEntity
  8
0
100
AcDbLine
 10
10.610361
 20
13.845974
 30
0.0
 11
10.655135
 21
13.848993
 31
0.0
  0
LINE
  5
5C9
330
1F
100
AcDbEntity
  8
0
100
AcDbLine
 10
-12.939639
 20
13.845974
 30
0.0
 11
-12.894865
 21
13.848993
 31
0.0
  0
LINE
  5
5CA
330
1F
100
AcDbEntity
  8
0
100
AcDbLine
 10
-13.179278
 20
14.991948
 30
0.0
 11
-13.089729
 21
14.997986
 31
0.0
  0
LINE
  5
5CB
330
1F
100
AcDbEntity
  8
0
100
AcDbLine
 10
0.264232
 20
-3.640423
 30
0.0
 11
0.439702
 21
-3.623419
 31
0.0
  0
LINE
  5
5CC
330
1F
100
AcDbEntity
  8
0
100
AcDbLine
 10
-0.439702
 20
3.623419
 30
0.0
 11
-0.264232
 21
3.640423
 31
0.0
  0
LINE
  5
5CD
330
1F
100
AcDbEntity
  8
0
100
AcDbLine
 10
-10.610361
 20
-13.845974
 30
0.0
 11
-10.565766
 21
-13.84095
 31
0.0
  0
LINE
  5
5CE
330
1F
100
AcDbEntity
  8
0
100
AcDbLine
 10
10.565766
 20
13.84095
 30
0.0
 11
10.610361
 21
13.845974
 31
0.0
  0
LINE
  5
5CF
330
1F
100
AcDbEntity
  8
0
100
AcDbLine
 10
12.939639
 20
-13.845974
 30
0.0
 11
12.984233
 21
-13.84095
 31
0.0
  0
LINE
  5
5D0
330
1F
100
AcDbEntity
  8
0
100
AcDbLine
 10
-12.984233
 20
13.84095
 30
0.0
 11
-12.939639
 21
13.845974
 31
0.0
  0
LINE
  5
5D1
330
1F
100
AcDbEntity
  8
0
100
AcDbLine
 10
13.179278
 20
-14.991948
 30
0.0
 11
13.268467
 21
-14.981899
 31
0.0
  0
LINE
  5
5D2
330
1F
100
AcDbEntity
  8
0
100
AcDbLine
 10
-13.268467
 20
14.981899
 30
0.0
 11
-13.179278
 21
14.991948
 31
0.0
  0
LINE
  5
5D3
330
1F
100
AcDbEntity
  8
0
100
AcDbLine
 10
10.565766
 20
-9.70905
 30
0.0
 11
10.610361
 21
-9.704025
 31
0.0
  0
LINE
  5
5D4
330
1F
100
AcDbEntity
  8
0
100
AcDbLine
 10
-10.610361
 20
9.704025
 30
0.0
 11
-10.565766
 21
9.70905
 31
0.0
  0
LINE
  5
5D5
330
1F
100
AcDbEntity
  8
0
100
AcDbLine
 10
-12.984233
 20
-9.70905
 30
0.0
 11
-12.939639
 21
-9.704025
 31
0.0
  0
LINE
  5
5D6
330
1F
100
AcDbEntity
  8
0
100
AcDbLine
 10
12.939639
 20
9.704025
 30
0.0
 11
12.984233
 21
9.70905
 31
0.0
  0
LINE
  5
5D7
330
1F
100
AcDbEntity
  8
0
100
AcDbLine
 10
0.439702
 20
-3.623419
 30
0.0
 11
0.614146
 21
-3.597961
 31
0.0
  0
LINE
  5
5D8
330
1F
100
AcDbEntity
  8
0
100
AcDbLine
 10
-0.614146
 20
3.597961
 30
0.0
 11
-0.439702
 21
3.623419
 31
0.0
  0
LINE
  5
5D9
330
1F
100
AcDbEntity
  8
0
100
AcDbLine
 10
12.984233
 20
-13.84095
 30
0.0
 11
13.028557
 21
-13.83393
 31
0.0
  0
LINE
  5
5DA
330
1F
100
AcDbEntity
  8
0
100
AcDbLine
 10
-13.028557
 20
-9.71607
 30
0.0
 11
-12.984233
 21
-9.70905
 31
0.0
  0
LINE
  5
5DB
330
1F
100
AcDbEntity
  8
0
100
AcDbLine
 10
12.984233
 20
9.70905
 30
0.0
 11
13.028557
 21
9.71607
 31
0.0
  0
LINE
  5
5DC
330
1F
100
AcDbEntity
  8
0
100
AcDbLine
 10
-13.028557
 20
13.83393
 30
0.0
 11
-12.984233
 21
13.84095
 31
0.0
  0
LINE
  5
5DD
330
1F
100
AcDbEntity
  8
0
100
AcDbLine
 10
13.268467
 20
-14.981899
 30
0.0
 11
13.357114
 21
-14.967859
 31
0.0
  0
LINE
  5
5DE
330
1F
100
AcDbEntity
  8
0
100
AcDbLine
 10
-13.357114
 20
14.967859
 30
0.0
 11
-13.268467
 21
14.981899
 31
0.0
  0
LINE
  5
5DF
330
1F
100
AcDbEntity
  8
0
100
AcDbLine
 10
-10.565766
 20
-13.84095
 30
0.0
 11
-10.521443
 21
-13.83393
 31
0.0
  0
LINE
  5
5E0
330
1F
100
AcDbEntity
  8
0
100
AcDbLine
 10
10.521443
 20
-9.71607
 30
0.0
 11
10.565766
 21
-9.70905
 31
0.0
  0
LINE
  5
5E1
330
1F
100
AcDbEntity
  8
0
100
AcDbLine
 10
-10.565766
 20
9.70905
 30
0.0
 11
-10.521443
 21
9.71607
 31
0.0
  0
LINE
  5
5E2
330
1F
100
AcDbEntity
  8
0
100
AcDbLine
 10
10.521443
 20
13.83393
 30
0.0
 11
10.565766
 21
13.84095
 31
0.0
  0
LINE
  5
5E3
330
1F
100
AcDbEntity
  8
0
100
AcDbLine
 10
0.614146
 20
-3.597961
 30
0.0
 11
0.787157
 21
-3.564111
 31
0.0
  0
LINE
  5
5E4
330
1F
100
AcDbEntity
  8
0
100
AcDbLine
 10
-0.787157
 20
3.564111
 30
0.0
 11
-0.614146
 21
3.597961
 31
0.0
  0
LINE
  5
5E5
330
1F
100
AcDbEntity
  8
0
100
AcDbLine
 10
13.357114
 20
-14.967859
 30
0.0
 11
13.445042
 21
-14.949856
 31
0.0
  0
LINE
  5
5E6
330
1F
100
AcDbEntity
  8
0
100
AcDbLine
 10
-13.445042
 20
14.949856
 30
0.0
 11
-13.357114
 21
14.967859
 31
0.0
  0
LINE
  5
5E7
330
1F
100
AcDbEntity
  8
0
100
AcDbLine
 10
-10.521443
 20
-13.83393
 30
0.0
 11
-10.477479
 21
-13.824928
 31
0.0
  0
LINE
  5
5E8
330
1F
100
AcDbEntity
  8
0
100
AcDbLine
 10
13.028557
 20
-13.83393
 30
0.0
 11
13.072521
 21
-13.824928
 31
0.0
  0
LINE
  5
5E9
330
1F
100
AcDbEntity
  8
0
100
AcDbLine
 10
-13.072521
 20
-9.725071999999999
 30
0.0
 11
-13.028557
 21
-9.71607
 31
0.0
  0
LINE
  5
5EA
330
1F
100
AcDbEntity
  8
0
100
AcDbLine
 10
10.477479
 20
-9.725071999999999
 30
0.0
 11
10.521443
 21
-9.71607
 31
0.0
  0
LINE
  5
5EB
330
1F
100
AcDbEntity
  8
0
100
AcDbLine
 10
13.028557
 20
9.71607
 30
0.0
 11
13.072521
 21
9.725071999999999
 31
0.0
  0
LINE
  5
5EC
330
1F
100
AcDbEntity
  8
0
100
AcDbLine
 10
-10.521443
 20
9.71607
 30
0.0
 11
-10.477479
 21
9.725071999999999
 31
0.0
  0
LINE
  5
5ED
330
1F
100
AcDbEntity
  8
0
100
AcDbLine
 10
10.477479
 20
13.824928
 30
0.0
 11
10.521443
 21
13.83393
 31
0.0
  0
LINE
  5
5EE
330
1F
100
AcDbEntity
  8
0
100
AcDbLine
 10
-13.072521
 20
13.824928
 30
0.0
 11
-13.028557
 21
13.83393
 31
0.0
  0
LINE
  5
5EF
330
1F
100
AcDbEntity
  8
0
100
AcDbLine
 10
0.787157
 20
-3.564111
 30
0.0
 11
0.958332
 21
-3.521945
 31
0.0
  0
LINE
  5
5F0
330
1F
100
AcDbEntity
  8
0
100
AcDbLine
 10
-0.958332
 20
3.521945
 30
0.0
 11
-0.787157
 21
3.564111
 31
0.0
  0
LINE
  5
5F1
330
1F
100
AcDbEntity
  8
0
100
AcDbLine
 10
13.445042
 20
-14.949856
 30
0.0
 11
13.532074
 21
-14.927926
 31
0.0
  0
LINE
  5
5F2
330
1F
100
AcDbEntity
  8
0
100
AcDbLine
 10
-10.477479
 20
-13.824928
 30
0.0
 11
-10.433963
 21
-13.813963
 31
0.0
  0
LINE
  5
5F3
330
1F
100
AcDbEntity
  8
0
100
AcDbLine
 10
10.433963
 20
-9.736037
 30
0.0
 11
10.477479
 21
-9.725071999999999
 31
0.0
  0
LINE
  5
5F4
330
1F
100
AcDbEntity
  8
0
100
AcDbLine
 10
-10.477479
 20
9.725071999999999
 30
0.0
 11
-10.433963
 21
9.736037
 31
0.0
  0
LINE
  5
5F5
330
1F
100
AcDbEntity
  8
0
100
AcDbLine
 10
10.433963
 20
13.813963
 30
0.0
 11
10.477479
 21
13.824928
 31
0.0
  0
LINE
  5
5F6
330
1F
100
AcDbEntity
  8
0
100
AcDbLine
 10
-13.532074
 20
14.927926
 30
0.0
 11
-13.445042
 21
14.949856
 31
0.0
  0
LINE
  5
5F7
330
1F
100
AcDbEntity
  8
0
100
AcDbLine
 10
13.072521
 20
-13.824928
 30
0.0
 11
13.116036
 21
-13.813963
 31
0.0
  0
LINE
  5
5F8
330
1F
100
AcDbEntity
  8
0
100
AcDbLine
 10
-13.116036
 20
-9.736037
 30
0.0
 11
-13.072521
 21
-9.725071999999999
 31
0.0
  0
LINE
  5
5F9
330
1F
100
AcDbEntity
  8
0
100
AcDbLine
 10
13.072521
 20
9.725071999999999
 30
0.0
 11
13.116036
 21
9.736037
 31
0.0
  0
LINE
  5
5FA
330
1F
100
AcDbEntity
  8
0
100
AcDbLine
 10
-13.116036
 20
13.813963
 30
0.0
 11
-13.072521
 21
13.824928
 31
0.0
  0
LINE
  5
5FB
330
1F
100
AcDbEntity
  8
0
100
AcDbLine
 10
0.958332
 20
-3.521945
 30
0.0
 11
1.127272
 21
-3.471564
 31
0.0
  0
LINE
  5
5FC
330
1F
100
AcDbEntity
  8
0
100
AcDbLine
 10
-1.127272
 20
3.471564
 30
0.0
 11
-0.958332
 21
3.521945
 31
0.0
  0
LINE
  5
5FD
330
1F
100
AcDbEntity
  8
0
100
AcDbLine
 10
13.116036
 20
-13.813963
 30
0.0
 11
13.159017
 21
-13.801057
 31
0.0
  0
LINE
  5
5FE
330
1F
100
AcDbEntity
  8
0
100
AcDbLine
 10
-13.159017
 20
-9.748942999999999
 30
0.0
 11
-13.116036
 21
-9.736037
 31
0.0
  0
LINE
  5
5FF
330
1F
100
AcDbEntity
  8
0
100
AcDbLine
 10
13.116036
 20
9.736037
 30
0.0
 11
13.159017
 21
9.748942999999999
 31
0.0
  0
LINE
  5
600
330
1F
100
AcDbEntity
  8
0
100
AcDbLine
 10
-13.159017
 20
13.801057
 30
0.0
 11
-13.116036
 21
13.813963
 31
0.0
  0
LINE
  5
601
330
1F
100
AcDbEntity
  8
0
100
AcDbLine
 10
-10.433963
 20
-13.813963
 30
0.0
 11
-10.390983
 21
-13.801057
 31
0.0
  0
LINE
  5
602
330
1F
100
AcDbEntity
  8
0
100
AcDbLine
 10
10.390983
 20
-9.748942999999999
 30
0.0
 11
10.433963
 21
-9.736037
 31
0.0
  0
LINE
  5
603
330
1F
100
AcDbEntity
  8
0
100
AcDbLine
 10
-10.433963
 20
9.736037
 30
0.0
 11
-10.390983
 21
9.748942999999999
 31
0.0
  0
LINE
  5
604
330
1F
100
AcDbEntity
  8
0
100
AcDbLine
 10
10.390983
 20
13.801057
 30
0.0
 11
10.433963
 21
13.813963
 31
0.0
  0
LINE
  5
605
330
1F
100
AcDbEntity
  8
0
100
AcDbLine
 10
13.532074
 20
-14.927926
 30
0.0
 11
13.618034
 21
-14.902113
 31
0.0
  0
LINE
  5
606
330
1F
100
AcDbEntity
  8
0
100
AcDbLine
 10
-13.618034
 20
14.902113
 30
0.0
 11
-13.532074
 21
14.927926
 31
0.0
  0
LINE
  5
607
330
1F
100
AcDbEntity
  8
0
100
AcDbLine
 10
13.618034
 20
-14.902113
 30
0.0
 11
13.702749
 21
-14.87247
 31
0.0
  0
LINE
  5
608
330
1F
100
AcDbEntity
  8
0
100
AcDbLine
 10
-13.702749
 20
14.87247
 30
0.0
 11
-13.618034
 21
14.902113
 31
0.0
  0
LINE
  5
609
330
1F
100
AcDbEntity
  8
0
100
AcDbLine
 10
-10.390983
 20
-13.801057
 30
0.0
 11
-10.348625
 21
-13.786235
 31
0.0
  0
LINE
  5
60A
330
1F
100
AcDbEntity
  8
0
100
AcDbLine
 10
13.159017
 20
-13.801057
 30
0.0
 11
13.201375
 21
-13.786235
 31
0.0
  0
LINE
  5
60B
330
1F
100
AcDbEntity
  8
0
100
AcDbLine
 10
-13.201375
 20
-9.763765
 30
0.0
 11
-13.159017
 21
-9.748942999999999
 31
0.0
  0
LINE
  5
60C
330
1F
100
AcDbEntity
  8
0
100
AcDbLine
 10
10.348625
 20
-9.763765
 30
0.0
 11
10.390983
 21
-9.748942999999999
 31
0.0
  0
LINE
  5
60D
330
1F
100
AcDbEntity
  8
0
100
AcDbLine
 10
13.159017
 20
9.748942999999999
 30
0.0
 11
13.201375
 21
9.763765
 31
0.0
  0
LINE
  5
60E
330
1F
100
AcDbEntity
  8
0
100
AcDbLine
 10
-10.390983
 20
9.748942999999999
 30
0.0
 11
-10.348625
 21
9.763765
 31
0.0
  0
LINE
  5
60F
330
1F
100
AcDbEntity
  8
0
100
AcDbLine
 10
10.348625
 20
13.786235
 30
0.0
 11
10.390983
 21
13.801057
 31
0.0
  0
LINE
  5
610
330
1F
100
AcDbEntity
  8
0
100
AcDbLine
 10
-13.201375
 20
13.786235
 30
0.0
 11
-13.159017
 21
13.801057
 31
0.0
  0
LINE
  5
611
330
1F
100
AcDbEntity
  8
0
100
AcDbLine
 10
1.127272
 20
-3.471564
 30
0.0
 11
1.293582
 21
-3.413085
 31
0.0
  0
LINE
  5
612
330
1F
100
AcDbEntity
  8
0
100
AcDbLine
 10
-1.293582
 20
3.413085
 30
0.0
 11
-1.127272
 21
3.471564
 31
0.0
  0
LINE
  5
613
330
1F
100
AcDbEntity
  8
0
100
AcDbLine
 10
13.702749
 20
-14.87247
 30
0.0
 11
13.78605
 21
-14.839056
 31
0.0
  0
LINE
  5
614
330
1F
100
AcDbEntity
  8
0
100
AcDbLine
 10
-13.78605
 20
14.839056
 30
0.0
 11
-13.702749
 21
14.87247
 31
0.0
  0
LINE
  5
615
330
1F
100
AcDbEntity
  8
0
100
AcDbLine
 10
-13.243025
 20
-9.780472
 30
0.0
 11
-13.201375
 21
-9.763765
 31
0.0
  0
LINE
  5
616
330
1F
100
AcDbEntity
  8
0
100
AcDbLine
 10
10.306975
 20
-9.780472
 30
0.0
 11
10.348625
 21
-9.763765
 31
0.0
  0
LINE
  5
617
330
1F
100
AcDbEntity
  8
0
100
AcDbLine
 10
13.201375
 20
9.763765
 30
0.0
 11
13.243025
 21
9.780472
 31
0.0
  0
LINE
  5
618
330
1F
100
AcDbEntity
  8
0
100
AcDbLine
 10
-10.348625
 20
9.763765
 30
0.0
 11
-10.306975
 21
9.780472
 31
0.0
  0
LINE
  5
619
330
1F
100
AcDbEntity
  8
0
100
AcDbLine
 10
-10.348625
 20
-13.786235
 30
0.0
 11
-10.306975
 21
-13.769527
 31
0.0
  0
LINE
  5
61A
330
1F
100
AcDbEntity
  8
0
100
AcDbLine
 10
13.201375
 20
-13.786235
 30
0.0
 11
13.243025
 21
-13.769527
 31
0.0
  0
LINE
  5
61B
330
1F
100
AcDbEntity
  8
0
100
AcDbLine
 10
10.306975
 20
13.769527
 30
0.0
 11
10.348625
 21
13.786235
 31
0.0
  0
LINE
  5
61C
330
1F
100
AcDbEntity
  8
0
100
AcDbLine
 10
-13.243025
 20
13.769527
 30
0.0
 11
-13.201375
 21
13.786235
 31
0.0
  0
LINE
  5
61D
330
1F
100
AcDbEntity
  8
0
100
AcDbLine
 10
1.293582
 20
-3.413085
 30
0.0
 11
1.456874
 21
-3.346643
 31
0.0
  0
LINE
  5
61E
330
1F
100
AcDbEntity
  8
0
100
AcDbLine
 10
-1.456874
 20
3.346643
 30
0.0
 11
-1.293582
 21
3.413085
 31
0.0
  0
LINE
  5
61F
330
1F
100
AcDbEntity
  8
0
100
AcDbLine
 10
-10.306975
 20
-13.769527
 30
0.0
 11
-10.266116
 21
-13.750969
 31
0.0
  0
LINE
  5
620
330
1F
100
AcDbEntity
  8
0
100
AcDbLine
 10
13.243025
 20
-13.769527
 30
0.0
 11
13.283884
 21
-13.750969
 31
0.0
  0
LINE
  5
621
330
1F
100
AcDbEntity
  8
0
100
AcDbLine
 10
10.266116
 20
13.750969
 30
0.0
 11
10.306975
 21
13.769527
 31
0.0
  0
LINE
  5
622
330
1F
100
AcDbEntity
  8
0
100
AcDbLine
 10
-13.283884
 20
13.750969
 30
0.0
 11
-13.243025
 21
13.769527
 31
0.0
  0
LINE
  5
623
330
1F
100
AcDbEntity
  8
0
100
AcDbLine
 10
-13.283884
 20
-9.799031
 30
0.0
 11
-13.243025
 21
-9.780472
 31
0.0
  0
LINE
  5
624
330
1F
100
AcDbEntity
  8
0
100
AcDbLine
 10
10.266116
 20
-9.799031
 30
0.0
 11
10.306975
 21
-9.780472
 31
0.0
  0
LINE
  5
625
330
1F
100
AcDbEntity
  8
0
100
AcDbLine
 10
13.243025
 20
9.780472
 30
0.0
 11
13.283884
 21
9.799031
 31
0.0
  0
LINE
  5
626
330
1F
100
AcDbEntity
  8
0
100
AcDbLine
 10
-10.306975
 20
9.780472
 30
0.0
 11
-10.266116
 21
9.799031
 31
0.0
  0
LINE
  5
627
330
1F
100
AcDbEntity
  8
0
100
AcDbLine
 10
13.78605
 20
-14.839056
 30
0.0
 11
13.867767
 21
-14.801938
 31
0.0
  0
LINE
  5
628
330
1F
100
AcDbEntity
  8
0
100
AcDbLine
 10
-13.867767
 20
14.801938
 30
0.0
 11
-13.78605
 21
14.839056
 31
0.0
  0
LINE
  5
629
330
1F
100
AcDbEntity
  8
0
100
AcDbLine
 10
1.456874
 20
-3.346643
 30
0.0
 11
1.616767
 21
-3.272394
 31
0.0
  0
LINE
  5
62A
330
1F
100
AcDbEntity
  8
0
100
AcDbLine
 10
-1.616767
 20
3.272394
 30
0.0
 11
-1.456874
 21
3.346643
 31
0.0
  0
LINE
  5
62B
330
1F
100
AcDbEntity
  8
0
100
AcDbLine
 10
-10.266116
 20
-13.750969
 30
0.0
 11
-10.226131
 21
-13.730596
 31
0.0
  0
LINE
  5
62C
330
1F
100
AcDbEntity
  8
0
100
AcDbLine
 10
13.283884
 20
-13.750969
 30
0.0
 11
13.323869
 21
-13.730596
 31
0.0
  0
LINE
  5
62D
330
1F
100
AcDbEntity
  8
0
100
AcDbLine
 10
10.226131
 20
13.730596
 30
0.0
 11
10.266116
 21
13.750969
 31
0.0
  0
LINE
  5
62E
330
1F
100
AcDbEntity
  8
0
100
AcDbLine
 10
-13.323869
 20
13.730596
 30
0.0
 11
-13.283884
 21
13.750969
 31
0.0
  0
LINE
  5
62F
330
1F
100
AcDbEntity
  8
0
100
AcDbLine
 10
13.867767
 20
-14.801938
 30
0.0
 11
13.947738
 21
-14.761191
 31
0.0
  0
LINE
  5
630
330
1F
100
AcDbEntity
  8
0
100
AcDbLine
 10
-13.947738
 20
14.761191
 30
0.0
 11
-13.867767
 21
14.801938
 31
0.0
  0
LINE
  5
631
330
1F
100
AcDbEntity
  8
0
100
AcDbLine
 10
-13.323869
 20
-9.819405
 30
0.0
 11
-13.283884
 21
-9.799031
 31
0.0
  0
LINE
  5
632
330
1F
100
AcDbEntity
  8
0
100
AcDbLine
 10
10.226131
 20
-9.819405
 30
0.0
 11
10.266116
 21
-9.799031
 31
0.0
  0
LINE
  5
633
330
1F
100
AcDbEntity
  8
0
100
AcDbLine
 10
13.283884
 20
9.799031
 30
0.0
 11
13.323869
 21
9.819405
 31
0.0
  0
LINE
  5
634
330
1F
100
AcDbEntity
  8
0
100
AcDbLine
 10
-10.266116
 20
9.799031
 30
0.0
 11
-10.226131
 21
9.819405
 31
0.0
  0
LINE
  5
635
330
1F
100
AcDbEntity
  8
0
100
AcDbLine
 10
10.1871
 20
-9.841550999999999
 30
0.0
 11
10.226131
 21
-9.819405
 31
0.0
  0
LINE
  5
636
330
1F
100
AcDbEntity
  8
0
100
AcDbLine
 10
-10.226131
 20
9.819405
 30
0.0
 11
-10.1871
 21
9.841550999999999
 31
0.0
  0
LINE
  5
637
330
1F
100
AcDbEntity
  8
0
100
AcDbLine
 10
-13.362899
 20
-9.841550999999999
 30
0.0
 11
-13.323869
 21
-9.819405
 31
0.0
  0
LINE
  5
638
330
1F
100
AcDbEntity
  8
0
100
AcDbLine
 10
13.323869
 20
9.819405
 30
0.0
 11
13.362899
 21
9.841550999999999
 31
0.0
  0
LINE
  5
639
330
1F
100
AcDbEntity
  8
0
100
AcDbLine
 10
13.947738
 20
-14.761191
 30
0.0
 11
14.025799
 21
-14.716898
 31
0.0
  0
LINE
  5
63A
330
1F
100
AcDbEntity
  8
0
100
AcDbLine
 10
-14.025799
 20
14.716898
 30
0.0
 11
-13.947738
 21
14.761191
 31
0.0
  0
LINE
  5
63B
330
1F
100
AcDbEntity
  8
0
100
AcDbLine
 10
-10.226131
 20
-13.730596
 30
0.0
 11
-10.1871
 21
-13.708448
 31
0.0
  0
LINE
  5
63C
330
1F
100
AcDbEntity
  8
0
100
AcDbLine
 10
10.1871
 20
13.708448
 30
0.0
 11
10.226131
 21
13.730596
 31
0.0
  0
LINE
  5
63D
330
1F
100
AcDbEntity
  8
0
100
AcDbLine
 10
13.323869
 20
-13.730596
 30
0.0
 11
13.362899
 21
-13.708448
 31
0.0
  0
LINE
  5
63E
330
1F
100
AcDbEntity
  8
0
100
AcDbLine
 10
-13.362899
 20
13.708448
 30
0.0
 11
-13.323869
 21
13.730596
 31
0.0
  0
LINE
  5
63F
330
1F
100
AcDbEntity
  8
0
100
AcDbLine
 10
-0.919615
 20
-6.0
 30
0.0
 11
0.0
 21
-5.46906
 31
0.0
  0
LINE
  5
640
330
1F
100
AcDbEntity
  8
0
100
AcDbLine
 10
0.0
 20
5.46906
 30
0.0
 11
0.919615
 21
6.0
 31
0.0
  0
LINE
  5
641
330
1F
100
AcDbEntity
  8
0
100
AcDbLine
 10
13.362899
 20
-13.708448
 30
0.0
 11
13.400897
 21
-13.684573
 31
0.0
  0
LINE
  5
642
330
1F
100
AcDbEntity
  8
0
100
AcDbLine
 10
-13.400897
 20
13.684573
 30
0.0
 11
-13.362899
 21
13.708448
 31
0.0
  0
LINE
  5
643
330
1F
100
AcDbEntity
  8
0
100
AcDbLine
 10
-10.1871
 20
-13.708448
 30
0.0
 11
-10.149103
 21
-13.684573
 31
0.0
  0
LINE
  5
644
330
1F
100
AcDbEntity
  8
0
100
AcDbLine
 10
10.149103
 20
13.684573
 30
0.0
 11
10.1871
 21
13.708448
 31
0.0
  0
LINE
  5
645
330
1F
100
AcDbEntity
  8
0
100
AcDbLine
 10
14.025799
 20
-14.716898
 30
0.0
 11
14.101794
 21
-14.669147
 31
0.0
  0
LINE
  5
646
330
1F
100
AcDbEntity
  8
0
100
AcDbLine
 10
-14.101794
 20
14.669147
 30
0.0
 11
-14.025799
 21
14.716898
 31
0.0
  0
LINE
  5
647
330
1F
100
AcDbEntity
  8
0
100
AcDbLine
 10
-13.400897
 20
-9.865427
 30
0.0
 11
-13.362899
 21
-9.841550999999999
 31
0.0
  0
LINE
  5
648
330
1F
100
AcDbEntity
  8
0
100
AcDbLine
 10
13.362899
 20
9.841550999999999
 30
0.0
 11
13.400897
 21
9.865427
 31
0.0
  0
LINE
  5
649
330
1F
100
AcDbEntity
  8
0
100
AcDbLine
 10
10.149103
 20
-9.865427
 30
0.0
 11
10.1871
 21
-9.841550999999999
 31
0.0
  0
LINE
  5
64A
330
1F
100
AcDbEntity
  8
0
100
AcDbLine
 10
-10.1871
 20
9.841550999999999
 30
0.0
 11
-10.149103
 21
9.865427
 31
0.0
  0
LINE
  5
64B
330
1F
100
AcDbEntity
  8
0
100
AcDbLine
 10
-10.149103
 20
-13.684573
 30
0.0
 11
-10.112215
 21
-13.659017
 31
0.0
  0
LINE
  5
64C
330
1F
100
AcDbEntity
  8
0
100
AcDbLine
 10
13.400897
 20
-13.684573
 30
0.0
 11
13.437785
 21
-13.659017
 31
0.0
  0
LINE
  5
64D
330
1F
100
AcDbEntity
  8
0
100
AcDbLine
 10
-13.437785
 20
-9.890983
 30
0.0
 11
-13.400897
 21
-9.865427
 31
0.0
  0
LINE
  5
64E
330
1F
100
AcDbEntity
  8
0
100
AcDbLine
 10
10.112215
 20
-9.890983
 30
0.0
 11
10.149103
 21
-9.865427
 31
0.0
  0
LINE
  5
64F
330
1F
100
AcDbEntity
  8
0
100
AcDbLine
 10
13.400897
 20
9.865427
 30
0.0
 11
13.437785
 21
9.890983
 31
0.0
  0
LINE
  5
650
330
1F
100
AcDbEntity
  8
0
100
AcDbLine
 10
-10.149103
 20
9.865427
 30
0.0
 11
-10.112215
 21
9.890983
 31
0.0
  0
LINE
  5
651
330
1F
100
AcDbEntity
  8
0
100
AcDbLine
 10
10.112215
 20
13.659017
 30
0.0
 11
10.149103
 21
13.684573
 31
0.0
  0
LINE
  5
652
330
1F
100
AcDbEntity
  8
0
100
AcDbLine
 10
-13.437785
 20
13.659017
 30
0.0
 11
-13.400897
 21
13.684573
 31
0.0
  0
LINE
  5
653
330
1F
100
AcDbEntity
  8
0
100
AcDbLine
 10
14.101794
 20
-14.669147
 30
0.0
 11
14.17557
 21
-14.618034
 31
0.0
  0
LINE
  5
654
330
1F
100
AcDbEntity
  8
0
100
AcDbLine
 10
-14.17557
 20
14.618034
 30
0.0
 11
-14.101794
 21
14.669147
 31
0.0
  0
LINE
  5
655
330
1F
100
AcDbEntity
  8
0
100
AcDbLine
 10
3.117158
 20
-4.531372
 30
0.0
 11
3.349511
 21
-4.362428
 31
0.0
  0
LINE
  5
656
330
1F
100
AcDbEntity
  8
0
100
AcDbLine
 10
-3.349511
 20
4.362428
 30
0.0
 11
-3.117158
 21
4.531372
 31
0.0
  0
LINE
  5
657
330
1F
100
AcDbEntity
  8
0
100
AcDbLine
 10
-13.47349
 20
-9.918168
 30
0.0
 11
-13.437785
 21
-9.890983
 31
0.0
  0
LINE
  5
658
330
1F
100
AcDbEntity
  8
0
100
AcDbLine
 10
10.07651
 20
-9.918168
 30
0.0
 11
10.112215
 21
-9.890983
 31
0.0
  0
LINE
  5
659
330
1F
100
AcDbEntity
  8
0
100
AcDbLine
 10
13.437785
 20
9.890983
 30
0.0
 11
13.47349
 21
9.918168
 31
0.0
  0
LINE
  5
65A
330
1F
100
AcDbEntity
  8
0
100
AcDbLine
 10
-10.112215
 20
9.890983
 30
0.0
 11
-10.07651
 21
9.918168
 31
0.0
  0
LINE
  5
65B
330
1F
100
AcDbEntity
  8
0
100
AcDbLine
 10
14.17557
 20
-14.618034
 30
0.0
 11
14.24698
 21
-14.563663
 31
0.0
  0
LINE
  5
65C
330
1F
100
AcDbEntity
  8
0
100
AcDbLine
 10
-14.24698
 20
14.563663
 30
0.0
 11
-14.17557
 21
14.618034
 31
0.0
  0
LINE
  5
65D
330
1F
100
AcDbEntity
  8
0
100
AcDbLine
 10
-10.112215
 20
-13.659017
 30
0.0
 11
-10.07651
 21
-13.631831
 31
0.0
  0
LINE
  5
65E
330
1F
100
AcDbEntity
  8
0
100
AcDbLine
 10
13.437785
 20
-13.659017
 30
0.0
 11
13.47349
 21
-13.631831
 31
0.0
  0
LINE
  5
65F
330
1F
100
AcDbEntity
  8
0
100
AcDbLine
 10
10.07651
 20
13.631831
 30
0.0
 11
10.112215
 21
13.659017
 31
0.0
  0
LINE
  5
660
330
1F
100
AcDbEntity
  8
0
100
AcDbLine
 10
-13.47349
 20
13.631831
 30
0.0
 11
-13.437785
 21
13.659017
 31
0.0
  0
LINE
  5
661
330
1F
100
AcDbEntity
  8
0
100
AcDbLine
 10
3.349511
 20
-4.362428
 30
0.0
 11
3.572725
 21
-4.181583
 31
0.0
  0
LINE
  5
662
330
1F
100
AcDbEntity
  8
0
100
AcDbLine
 10
-3.572725
 20
4.181583
 30
0.0
 11
-3.349511
 21
4.362428
 31
0.0
  0
LINE
  5
663
330
1F
100
AcDbEntity
  8
0
100
AcDbLine
 10
14.24698
 20
-14.563663
 30
0.0
 11
14.315878
 21
-14.506143
 31
0.0
  0
LINE
  5
664
330
1F
100
AcDbEntity
  8
0
100
AcDbLine
 10
-10.07651
 20
-13.631831
 30
0.0
 11
-10.042061
 21
-13.603071
 31
0.0
  0
LINE
  5
665
330
1F
100
AcDbEntity
  8
0
100
AcDbLine
 10
10.042061
 20
13.603071
 30
0.0
 11
10.07651
 21
13.631831
 31
0.0
  0
LINE
  5
666
330
1F
100
AcDbEntity
  8
0
100
AcDbLine
 10
-14.315878
 20
14.506143
 30
0.0
 11
-14.24698
 21
14.563663
 31
0.0
  0
LINE
  5
667
330
1F
100
AcDbEntity
  8
0
100
AcDbLine
 10
13.47349
 20
-13.631831
 30
0.0
 11
13.507938
 21
-13.603071
 31
0.0
  0
LINE
  5
668
330
1F
100
AcDbEntity
  8
0
100
AcDbLine
 10
-13.507938
 20
13.603071
 30
0.0
 11
-13.47349
 21
13.631831
 31
0.0
  0
LINE
  5
669
330
1F
100
AcDbEntity
  8
0
100
AcDbLine
 10
10.042061
 20
-9.946928999999999
 30
0.0
 11
10.07651
 21
-9.918168
 31
0.0
  0
LINE
  5
66A
330
1F
100
AcDbEntity
  8
0
100
AcDbLine
 10
-10.07651
 20
9.918168
 30
0.0
 11
-10.042061
 21
9.946928999999999
 31
0.0
  0
LINE
  5
66B
330
1F
100
AcDbEntity
  8
0
100
AcDbLine
 10
-13.507938
 20
-9.946928999999999
 30
0.0
 11
-13.47349
 21
-9.918168
 31
0.0
  0
LINE
  5
66C
330
1F
100
AcDbEntity
  8
0
100
AcDbLine
 10
13.47349
 20
9.918168
 30
0.0
 11
13.507938
 21
9.946928999999999
 31
0.0
  0
LINE
  5
66D
330
1F
100
AcDbEntity
  8
0
100
AcDbLine
 10
-3.117158
 20
-4.531372
 30
0.0
 11
-1.616767
 21
-3.272394
 31
0.0
  0
LINE
  5
66E
330
1F
100
AcDbEntity
  8
0
100
AcDbLine
 10
1.616767
 20
3.272394
 30
0.0
 11
3.117158
 21
4.531372
 31
0.0
  0
LINE
  5
66F
330
1F
100
AcDbEntity
  8
0
100
AcDbLine
 10
3.572725
 20
-4.181583
 30
0.0
 11
3.786192
 21
-3.98933
 31
0.0
  0
LINE
  5
670
330
1F
100
AcDbEntity
  8
0
100
AcDbLine
 10
-3.786192
 20
3.98933
 30
0.0
 11
-3.572725
 21
4.181583
 31
0.0
  0
LINE
  5
671
330
1F
100
AcDbEntity
  8
0
100
AcDbLine
 10
-10.042061
 20
-13.603071
 30
0.0
 11
-10.008937
 21
-13.572795
 31
0.0
  0
LINE
  5
672
330
1F
100
AcDbEntity
  8
0
100
AcDbLine
 10
13.507938
 20
-13.603071
 30
0.0
 11
13.541062
 21
-13.572795
 31
0.0
  0
LINE
  5
673
330
1F
100
AcDbEntity
  8
0
100
AcDbLine
 10
-13.541062
 20
-9.977205
 30
0.0
 11
-13.507938
 21
-9.946928999999999
 31
0.0
  0
LINE
  5
674
330
1F
100
AcDbEntity
  8
0
100
AcDbLine
 10
10.008937
 20
-9.977205
 30
0.0
 11
10.042061
 21
-9.946928999999999
 31
0.0
  0
LINE
  5
675
330
1F
100
AcDbEntity
  8
0
100
AcDbLine
 10
13.507938
 20
9.946928999999999
 30
0.0
 11
13.541062
 21
9.977205
 31
0.0
  0
LINE
  5
676
330
1F
100
AcDbEntity
  8
0
100
AcDbLine
 10
-10.042061
 20
9.946928999999999
 30
0.0
 11
-10.008937
 21
9.977205
 31
0.0
  0
LINE
  5
677
330
1F
100
AcDbEntity
  8
0
100
AcDbLine
 10
10.008937
 20
13.572795
 30
0.0
 11
10.042061
 21
13.603071
 31
0.0
  0
LINE
  5
678
330
1F
100
AcDbEntity
  8
0
100
AcDbLine
 10
-13.541062
 20
13.572795
 30
0.0
 11
-13.507938
 21
13.603071
 31
0.0
  0
LINE
  5
679
330
1F
100
AcDbEntity
  8
0
100
AcDbLine
 10
14.315878
 20
-14.506143
 30
0.0
 11
14.382125
 21
-14.44559
 31
0.0
  0
LINE
  5
67A
330
1F
100
AcDbEntity
  8
0
100
AcDbLine
 10
-14.382125
 20
14.44559
 30
0.0
 11
-14.315878
 21
14.506143
 31
0.0
  0
LINE
  5
67B
330
1F
100
AcDbEntity
  8
0
100
AcDbLine
 10
-13.572795
 20
-10.008937
 30
0.0
 11
-13.541062
 21
-9.977205
 31
0.0
  0
LINE
  5
67C
330
1F
100
AcDbEntity
  8
0
100
AcDbLine
 10
13.541062
 20
9.977205
 30
0.0
 11
13.572795
 21
10.008937
 31
0.0
  0
LINE
  5
67D
330
1F
100
AcDbEntity
  8
0
100
AcDbLine
 10
14.382125
 20
-14.44559
 30
0.0
 11
14.44559
 21
-14.382125
 31
0.0
  0
LINE
  5
67E
330
1F
100
AcDbEntity
  8
0
100
AcDbLine
 10
13.541062
 20
-13.572795
 30
0.0
 11
13.572795
 21
-13.541062
 31
0.0
  0
LINE
  5
67F
330
1F
100
AcDbEntity
  8
0
100
AcDbLine
 10
-8.25
 20
-10.053123
 30
0.0
 11
-4.196877
 21
-6.0
 31
0.0
  0
LINE
  5
680
330
1F
100
AcDbEntity
  8
0
100
AcDbLine
 10
9.977205
 20
-10.008937
 30
0.0
 11
10.008937
 21
-9.977205
 31
0.0
  0
LINE
  5
681
330
1F
100
AcDbEntity
  8
0
100
AcDbLine
 10
-10.053123
 20
-8.25
 30
0.0
 11
-6.0
 21
-4.196877
 31
0.0
  0
LINE
  5
682
330
1F
100
AcDbEntity
  8
0
100
AcDbLine
 10
3.786192
 20
-3.98933
 30
0.0
 11
3.98933
 21
-3.786192
 31
0.0
  0
LINE
  5
683
330
1F
100
AcDbEntity
  8
0
100
AcDbLine
 10
-3.98933
 20
3.786192
 30
0.0
 11
-3.786192
 21
3.98933
 31
0.0
  0
LINE
  5
684
330
1F
100
AcDbEntity
  8
0
100
AcDbLine
 10
6.0
 20
4.196877
 30
0.0
 11
10.053123
 21
8.25
 31
0.0
  0
LINE
  5
685
330
1F
100
AcDbEntity
  8
0
100
AcDbLine
 10
4.196877
 20
6.0
 30
0.0
 11
8.25
 21
10.053123
 31
0.0
  0
LINE
  5
686
330
1F
100
AcDbEntity
  8
0
100
AcDbLine
 10
-10.008937
 20
9.977205
 30
0.0
 11
-9.977205
 21
10.008937
 31
0.0
  0
LINE
  5
687
330
1F
100
AcDbEntity
  8
0
100
AcDbLine
 10
-13.572795
 20
13.541062
 30
0.0
 11
-13.541062
 21
13.572795
 31
0.0
  0
LINE
  5
688
330
1F
100
AcDbEntity
  8
0
100
AcDbLine
 10
-14.44559
 20
14.382125
 30
0.0
 11
-14.382125
 21
14.44559
 31
0.0
  0
LINE
  5
689
330
1F
100
AcDbEntity
  8
0
100
AcDbLine
 10
-10.008937
 20
-13.572795
 30
0.0
 11
-9.977205
 21
-13.541062
 31
0.0
  0
LINE
  5
68A
330
1F
100
AcDbEntity
  8
0
100
AcDbLine
 10
9.977205
 20
13.541062
 30
0.0
 11
10.008937
 21
13.572795
 31
0.0
  0
LINE
  5
68B
330
1F
100
AcDbEntity
  8
0
100
AcDbLine
 10
14.44559
 20
-14.382125
 30
0.0
 11
14.506143
 21
-14.315878
 31
0.0
  0
LINE
  5
68C
330
1F
100
AcDbEntity
  8
0
100
AcDbLine
 10
-14.506143
 20
14.315878
 30
0.0
 11
-14.44559
 21
14.382125
 31
0.0
  0
LINE
  5
68D
330
1F
100
AcDbEntity
  8
0
100
AcDbLine
 10
-9.977205
 20
-13.541062
 30
0.0
 11
-9.946928999999999
 21
-13.507938
 31
0.0
  0
LINE
  5
68E
330
1F
100
AcDbEntity
  8
0
100
AcDbLine
 10
13.572795
 20
-13.541062
 30
0.0
 11
13.603071
 21
-13.507938
 31
0.0
  0
LINE
  5
68F
330
1F
100
AcDbEntity
  8
0
100
AcDbLine
 10
-13.603071
 20
-10.042061
 30
0.0
 11
-13.572795
 21
-10.008937
 31
0.0
  0
LINE
  5
690
330
1F
100
AcDbEntity
  8
0
100
AcDbLine
 10
9.946928999999999
 20
-10.042061
 30
0.0
 11
9.977205
 21
-10.008937
 31
0.0
  0
LINE
  5
691
330
1F
100
AcDbEntity
  8
0
100
AcDbLine
 10
13.572795
 20
10.008937
 30
0.0
 11
13.603071
 21
10.042061
 31
0.0
  0
LINE
  5
692
330
1F
100
AcDbEntity
  8
0
100
AcDbLine
 10
-9.977205
 20
10.008937
 30
0.0
 11
-9.946928999999999
 21
10.042061
 31
0.0
  0
LINE
  5
693
330
1F
100
AcDbEntity
  8
0
100
AcDbLine
 10
9.946928999999999
 20
13.507938
 30
0.0
 11
9.977205
 21
13.541062
 31
0.0
  0
LINE
  5
694
330
1F
100
AcDbEntity
  8
0
100
AcDbLine
 10
-13.603071
 20
13.507938
 30
0.0
 11
-13.572795
 21
13.541062
 31
0.0
  0
LINE
  5
695
330
1F
100
AcDbEntity
  8
0
100
AcDbLine
 10
3.98933
 20
-3.786192
 30
0.0
 11
4.181583
 21
-3.572725
 31
0.0
  0
LINE
  5
696
330
1F
100
AcDbEntity
  8
0
100
AcDbLine
 10
-4.181583
 20
3.572725
 30
0.0
 11
-3.98933
 21
3.786192
 31
0.0
  0
LINE
  5
697
330
1F
100
AcDbEntity
  8
0
100
AcDbLine
 10
-4.531372
 20
-3.117158
 30
0.0
 11
-3.272394
 21
-1.616767
 31
0.0
  0
LINE
  5
698
330
1F
100
AcDbEntity
  8
0
100
AcDbLine
 10
3.272394
 20
1.616767
 30
0.0
 11
4.531372
 21
3.117158
 31
0.0
  0
LINE
  5
699
330
1F
100
AcDbEntity
  8
0
100
AcDbLine
 10
-9.946928999999999
 20
-13.507938
 30
0.0
 11
-9.918168
 21
-13.47349
 31
0.0
  0
LINE
  5
69A
330
1F
100
AcDbEntity
  8
0
100
AcDbLine
 10
9.918168
 20
13.47349
 30
0.0
 11
9.946928999999999
 21
13.507938
 31
0.0
  0
LINE
  5
69B
330
1F
100
AcDbEntity
  8
0
100
AcDbLine
 10
9.918168
 20
-10.07651
 30
0.0
 11
9.946928999999999
 21
-10.042061
 31
0.0
  0
LINE
  5
69C
330
1F
100
AcDbEntity
  8
0
100
AcDbLine
 10
-9.946928999999999
 20
10.042061
 30
0.0
 11
-9.918168
 21
10.07651
 31
0.0
  0
LINE
  5
69D
330
1F
100
AcDbEntity
  8
0
100
AcDbLine
 10
13.603071
 20
-13.507938
 30
0.0
 11
13.631831
 21
-13.47349
 31
0.0
  0
LINE
  5
69E
330
1F
100
AcDbEntity
  8
0
100
AcDbLine
 10
-13.631831
 20
13.47349
 30
0.0
 11
-13.603071
 21
13.507938
 31
0.0
  0
LINE
  5
69F
330
1F
100
AcDbEntity
  8
0
100
AcDbLine
 10
14.506143
 20
-14.315878
 30
0.0
 11
14.563663
 21
-14.24698
 31
0.0
  0
LINE
  5
6A0
330
1F
100
AcDbEntity
  8
0
100
AcDbLine
 10
-13.631831
 20
-10.07651
 30
0.0
 11
-13.603071
 21
-10.042061
 31
0.0
  0
LINE
  5
6A1
330
1F
100
AcDbEntity
  8
0
100
AcDbLine
 10
13.603071
 20
10.042061
 30
0.0
 11
13.631831
 21
10.07651
 31
0.0
  0
LINE
  5
6A2
330
1F
100
AcDbEntity
  8
0
100
AcDbLine
 10
-14.563663
 20
14.24698
 30
0.0
 11
-14.506143
 21
14.315878
 31
0.0
  0
LINE
  5
6A3
330
1F
100
AcDbEntity
  8
0
100
AcDbLine
 10
4.181583
 20
-3.572725
 30
0.0
 11
4.362428
 21
-3.349511
 31
0.0
  0
LINE
  5
6A4
330
1F
100
AcDbEntity
  8
0
100
AcDbLine
 10
-4.362428
 20
3.349511
 30
0.0
 11
-4.181583
 21
3.572725
 31
0.0
  0
LINE
  5
6A5
330
1F
100
AcDbEntity
  8
0
100
AcDbLine
 10
13.631831
 20
-13.47349
 30
0.0
 11
13.659017
 21
-13.437785
 31
0.0
  0
LINE
  5
6A6
330
1F
100
AcDbEntity
  8
0
100
AcDbLine
 10
-13.659017
 20
-10.112215
 30
0.0
 11
-13.631831
 21
-10.07651
 31
0.0
  0
LINE
  5
6A7
330
1F
100
AcDbEntity
  8
0
100
AcDbLine
 10
13.631831
 20
10.07651
 30
0.0
 11
13.659017
 21
10.112215
 31
0.0
  0
LINE
  5
6A8
330
1F
100
AcDbEntity
  8
0
100
AcDbLine
 10
-13.659017
 20
13.437785
 30
0.0
 11
-13.631831
 21
13.47349
 31
0.0
  0
LINE
  5
6A9
330
1F
100
AcDbEntity
  8
0
100
AcDbLine
 10
14.563663
 20
-14.24698
 30
0.0
 11
14.618034
 21
-14.17557
 31
0.0
  0
LINE
  5
6AA
330
1F
100
AcDbEntity
  8
0
100
AcDbLine
 10
-14.618034
 20
14.17557
 30
0.0
 11
-14.563663
 21
14.24698
 31
0.0
  0
LINE
  5
6AB
330
1F
100
AcDbEntity
  8
0
100
AcDbLine
 10
-9.918168
 20
-13.47349
 30
0.0
 11
-9.890983
 21
-13.437785
 31
0.0
  0
LINE
  5
6AC
330
1F
100
AcDbEntity
  8
0
100
AcDbLine
 10
9.890983
 20
-10.112215
 30
0.0
 11
9.918168
 21
-10.07651
 31
0.0
  0
LINE
  5
6AD
330
1F
100
AcDbEntity
  8
0
100
AcDbLine
 10
-9.918168
 20
10.07651
 30
0.0
 11
-9.890983
 21
10.112215
 31
0.0
  0
LINE
  5
6AE
330
1F
100
AcDbEntity
  8
0
100
AcDbLine
 10
9.890983
 20
13.437785
 30
0.0
 11
9.918168
 21
13.47349
 31
0.0
  0
LINE
  5
6AF
330
1F
100
AcDbEntity
  8
0
100
AcDbLine
 10
4.362428
 20
-3.349511
 30
0.0
 11
4.531372
 21
-3.117158
 31
0.0
  0
LINE
  5
6B0
330
1F
100
AcDbEntity
  8
0
100
AcDbLine
 10
-4.531372
 20
3.117158
 30
0.0
 11
-4.362428
 21
3.349511
 31
0.0
  0
LINE
  5
6B1
330
1F
100
AcDbEntity
  8
0
100
AcDbLine
 10
14.618034
 20
-14.17557
 30
0.0
 11
14.669147
 21
-14.101794
 31
0.0
  0
LINE
  5
6B2
330
1F
100
AcDbEntity
  8
0
100
AcDbLine
 10
-14.669147
 20
14.101794
 30
0.0
 11
-14.618034
 21
14.17557
 31
0.0
  0
LINE
  5
6B3
330
1F
100
AcDbEntity
  8
0
100
AcDbLine
 10
-9.890983
 20
-13.437785
 30
0.0
 11
-9.865427
 21
-13.400897
 31
0.0
  0
LINE
  5
6B4
330
1F
100
AcDbEntity
  8
0
100
AcDbLine
 10
13.659017
 20
-13.437785
 30
0.0
 11
13.684573
 21
-13.400897
 31
0.0
  0
LINE
  5
6B5
330
1F
100
AcDbEntity
  8
0
100
AcDbLine
 10
-13.684573
 20
-10.149103
 30
0.0
 11
-13.659017
 21
-10.112215
 31
0.0
  0
LINE
  5
6B6
330
1F
100
AcDbEntity
  8
0
100
AcDbLine
 10
9.865427
 20
-10.149103
 30
0.0
 11
9.890983
 21
-10.112215
 31
0.0
  0
LINE
  5
6B7
330
1F
100
AcDbEntity
  8
0
100
AcDbLine
 10
13.659017
 20
10.112215
 30
0.0
 11
13.684573
 21
10.149103
 31
0.0
  0
LINE
  5
6B8
330
1F
100
AcDbEntity
  8
0
100
AcDbLine
 10
-9.890983
 20
10.112215
 30
0.0
 11
-9.865427
 21
10.149103
 31
0.0
  0
LINE
  5
6B9
330
1F
100
AcDbEntity
  8
0
100
AcDbLine
 10
9.865427
 20
13.400897
 30
0.0
 11
9.890983
 21
13.437785
 31
0.0
  0
LINE
  5
6BA
330
1F
100
AcDbEntity
  8
0
100
AcDbLine
 10
-13.684573
 20
13.400897
 30
0.0
 11
-13.659017
 21
13.437785
 31
0.0
  0
LINE
  5
6BB
330
1F
100
AcDbEntity
  8
0
100
AcDbLine
 10
9.841550999999999
 20
-10.1871
 30
0.0
 11
9.865427
 21
-10.149103
 31
0.0
  0
LINE
  5
6BC
330
1F
100
AcDbEntity
  8
0
100
AcDbLine
 10
-9.865427
 20
10.149103
 30
0.0
 11
-9.841550999999999
 21
10.1871
 31
0.0
  0
LINE
  5
6BD
330
1F
100
AcDbEntity
  8
0
100
AcDbLine
 10
-9.865427
 20
-13.400897
 30
0.0
 11
-9.841550999999999
 21
-13.362899
 31
0.0
  0
LINE
  5
6BE
330
1F
100
AcDbEntity
  8
0
100
AcDbLine
 10
9.841550999999999
 20
13.362899
 30
0.0
 11
9.865427
 21
13.400897
 31
0.0
  0
LINE
  5
6BF
330
1F
100
AcDbEntity
  8
0
100
AcDbLine
 10
14.669147
 20
-14.101794
 30
0.0
 11
14.716898
 21
-14.025799
 31
0.0
  0
LINE
  5
6C0
330
1F
100
AcDbEntity
  8
0
100
AcDbLine
 10
-14.716898
 20
14.025799
 30
0.0
 11
-14.669147
 21
14.101794
 31
0.0
  0
LINE
  5
6C1
330
1F
100
AcDbEntity
  8
0
100
AcDbLine
 10
-13.708448
 20
-10.1871
 30
0.0
 11
-13.684573
 21
-10.149103
 31
0.0
  0
LINE
  5
6C2
330
1F
100
AcDbEntity
  8
0
100
AcDbLine
 10
13.684573
 20
10.149103
 30
0.0
 11
13.708448
 21
10.1871
 31
0.0
  0
LINE
  5
6C3
330
1F
100
AcDbEntity
  8
0
100
AcDbLine
 10
13.684573
 20
-13.400897
 30
0.0
 11
13.708448
 21
-13.362899
 31
0.0
  0
LINE
  5
6C4
330
1F
100
AcDbEntity
  8
0
100
AcDbLine
 10
-13.708448
 20
13.362899
 30
0.0
 11
-13.684573
 21
13.400897
 31
0.0
  0
LINE
  5
6C5
330
1F
100
AcDbEntity
  8
0
100
AcDbLine
 10
-6.0
 20
-0.919615
 30
0.0
 11
-5.46906
 21
0.0
 31
0.0
  0
LINE
  5
6C6
330
1F
100
AcDbEntity
  8
0
100
AcDbLine
 10
5.46906
 20
0.0
 30
0.0
 11
6.0
 21
0.919615
 31
0.0
  0
LINE
  5
6C7
330
1F
100
AcDbEntity
  8
0
100
AcDbLine
 10
13.708448
 20
-13.362899
 30
0.0
 11
13.730596
 21
-13.323869
 31
0.0
  0
LINE
  5
6C8
330
1F
100
AcDbEntity
  8
0
100
AcDbLine
 10
-13.730596
 20
13.323869
 30
0.0
 11
-13.708448
 21
13.362899
 31
0.0
  0
LINE
  5
6C9
330
1F
100
AcDbEntity
  8
0
100
AcDbLine
 10
-13.730596
 20
-10.226131
 30
0.0
 11
-13.708448
 21
-10.1871
 31
0.0
  0
LINE
  5
6CA
330
1F
100
AcDbEntity
  8
0
100
AcDbLine
 10
13.708448
 20
10.1871
 30
0.0
 11
13.730596
 21
10.226131
 31
0.0
  0
LINE
  5
6CB
330
1F
100
AcDbEntity
  8
0
100
AcDbLine
 10
14.716898
 20
-14.025799
 30
0.0
 11
14.761191
 21
-13.947738
 31
0.0
  0
LINE
  5
6CC
330
1F
100
AcDbEntity
  8
0
100
AcDbLine
 10
-14.761191
 20
13.947738
 30
0.0
 11
-14.716898
 21
14.025799
 31
0.0
  0
LINE
  5
6CD
330
1F
100
AcDbEntity
  8
0
100
AcDbLine
 10
-9.841550999999999
 20
-13.362899
 30
0.0
 11
-9.819405
 21
-13.323869
 31
0.0
  0
LINE
  5
6CE
330
1F
100
AcDbEntity
  8
0
100
AcDbLine
 10
9.819405
 20
13.323869
 30
0.0
 11
9.841550999999999
 21
13.362899
 31
0.0
  0
LINE
  5
6CF
330
1F
100
AcDbEntity
  8
0
100
AcDbLine
 10
9.819405
 20
-10.226131
 30
0.0
 11
9.841550999999999
 21
-10.1871
 31
0.0
  0
LINE
  5
6D0
330
1F
100
AcDbEntity
  8
0
100
AcDbLine
 10
-9.841550999999999
 20
10.1871
 30
0.0
 11
-9.819405
 21
10.226131
 31
0.0
  0
LINE
  5
6D1
330
1F
100
AcDbEntity
  8
0
100
AcDbLine
 10
-9.819405
 20
-13.323869
 30
0.0
 11
-9.799031
 21
-13.283884
 31
0.0
  0
LINE
  5
6D2
330
1F
100
AcDbEntity
  8
0
100
AcDbLine
 10
9.799031
 20
-10.266116
 30
0.0
 11
9.819405
 21
-10.226131
 31
0.0
  0
LINE
  5
6D3
330
1F
100
AcDbEntity
  8
0
100
AcDbLine
 10
-9.819405
 20
10.226131
 30
0.0
 11
-9.799031
 21
10.266116
 31
0.0
  0
LINE
  5
6D4
330
1F
100
AcDbEntity
  8
0
100
AcDbLine
 10
9.799031
 20
13.283884
 30
0.0
 11
9.819405
 21
13.323869
 31
0.0
  0
LINE
  5
6D5
330
1F
100
AcDbEntity
  8
0
100
AcDbLine
 10
14.761191
 20
-13.947738
 30
0.0
 11
14.801938
 21
-13.867767
 31
0.0
  0
LINE
  5
6D6
330
1F
100
AcDbEntity
  8
0
100
AcDbLine
 10
-14.801938
 20
13.867767
 30
0.0
 11
-14.761191
 21
13.947738
 31
0.0
  0
LINE
  5
6D7
330
1F
100
AcDbEntity
  8
0
100
AcDbLine
 10
13.730596
 20
-13.323869
 30
0.0
 11
13.750969
 21
-13.283884
 31
0.0
  0
LINE
  5
6D8
330
1F
100
AcDbEntity
  8
0
100
AcDbLine
 10
-13.750969
 20
-10.266116
 30
0.0
 11
-13.730596
 21
-10.226131
 31
0.0
  0
LINE
  5
6D9
330
1F
100
AcDbEntity
  8
0
100
AcDbLine
 10
13.730596
 20
10.226131
 30
0.0
 11
13.750969
 21
10.266116
 31
0.0
  0
LINE
  5
6DA
330
1F
100
AcDbEntity
  8
0
100
AcDbLine
 10
-13.750969
 20
13.283884
 30
0.0
 11
-13.730596
 21
13.323869
 31
0.0
  0
LINE
  5
6DB
330
1F
100
AcDbEntity
  8
0
100
AcDbLine
 10
3.272394
 20
-1.616767
 30
0.0
 11
3.346643
 21
-1.456874
 31
0.0
  0
LINE
  5
6DC
330
1F
100
AcDbEntity
  8
0
100
AcDbLine
 10
-3.346643
 20
1.456874
 30
0.0
 11
-3.272394
 21
1.616767
 31
0.0
  0
LINE
  5
6DD
330
1F
100
AcDbEntity
  8
0
100
AcDbLine
 10
14.801938
 20
-13.867767
 30
0.0
 11
14.839056
 21
-13.78605
 31
0.0
  0
LINE
  5
6DE
330
1F
100
AcDbEntity
  8
0
100
AcDbLine
 10
-14.839056
 20
13.78605
 30
0.0
 11
-14.801938
 21
13.867767
 31
0.0
  0
LINE
  5
6DF
330
1F
100
AcDbEntity
  8
0
100
AcDbLine
 10
-9.799031
 20
-13.283884
 30
0.0
 11
-9.780472
 21
-13.243025
 31
0.0
  0
LINE
  5
6E0
330
1F
100
AcDbEntity
  8
0
100
AcDbLine
 10
9.780472
 20
-10.306975
 30
0.0
 11
9.799031
 21
-10.266116
 31
0.0
  0
LINE
  5
6E1
330
1F
100
AcDbEntity
  8
0
100
AcDbLine
 10
-9.799031
 20
10.266116
 30
0.0
 11
-9.780472
 21
10.306975
 31
0.0
  0
LINE
  5
6E2
330
1F
100
AcDbEntity
  8
0
100
AcDbLine
 10
9.780472
 20
13.243025
 30
0.0
 11
9.799031
 21
13.283884
 31
0.0
  0
LINE
  5
6E3
330
1F
100
AcDbEntity
  8
0
100
AcDbLine
 10
13.750969
 20
-13.283884
 30
0.0
 11
13.769527
 21
-13.243025
 31
0.0
  0
LINE
  5
6E4
330
1F
100
AcDbEntity
  8
0
100
AcDbLine
 10
-13.769527
 20
-10.306975
 30
0.0
 11
-13.750969
 21
-10.266116
 31
0.0
  0
LINE
  5
6E5
330
1F
100
AcDbEntity
  8
0
100
AcDbLine
 10
13.750969
 20
10.266116
 30
0.0
 11
13.769527
 21
10.306975
 31
0.0
  0
LINE
  5
6E6
330
1F
100
AcDbEntity
  8
0
100
AcDbLine
 10
-13.769527
 20
13.243025
 30
0.0
 11
-13.750969
 21
13.283884
 31
0.0
  0
LINE
  5
6E7
330
1F
100
AcDbEntity
  8
0
100
AcDbLine
 10
3.346643
 20
-1.456874
 30
0.0
 11
3.413085
 21
-1.293582
 31
0.0
  0
LINE
  5
6E8
330
1F
100
AcDbEntity
  8
0
100
AcDbLine
 10
-3.413085
 20
1.293582
 30
0.0
 11
-3.346643
 21
1.456874
 31
0.0
  0
LINE
  5
6E9
330
1F
100
AcDbEntity
  8
0
100
AcDbLine
 10
13.769527
 20
-13.243025
 30
0.0
 11
13.786235
 21
-13.201375
 31
0.0
  0
LINE
  5
6EA
330
1F
100
AcDbEntity
  8
0
100
AcDbLine
 10
-13.786235
 20
-10.348625
 30
0.0
 11
-13.769527
 21
-10.306975
 31
0.0
  0
LINE
  5
6EB
330
1F
100
AcDbEntity
  8
0
100
AcDbLine
 10
13.769527
 20
10.306975
 30
0.0
 11
13.786235
 21
10.348625
 31
0.0
  0
LINE
  5
6EC
330
1F
100
AcDbEntity
  8
0
100
AcDbLine
 10
-13.786235
 20
13.201375
 30
0.0
 11
-13.769527
 21
13.243025
 31
0.0
  0
LINE
  5
6ED
330
1F
100
AcDbEntity
  8
0
100
AcDbLine
 10
-9.780472
 20
-13.243025
 30
0.0
 11
-9.763765
 21
-13.201375
 31
0.0
  0
LINE
  5
6EE
330
1F
100
AcDbEntity
  8
0
100
AcDbLine
 10
9.763765
 20
-10.348625
 30
0.0
 11
9.780472
 21
-10.306975
 31
0.0
  0
LINE
  5
6EF
330
1F
100
AcDbEntity
  8
0
100
AcDbLine
 10
-9.780472
 20
10.306975
 30
0.0
 11
-9.763765
 21
10.348625
 31
0.0
  0
LINE
  5
6F0
330
1F
100
AcDbEntity
  8
0
100
AcDbLine
 10
9.763765
 20
13.201375
 30
0.0
 11
9.780472
 21
13.243025
 31
0.0
  0
LINE
  5
6F1
330
1F
100
AcDbEntity
  8
0
100
AcDbLine
 10
14.839056
 20
-13.78605
 30
0.0
 11
14.87247
 21
-13.702749
 31
0.0
  0
LINE
  5
6F2
330
1F
100
AcDbEntity
  8
0
100
AcDbLine
 10
-14.87247
 20
13.702749
 30
0.0
 11
-14.839056
 21
13.78605
 31
0.0
  0
LINE
  5
6F3
330
1F
100
AcDbEntity
  8
0
100
AcDbLine
 10
3.413085
 20
-1.293582
 30
0.0
 11
3.471564
 21
-1.127272
 31
0.0
  0
LINE
  5
6F4
330
1F
100
AcDbEntity
  8
0
100
AcDbLine
 10
-3.471564
 20
1.127272
 30
0.0
 11
-3.413085
 21
1.293582
 31
0.0
  0
LINE
  5
6F5
330
1F
100
AcDbEntity
  8
0
100
AcDbLine
 10
-9.763765
 20
-13.201375
 30
0.0
 11
-9.748942999999999
 21
-13.159017
 31
0.0
  0
LINE
  5
6F6
330
1F
100
AcDbEntity
  8
0
100
AcDbLine
 10
13.786235
 20
-13.201375
 30
0.0
 11
13.801057
 21
-13.159017
 31
0.0
  0
LINE
  5
6F7
330
1F
100
AcDbEntity
  8
0
100
AcDbLine
 10
-13.801057
 20
-10.390983
 30
0.0
 11
-13.786235
 21
-10.348625
 31
0.0
  0
LINE
  5
6F8
330
1F
100
AcDbEntity
  8
0
100
AcDbLine
 10
9.748942999999999
 20
-10.390983
 30
0.0
 11
9.763765
 21
-10.348625
 31
0.0
  0
LINE
  5
6F9
330
1F
100
AcDbEntity
  8
0
100
AcDbLine
 10
13.786235
 20
10.348625
 30
0.0
 11
13.801057
 21
10.390983
 31
0.0
  0
LINE
  5
6FA
330
1F
100
AcDbEntity
  8
0
100
AcDbLine
 10
-9.763765
 20
10.348625
 30
0.0
 11
-9.748942999999999
 21
10.390983
 31
0.0
  0
LINE
  5
6FB
330
1F
100
AcDbEntity
  8
0
100
AcDbLine
 10
9.748942999999999
 20
13.159017
 30
0.0
 11
9.763765
 21
13.201375
 31
0.0
  0
LINE
  5
6FC
330
1F
100
AcDbEntity
  8
0
100
AcDbLine
 10
-13.801057
 20
13.159017
 30
0.0
 11
-13.786235
 21
13.201375
 31
0.0
  0
LINE
  5
6FD
330
1F
100
AcDbEntity
  8
0
100
AcDbLine
 10
14.87247
 20
-13.702749
 30
0.0
 11
14.902113
 21
-13.618034
 31
0.0
  0
LINE
  5
6FE
330
1F
100
AcDbEntity
  8
0
100
AcDbLine
 10
-14.902113
 20
13.618034
 30
0.0
 11
-14.87247
 21
13.702749
 31
0.0
  0
LINE
  5
6FF
330
1F
100
AcDbEntity
  8
0
100
AcDbLine
 10
14.902113
 20
-13.618034
 30
0.0
 11
14.927926
 21
-13.532074
 31
0.0
  0
LINE
  5
700
330
1F
100
AcDbEntity
  8
0
100
AcDbLine
 10
-14.927926
 20
13.532074
 30
0.0
 11
-14.902113
 21
13.618034
 31
0.0
  0
LINE
  5
701
330
1F
100
AcDbEntity
  8
0
100
AcDbLine
 10
-13.813963
 20
-10.433963
 30
0.0
 11
-13.801057
 21
-10.390983
 31
0.0
  0
LINE
  5
702
330
1F
100
AcDbEntity
  8
0
100
AcDbLine
 10
9.736037
 20
-10.433963
 30
0.0
 11
9.748942999999999
 21
-10.390983
 31
0.0
  0
LINE
  5
703
330
1F
100
AcDbEntity
  8
0
100
AcDbLine
 10
13.801057
 20
10.390983
 30
0.0
 11
13.813963
 21
10.433963
 31
0.0
  0
LINE
  5
704
330
1F
100
AcDbEntity
  8
0
100
AcDbLine
 10
-9.748942999999999
 20
10.390983
 30
0.0
 11
-9.736037
 21
10.433963
 31
0.0
  0
LINE
  5
705
330
1F
100
AcDbEntity
  8
0
100
AcDbLine
 10
-9.748942999999999
 20
-13.159017
 30
0.0
 11
-9.736037
 21
-13.116036
 31
0.0
  0
LINE
  5
706
330
1F
100
AcDbEntity
  8
0
100
AcDbLine
 10
13.801057
 20
-13.159017
 30
0.0
 11
13.813963
 21
-13.116036
 31
0.0
  0
LINE
  5
707
330
1F
100
AcDbEntity
  8
0
100
AcDbLine
 10
9.736037
 20
13.116036
 30
0.0
 11
9.748942999999999
 21
13.159017
 31
0.0
  0
LINE
  5
708
330
1F
100
AcDbEntity
  8
0
100
AcDbLine
 10
-13.813963
 20
13.116036
 30
0.0
 11
-13.801057
 21
13.159017
 31
0.0
  0
LINE
  5
709
330
1F
100
AcDbEntity
  8
0
100
AcDbLine
 10
3.471564
 20
-1.127272
 30
0.0
 11
3.521945
 21
-0.958332
 31
0.0
  0
LINE
  5
70A
330
1F
100
AcDbEntity
  8
0
100
AcDbLine
 10
-3.521945
 20
0.958332
 30
0.0
 11
-3.471564
 21
1.127272
 31
0.0
  0
LINE
  5
70B
330
1F
100
AcDbEntity
  8
0
100
AcDbLine
 10
-9.736037
 20
-13.116036
 30
0.0
 11
-9.725071999999999
 21
-13.072521
 31
0.0
  0
LINE
  5
70C
330
1F
100
AcDbEntity
  8
0
100
AcDbLine
 10
13.813963
 20
-13.116036
 30
0.0
 11
13.824928
 21
-13.072521
 31
0.0
  0
LINE
  5
70D
330
1F
100
AcDbEntity
  8
0
100
AcDbLine
 10
9.725071999999999
 20
13.072521
 30
0.0
 11
9.736037
 21
13.116036
 31
0.0
  0
LINE
  5
70E
330
1F
100
AcDbEntity
  8
0
100
AcDbLine
 10
-13.824928
 20
13.072521
 30
0.0
 11
-13.813963
 21
13.116036
 31
0.0
  0
LINE
  5
70F
330
1F
100
AcDbEntity
  8
0
100
AcDbLine
 10
14.927926
 20
-13.532074
 30
0.0
 11
14.949856
 21
-13.445042
 31
0.0
  0
LINE
  5
710
330
1F
100
AcDbEntity
  8
0
100
AcDbLine
 10
-13.824928
 20
-10.477479
 30
0.0
 11
-13.813963
 21
-10.433963
 31
0.0
  0
LINE
  5
711
330
1F
100
AcDbEntity
  8
0
100
AcDbLine
 10
9.725071999999999
 20
-10.477479
 30
0.0
 11
9.736037
 21
-10.433963
 31
0.0
  0
LINE
  5
712
330
1F
100
AcDbEntity
  8
0
100
AcDbLine
 10
13.813963
 20
10.433963
 30
0.0
 11
13.824928
 21
10.477479
 31
0.0
  0
LINE
  5
713
330
1F
100
AcDbEntity
  8
0
100
AcDbLine
 10
-9.736037
 20
10.433963
 30
0.0
 11
-9.725071999999999
 21
10.477479
 31
0.0
  0
LINE
  5
714
330
1F
100
AcDbEntity
  8
0
100
AcDbLine
 10
-14.949856
 20
13.445042
 30
0.0
 11
-14.927926
 21
13.532074
 31
0.0
  0
LINE
  5
715
330
1F
100
AcDbEntity
  8
0
100
AcDbLine
 10
3.521945
 20
-0.958332
 30
0.0
 11
3.564111
 21
-0.787157
 31
0.0
  0
LINE
  5
716
330
1F
100
AcDbEntity
  8
0
100
AcDbLine
 10
-3.564111
 20
0.787157
 30
0.0
 11
-3.521945
 21
0.958332
 31
0.0
  0
LINE
  5
717
330
1F
100
AcDbEntity
  8
0
100
AcDbLine
 10
-9.725071999999999
 20
-13.072521
 30
0.0
 11
-9.71607
 21
-13.028557
 31
0.0
  0
LINE
  5
718
330
1F
100
AcDbEntity
  8
0
100
AcDbLine
 10
13.824928
 20
-13.072521
 30
0.0
 11
13.83393
 21
-13.028557
 31
0.0
  0
LINE
  5
719
330
1F
100
AcDbEntity
  8
0
100
AcDbLine
 10
-13.83393
 20
-10.521443
 30
0.0
 11
-13.824928
 21
-10.477479
 31
0.0
  0
LINE
  5
71A
330
1F
100
AcDbEntity
  8
0
100
AcDbLine
 10
9.71607
 20
-10.521443
 30
0.0
 11
9.725071999999999
 21
-10.477479
 31
0.0
  0
LINE
  5
71B
330
1F
100
AcDbEntity
  8
0
100
AcDbLine
 10
13.824928
 20
10.477479
 30
0.0
 11
13.83393
 21
10.521443
 31
0.0
  0
LINE
  5
71C
330
1F
100
AcDbEntity
  8
0
100
AcDbLine
 10
-9.725071999999999
 20
10.477479
 30
0.0
 11
-9.71607
 21
10.521443
 31
0.0
  0
LINE
  5
71D
330
1F
100
AcDbEntity
  8
0
100
AcDbLine
 10
9.71607
 20
13.028557
 30
0.0
 11
9.725071999999999
 21
13.072521
 31
0.0
  0
LINE
  5
71E
330
1F
100
AcDbEntity
  8
0
100
AcDbLine
 10
-13.83393
 20
13.028557
 30
0.0
 11
-13.824928
 21
13.072521
 31
0.0
  0
LINE
  5
71F
330
1F
100
AcDbEntity
  8
0
100
AcDbLine
 10
14.949856
 20
-13.445042
 30
0.0
 11
14.967859
 21
-13.357114
 31
0.0
  0
LINE
  5
720
330
1F
100
AcDbEntity
  8
0
100
AcDbLine
 10
-14.967859
 20
13.357114
 30
0.0
 11
-14.949856
 21
13.445042
 31
0.0
  0
LINE
  5
721
330
1F
100
AcDbEntity
  8
0
100
AcDbLine
 10
3.564111
 20
-0.787157
 30
0.0
 11
3.597961
 21
-0.614146
 31
0.0
  0
LINE
  5
722
330
1F
100
AcDbEntity
  8
0
100
AcDbLine
 10
-3.597961
 20
0.614146
 30
0.0
 11
-3.564111
 21
0.787157
 31
0.0
  0
LINE
  5
723
330
1F
100
AcDbEntity
  8
0
100
AcDbLine
 10
-13.84095
 20
-10.565766
 30
0.0
 11
-13.83393
 21
-10.521443
 31
0.0
  0
LINE
  5
724
330
1F
100
AcDbEntity
  8
0
100
AcDbLine
 10
9.70905
 20
-10.565766
 30
0.0
 11
9.71607
 21
-10.521443
 31
0.0
  0
LINE
  5
725
330
1F
100
AcDbEntity
  8
0
100
AcDbLine
 10
13.83393
 20
10.521443
 30
0.0
 11
13.84095
 21
10.565766
 31
0.0
  0
LINE
  5
726
330
1F
100
AcDbEntity
  8
0
100
AcDbLine
 10
-9.71607
 20
10.521443
 30
0.0
 11
-9.70905
 21
10.565766
 31
0.0
  0
LINE
  5
727
330
1F
100
AcDbEntity
  8
0
100
AcDbLine
 10
14.967859
 20
-13.357114
 30
0.0
 11
14.981899
 21
-13.268467
 31
0.0
  0
LINE
  5
728
330
1F
100
AcDbEntity
  8
0
100
AcDbLine
 10
-14.981899
 20
13.268467
 30
0.0
 11
-14.967859
 21
13.357114
 31
0.0
  0
LINE
  5
729
330
1F
100
AcDbEntity
  8
0
100
AcDbLine
 10
-9.71607
 20
-13.028557
 30
0.0
 11
-9.70905
 21
-12.984233
 31
0.0
  0
LINE
  5
72A
330
1F
100
AcDbEntity
  8
0
100
AcDbLine
 10
13.83393
 20
-13.028557
 30
0.0
 11
13.84095
 21
-12.984233
 31
0.0
  0
LINE
  5
72B
330
1F
100
AcDbEntity
  8
0
100
AcDbLine
 10
9.70905
 20
12.984233
 30
0.0
 11
9.71607
 21
13.028557
 31
0.0
  0
LINE
  5
72C
330
1F
100
AcDbEntity
  8
0
100
AcDbLine
 10
-13.84095
 20
12.984233
 30
0.0
 11
-13.83393
 21
13.028557
 31
0.0
  0
LINE
  5
72D
330
1F
100
AcDbEntity
  8
0
100
AcDbLine
 10
3.597961
 20
-0.614146
 30
0.0
 11
3.623419
 21
-0.439702
 31
0.0
  0
LINE
  5
72E
330
1F
100
AcDbEntity
  8
0
100
AcDbLine
 10
-3.623419
 20
0.439702
 30
0.0
 11
-3.597961
 21
0.614146
 31
0.0
  0
LINE
  5
72F
330
1F
100
AcDbEntity
  8
0
100
AcDbLine
 10
-9.70905
 20
-12.984233
 30
0.0
 11
-9.704025
 21
-12.939639
 31
0.0
  0
LINE
  5
730
330
1F
100
AcDbEntity
  8
0
100
AcDbLine
 10
9.704025
 20
12.939639
 30
0.0
 11
9.70905
 21
12.984233
 31
0.0
  0
LINE
  5
731
330
1F
100
AcDbEntity
  8
0
100
AcDbLine
 10
9.704025
 20
-10.610361
 30
0.0
 11
9.70905
 21
-10.565766
 31
0.0
  0
LINE
  5
732
330
1F
100
AcDbEntity
  8
0
100
AcDbLine
 10
-9.70905
 20
10.565766
 30
0.0
 11
-9.704025
 21
10.610361
 31
0.0
  0
LINE
  5
733
330
1F
100
AcDbEntity
  8
0
100
AcDbLine
 10
14.981899
 20
-13.268467
 30
0.0
 11
14.991948
 21
-13.179278
 31
0.0
  0
LINE
  5
734
330
1F
100
AcDbEntity
  8
0
100
AcDbLine
 10
-14.991948
 20
13.179278
 30
0.0
 11
-14.981899
 21
13.268467
 31
0.0
  0
LINE
  5
735
330
1F
100
AcDbEntity
  8
0
100
AcDbLine
 10
13.84095
 20
-12.984233
 30
0.0
 11
13.845974
 21
-12.939639
 31
0.0
  0
LINE
  5
736
330
1F
100
AcDbEntity
  8
0
100
AcDbLine
 10
-13.845974
 20
12.939639
 30
0.0
 11
-13.84095
 21
12.984233
 31
0.0
  0
LINE
  5
737
330
1F
100
AcDbEntity
  8
0
100
AcDbLine
 10
-13.845974
 20
-10.610361
 30
0.0
 11
-13.84095
 21
-10.565766
 31
0.0
  0
LINE
  5
738
330
1F
100
AcDbEntity
  8
0
100
AcDbLine
 10
13.84095
 20
10.565766
 30
0.0
 11
13.845974
 21
10.610361
 31
0.0
  0
LINE
  5
739
330
1F
100
AcDbEntity
  8
0
100
AcDbLine
 10
3.623419
 20
-0.439702
 30
0.0
 11
3.640423
 21
-0.264232
 31
0.0
  0
LINE
  5
73A
330
1F
100
AcDbEntity
  8
0
100
AcDbLine
 10
-3.640423
 20
0.264232
 30
0.0
 11
-3.623419
 21
0.439702
 31
0.0
  0
LINE
  5
73B
330
1F
100
AcDbEntity
  8
0
100
AcDbLine
 10
13.845974
 20
-12.939639
 30
0.0
 11
13.848993
 21
-12.894865
 31
0.0
  0
LINE
  5
73C
330
1F
100
AcDbEntity
  8
0
100
AcDbLine
 10
-13.848993
 20
-10.655135
 30
0.0
 11
-13.845974
 21
-10.610361
 31
0.0
  0
LINE
  5
73D
330
1F
100
AcDbEntity
  8
0
100
AcDbLine
 10
13.845974
 20
10.610361
 30
0.0
 11
13.848993
 21
10.655135
 31
0.0
  0
LINE
  5
73E
330
1F
100
AcDbEntity
  8
0
100
AcDbLine
 10
-13.848993
 20
12.894865
 30
0.0
 11
-13.845974
 21
12.939639
 31
0.0
  0
LINE
  5
73F
330
1F
100
AcDbEntity
  8
0
100
AcDbLine
 10
14.991948
 20
-13.179278
 30
0.0
 11
14.997986
 21
-13.089729
 31
0.0
  0
LINE
  5
740
330
1F
100
AcDbEntity
  8
0
100
AcDbLine
 10
-14.997986
 20
13.089729
 30
0.0
 11
-14.991948
 21
13.179278
 31
0.0
  0
LINE
  5
741
330
1F
100
AcDbEntity
  8
0
100
AcDbLine
 10
-9.704025
 20
-12.939639
 30
0.0
 11
-9.701006999999999
 21
-12.894865
 31
0.0
  0
LINE
  5
742
330
1F
100
AcDbEntity
  8
0
100
AcDbLine
 10
9.701006999999999
 20
-10.655135
 30
0.0
 11
9.704025
 21
-10.610361
 31
0.0
  0
LINE
  5
743
330
1F
100
AcDbEntity
  8
0
100
AcDbLine
 10
-9.704025
 20
10.610361
 30
0.0
 11
-9.701006999999999
 21
10.655135
 31
0.0
  0
LINE
  5
744
330
1F
100
AcDbEntity
  8
0
100
AcDbLine
 10
9.701006999999999
 20
12.894865
 30
0.0
 11
9.704025
 21
12.939639
 31
0.0
  0
LINE
  5
745
330
1F
100
AcDbEntity
  8
0
100
AcDbLine
 10
3.640423
 20
-0.264232
 30
0.0
 11
3.648936
 21
-0.088146
 31
0.0
  0
LINE
  5
746
330
1F
100
AcDbEntity
  8
0
100
AcDbLine
 10
-3.648936
 20
0.088146
 30
0.0
 11
-3.640423
 21
0.264232
 31
0.0
  0
LINE
  5
747
330
1F
100
AcDbEntity
  8
0
100
AcDbLine
 10
14.997986
 20
-13.089729
 30
0.0
 11
15.0
 21
-13.0
 31
0.0
  0
LINE
  5
748
330
1F
100
AcDbEntity
  8
0
100
AcDbLine
 10
-15.0
 20
13.0
 30
0.0
 11
-14.997986
 21
13.089729
 31
0.0
  0
LINE
  5
749
330
1F
100
AcDbEntity
  8
0
100
AcDbLine
 10
-9.701006999999999
 20
-12.894865
 30
0.0
 11
-9.7
 21
-12.85
 31
0.0
  0
LINE
  5
74A
330
1F
100
AcDbEntity
  8
0
100
AcDbLine
 10
13.848993
 20
-12.894865
 30
0.0
 11
13.85
 21
-12.85
 31
0.0
  0
LINE
  5
74B
330
1F
100
AcDbEntity
  8
0
100
AcDbLine
 10
-13.85
 20
-10.7
 30
0.0
 11
-13.848993
 21
-10.655135
 31
0.0
  0
LINE
  5
74C
330
1F
100
AcDbEntity
  8
0
100
AcDbLine
 10
9.7
 20
-10.7
 30
0.0
 11
9.701006999999999
 21
-10.655135
 31
0.0
  0
LINE
  5
74D
330
1F
100
AcDbEntity
  8
0
100
AcDbLine
 10
13.848993
 20
10.655135
 30
0.0
 11
13.85
 21
10.7
 31
0.0
  0
LINE
  5
74E
330
1F
100
AcDbEntity
  8
0
100
AcDbLine
 10
-9.701006999999999
 20
10.655135
 30
0.0
 11
-9.7
 21
10.7
 31
0.0
  0
LINE
  5
74F
330
1F
100
AcDbEntity
  8
0
100
AcDbLine
 10
9.7
 20
12.85
 30
0.0
 11
9.701006999999999
 21
12.894865
 31
0.0
  0
LINE
  5
750
330
1F
100
AcDbEntity
  8
0
100
AcDbLine
 10
-13.85
 20
12.85
 30
0.0
 11
-13.848993
 21
12.894865
 31
0.0
  0
LINE
  5
751
330
1F
100
AcDbEntity
  8
0
100
AcDbLine
 10
-12.803123
 20
-8.25
 30
0.0
 11
-12.8
 21
-4.0
 31
0.0
  0
LINE
  5
752
330
1F
100
AcDbEntity
  8
0
100
AcDbLine
 10
12.8
 20
4.0
 30
0.0
 11
12.803123
 21
8.25
 31
0.0
  0
LINE
  5
753
330
1F
100
AcDbEntity
  8
0
100
AcDbLine
 10
-15.0
 20
4.5
 30
0.0
 11
-15.0
 21
13.0
 31
0.0
  0
LINE
  5
754
330
1F
100
AcDbEntity
  8
0
100
AcDbLine
 10
-15.0
 20
-13.0
 30
0.0
 11
-15.0
 21
-4.5
 31
0.0
  0
LINE
  5
755
330
1F
100
AcDbEntity
  8
0
100
AcDbLine
 10
-14.5
 20
4.0
 30
0.0
 11
-14.5
 21
4.5
 31
0.0
  0
LINE
  5
756
330
1F
100
AcDbEntity
  8
0
100
AcDbLine
 10
-14.5
 20
-4.5
 30
0.0
 11
-14.5
 21
-4.0
 31
0.0
  0
LINE
  5
757
330
1F
100
AcDbEntity
  8
0
100
AcDbLine
 10
-13.85
 20
-12.85
 30
0.0
 11
-13.85
 21
-10.7
 31
0.0
  0
LINE
  5
758
330
1F
100
AcDbEntity
  8
0
100
AcDbLine
 10
-13.85
 20
10.7
 30
0.0
 11
-13.85
 21
12.85
 31
0.0
  0
LINE
  5
759
330
1F
100
AcDbEntity
  8
0
100
AcDbLine
 10
-9.7
 20
-12.85
 30
0.0
 11
-9.7
 21
-10.7
 31
0.0
  0
LINE
  5
75A
330
1F
100
AcDbEntity
  8
0
100
AcDbLine
 10
-9.7
 20
10.7
 30
0.0
 11
-9.7
 21
12.85
 31
0.0
  0
LINE
  5
75B
330
1F
100
AcDbEntity
  8
0
100
AcDbLine
 10
-8.25
 20
10.053123
 30
0.0
 11
-8.25
 21
12.803123
 31
0.0
  0
LINE
  5
75C
330
1F
100
AcDbEntity
  8
0
100
AcDbLine
 10
-8.25
 20
-12.803123
 30
0.0
 11
-8.25
 21
-10.053123
 31
0.0
  0
LINE
  5
75D
330
1F
100
AcDbEntity
  8
0
100
AcDbLine
 10
-6.0
 20
0.919615
 30
0.0
 11
-6.0
 21
4.196877
 31
0.0
  0
LINE
  5
75E
330
1F
100
AcDbEntity
  8
0
100
AcDbLine
 10
-6.0
 20
-4.196877
 30
0.0
 11
-6.0
 21
-0.919615
 31
0.0
  0
LINE
  5
75F
330
1F
100
AcDbEntity
  8
0
100
AcDbLine
 10
-4.5
 20
14.5
 30
0.0
 11
-4.5
 21
15.0
 31
0.0
  0
LINE
  5
760
330
1F
100
AcDbEntity
  8
0
100
AcDbLine
 10
-4.5
 20
-15.0
 30
0.0
 11
-4.5
 21
-14.5
 31
0.0
  0
LINE
  5
761
330
1F
100
AcDbEntity
  8
0
100
AcDbLine
 10
-4.0
 20
12.8
 30
0.0
 11
-4.0
 21
14.5
 31
0.0
  0
LINE
  5
762
330
1F
100
AcDbEntity
  8
0
100
AcDbLine
 10
-4.0
 20
-14.5
 30
0.0
 11
-4.0
 21
-12.8
 31
0.0
  0
LINE
  5
763
330
1F
100
AcDbEntity
  8
0
100
AcDbLine
 10
-3.648936
 20
-0.088146
 30
0.0
 11
-3.648936
 21
0.088146
 31
0.0
  0
LINE
  5
764
330
1F
100
AcDbEntity
  8
0
100
AcDbLine
 10
3.648936
 20
-0.088146
 30
0.0
 11
3.648936
 21
0.088146
 31
0.0
  0
LINE
  5
765
330
1F
100
AcDbEntity
  8
0
100
AcDbLine
 10
4.0
 20
12.8
 30
0.0
 11
4.0
 21
14.5
 31
0.0
  0
LINE
  5
766
330
1F
100
AcDbEntity
  8
0
100
AcDbLine
 10
4.0
 20
-14.5
 30
0.0
 11
4.0
 21
-12.8
 31
0.0
  0
LINE
  5
767
330
1F
100
AcDbEntity
  8
0
100
AcDbLine
 10
4.5
 20
14.5
 30
0.0
 11
4.5
 21
15.0
 31
0.0
  0
LINE
  5
768
330
1F
100
AcDbEntity
  8
0
100
AcDbLine
 10
4.5
 20
-15.0
 30
0.0
 11
4.5
 21
-14.5
 31
0.0
  0
LINE
  5
769
330
1F
100
AcDbEntity
  8
0
100
AcDbLine
 10
6.0
 20
0.919615
 30
0.0
 11
6.0
 21
4.196877
 31
0.0
  0
LINE
  5
76A
330
1F
100
AcDbEntity
  8
0
100
AcDbLine
 10
6.0
 20
-4.196877
 30
0.0
 11
6.0
 21
-0.919615
 31
0.0
  0
LINE
  5
76B
330
1F
100
AcDbEntity
  8
0
100
AcDbLine
 10
8.25
 20
10.053123
 30
0.0
 11
8.25
 21
12.803123
 31
0.0
  0
LINE
  5
76C
330
1F
100
AcDbEntity
  8
0
100
AcDbLine
 10
8.25
 20
-12.803123
 30
0.0
 11
8.25
 21
-10.053123
 31
0.0
  0
LINE
  5
76D
330
1F
100
AcDbEntity
  8
0
100
AcDbLine
 10
9.7
 20
-12.85
 30
0.0
 11
9.7
 21
-10.7
 31
0.0
  0
LINE
  5
76E
330
1F
100
AcDbEntity
  8
0
100
AcDbLine
 10
9.7
 20
10.7
 30
0.0
 11
9.7
 21
12.85
 31
0.0
  0
LINE
  5
76F
330
1F
100
AcDbEntity
  8
0
100
AcDbLine
 10
13.85
 20
-12.85
 30
0.0
 11
13.85
 21
-10.7
 31
0.0
  0
LINE
  5
770
330
1F
100
AcDbEntity
  8
0
100
AcDbLine
 10
13.85
 20
10.7
 30
0.0
 11
13.85
 21
12.85
 31
0.0
  0
LINE
  5
771
330
1F
100
AcDbEntity
  8
0
100
AcDbLine
 10
14.5
 20
4.0
 30
0.0
 11
14.5
 21
4.5
 31
0.0
  0
LINE
  5
772
330
1F
100
AcDbEntity
  8
0
100
AcDbLine
 10
14.5
 20
-4.5
 30
0.0
 11
14.5
 21
-4.0
 31
0.0
  0
LINE
  5
773
330
1F
100
AcDbEntity
  8
0
100
AcDbLine
 10
15.0
 20
4.5
 30
0.0
 11
15.0
 21
13.0
 31
0.0
  0
LINE
  5
774
330
1F
100
AcDbEntity
  8
0
100
AcDbLine
 10
15.0
 20
-13.0
 30
0.0
 11
15.0
 21
-4.5
 31
0.0
  0
ENDSEC
  0
SECTION
  2
OBJECTS
  0
DICTIONARY
  5
C
330
0
100
AcDbDictionary
  3
ACAD_GROUP
350
D
  3
ACAD_LAYOUT
350
1A
  3
ACAD_MATERIAL
350
3B
  3
ACAD_MLEADERSTYLE
350
797
  3
ACAD_MLINESTYLE
350
17
  3
ACAD_PLOTSETTINGS
350
19
  3
ACAD_SCALELIST
350
3CE
  3
ACAD_VISUALSTYLE
350
2A
  3
ACDBHEADERROUNDTRIPXREC
350
775
  3
ACDBVARIABLEDICTIONARY
350
795
  0
DICTIONARY
  5
D
102
{ACAD_REACTORS
330
C
102
}
330
C
100
AcDbDictionary
  0
DICTIONARY
  5
1A
102
{ACAD_REACTORS
330
C
102
}
330
C
100
AcDbDictionary
  0
DICTIONARY
  5
3B
102
{ACAD_REACTORS
330
C
102
}
330
C
100
AcDbDictionary
  3
BYBLOCK
350
3D
  3
BYLAYER
350
3C
  3
GLOBAL
350
3E
  0
DICTIONARY
  5
797
102
{ACAD_REACTORS
330
C
102
}
330
C
100
AcDbDictionary
  0
DICTIONARY
  5
17
102
{ACAD_REACTORS
330
C
102
}
330
C
100
AcDbDictionary
  3
STANDARD
350
18
  0
DICTIONARY
  5
19
102
{ACAD_REACTORS
330
C
102
}
330
C
100
AcDbDictionary
  0
DICTIONARY
  5
3CE
102
{ACAD_REACTORS
330
C
102
}
330
C
100
AcDbDictionary
  3
A0
350
3CF
  3
A1
350
3D0
  3
A2
350
3D1
  3
A3
350
3D2
  3
A4
350
3D3
  3
A5
350
3D4
  3
A6
350
3D5
  3
A7
350
3D6
  3
A8
350
3D7
  3
A9
350
3D8
  3
B0
350
3D9
  3
B1
350
3DA
  3
B2
350
3DB
  3
B3
350
3DC
  3
B4
350
3DD
  3
B5
350
3DE
  3
B6
350
3DF
  3
B7
350
3E0
  3
B8
350
3E1
  3
B9
350
3E2
  3
C0
350
3E3
  3
C1
350
3E4
  3
C2
350
3E5
  3
C3
350
3E6
  3
C4
350
3E7
  3
C5
350
3E8
  3
C6
350
3E9
  3
C7
350
3EA
  3
C8
350
3EB
  3
C9
350
3EC
  3
D0
350
3ED
  3
D1
350
3EE
  3
D2
350
3EF
  0
DICTIONARY
  5
2A
102
{ACAD_REACTORS
330
C
102
}
330
C
100
AcDbDictionary
  3
2DWIREFRAME
350
2F
  3
3D_HIDDEN
350
31
  3
3DWIREFRAME
350
30
  3
BASIC
350
32
  3
BRIGHTEN
350
36
  3
COLORCHANGE
350
3A
  3
CONCEPTUAL
350
34
  3
DIM
350
35
  3
FACEPATTERN
350
39
  3
FLAT
350
2B
  3
FLATWITHEDGES
350
2C
  3
GOURAUD
350
2D
  3
GOURAUDWITHEDGES
350
2E
  3
LINEPATTERN
350
38
  3
REALISTIC
350
33
  3
THICKEN
350
37
  0
DICTIONARY
  5
775
102
{ACAD_REACTORS
330
C
102
}
330
C
100
AcDbDictionary
  3
CEPSNTYPE
350
77E
  3
DIMSTYLEDATA
350
794
  3
FINGERPRINTGUID
350
77F
  3
HYPERLINKBASE
350
778
  3
INSUNITS
350
77D
  3
LAYOUTDICT
350
77A
  3
LWETCUNION
350
77C
  3
PLOTSETDICT
350
77B
  3
PSVPSCALE
350
781
  3
PUCSBASE
350
784
  3
PUCSORGBACK
350
78A
  3
PUCSORGBOTTOM
350
786
  3
PUCSORGFRONT
350
789
  3
PUCSORGLEFT
350
787
  3
PUCSORGRIGHT
350
788
  3
PUCSORGTOP
350
785
  3
PUCSORTHOREF
350
782
  3
PUCSORTHOVIEW
350
783
  3
STYLESHEET
350
779
  3
TSTACKALIGN
350
776
  3
TSTACKSIZE
350
777
  3
UCSBASE
350
78D
  3
UCSORGBACK
350
793
  3
UCSORGBOTTOM
350
78F
  3
UCSORGFRONT
350
792
  3
UCSORGLEFT
350
790
  3
UCSORGRIGHT
350
791
  3
UCSORGTOP
350
78E
  3
UCSORTHOREF
350
78B
  3
UCSORTHOVIEW
350
78C
  3
VERSIONGUID
350
780
  0
DICTIONARY
  5
795
102
{ACAD_REACTORS
330
C
102
}
330
C
100
AcDbDictionary
  3
CANNOSCALE
350
79A
  3
DIMASSOC
350
79B
  3
HIDETEXT
350
79C
  3
PSOLHEIGHT
350
799
  3
PSOLWIDTH
350
798
  0
MATERIAL
  5
3D
102
{ACAD_REACTORS
330
3B
102
}
102
{ACAD_XDICTIONARY
360
79F
102
}
330
3B
100
AcDbMaterial
  1
ByBlock
  0
MATERIAL
  5
3C
102
{ACAD_REACTORS
330
3B
102
}
102
{ACAD_XDICTIONARY
360
79D
102
}
330
3B
100
AcDbMaterial
  1
ByLayer
  0
MATERIAL
  5
3E
102
{ACAD_REACTORS
330
3B
102
}
102
{ACAD_XDICTIONARY
360
7A1
102
}
330
3B
100
AcDbMaterial
  1
Global
  0
MLINESTYLE
  5
18
102
{ACAD_REACTORS
330
17
102
}
330
17
100
AcDbMlineStyle
  2
Standard
 70
     0
  3

 62
   256
 51
90.0
 52
90.0
 71
     2
 49
0.5
 62
   256
  6
BYLAYER
 49
-0.5
 62
   256
  6
BYLAYER
  0
ACAD_PROXY_OBJECT
  5
3CF
102
{ACAD_REACTORS
330
3CE
102
}
330
3CE
100
AcDbProxyObject
 90
      499
 91
      503
 93
       41
310
903313A31580
  0
ACAD_PROXY_OBJECT
  5
3D0
102
{ACAD_REACTORS
330
3CE
102
}
330
3CE
100
AcDbProxyObject
 90
      499
 91
      503
 93
      105
310
903313A324000000000000004000
  0
ACAD_PROXY_OBJECT
  5
3D1
102
{ACAD_REACTORS
330
3CE
102
}
330
3CE
100
AcDbProxyObject
 90
      499
 91
      503
 93
      105
310
903313A344000000000000104000
  0
ACAD_PROXY_OBJECT
  5
3D2
102
{ACAD_REACTORS
330
3CE
102
}
330
3CE
100
AcDbProxyObject
 90
      499
 91
      503
 93
      105
310
903313A354000000000000144000
  0
ACAD_PROXY_OBJECT
  5
3D3
102
{ACAD_REACTORS
330
3CE
102
}
330
3CE
100
AcDbProxyObject
 90
      499
 91
      503
 93
      105
310
903313A384000000000000204000
  0
ACAD_PROXY_OBJECT
  5
3D4
102
{ACAD_REACTORS
330
3CE
102
}
330
3CE
100
AcDbProxyObject
 90
      499
 91
      503
 93
      113
310
904313A31304000000000000244000
  0
ACAD_PROXY_OBJECT
  5
3D5
102
{ACAD_REACTORS
330
3CE
102
}
330
3CE
100
AcDbProxyObject
 90
      499
 91
      503
 93
      113
310
904313A31364000000000000304000
  0
ACAD_PROXY_OBJECT
  5
3D6
102
{ACAD_REACTORS
330
3CE
102
}
330
3CE
100
AcDbProxyObject
 90
      499
 91
      503
 93
      113
310
904313A32304000000000000344000
  0
ACAD_PROXY_OBJECT
  5
3D7
102
{ACAD_REACTORS
330
3CE
102
}
330
3CE
100
AcDbProxyObject
 90
      499
 91
      503
 93
      113
310
904313A333040000000000003E4000
  0
ACAD_PROXY_OBJECT
  5
3D8
102
{ACAD_REACTORS
330
3CE
102
}
330
3CE
100
AcDbProxyObject
 90
      499
 91
      503
 93
      113
310
904313A34304000000000000444000
  0
ACAD_PROXY_OBJECT
  5
3D9
102
{ACAD_REACTORS
330
3CE
102
}
330
3CE
100
AcDbProxyObject
 90
      499
 91
      503
 93
      113
310
904313A35304000000000000494000
  0
ACAD_PROXY_OBJECT
  5
3DA
102
{ACAD_REACTORS
330
3CE
102
}
330
3CE
100
AcDbProxyObject
 90
      499
 91
      503
 93
      121
310
905313A3130304000000000000594000
  0
ACAD_PROXY_OBJECT
  5
3DB
102
{ACAD_REACTORS
330
3CE
102
}
330
3CE
100
AcDbProxyObject
 90
      499
 91
      503
 93
      105
310
903323A310000000000000010100
  0
ACAD_PROXY_OBJECT
  5
3DC
102
{ACAD_REACTORS
330
3CE
102
}
330
3CE
100
AcDbProxyObject
 90
      499
 91
      503
 93
      105
310
903343A310000000000000410100
  0
ACAD_PROXY_OBJECT
  5
3DD
102
{ACAD_REACTORS
330
3CE
102
}
330
3CE
100
AcDbProxyObject
 90
      499
 91
      503
 93
      105
310
903383A310000000000000810100
  0
ACAD_PROXY_OBJECT
  5
3DE
102
{ACAD_REACTORS
330
3CE
102
}
330
3CE
100
AcDbProxyObject
 90
      499
 91
      503
 93
      113
310
90431303A310000000000000910100
  0
ACAD_PROXY_OBJECT
  5
3DF
102
{ACAD_REACTORS
330
3CE
102
}
330
3CE
100
AcDbProxyObject
 90
      499
 91
      503
 93
      121
310
9053130303A310000000000001650100
  0
ACAD_PROXY_OBJECT
  5
3E0
102
{ACAD_REACTORS
330
3CE
102
}
330
3CE
100
AcDbProxyObject
 90
      499
 91
      503
 93
      257
310
90E312F31323822203D2031272D3022000000000000200FC000000000000284000
  0
ACAD_PROXY_OBJECT
  5
3E1
102
{ACAD_REACTORS
330
3CE
102
}
330
3CE
100
AcDbProxyObject
 90
      499
 91
      503
 93
      249
310
90D312F363422203D2031272D3022000000000000240FC000000000000284000
  0
ACAD_PROXY_OBJECT
  5
3E2
102
{ACAD_REACTORS
330
3CE
102
}
330
3CE
100
AcDbProxyObject
 90
      499
 91
      503
 93
      249
310
90D312F333222203D2031272D3022000000000000280FC000000000000284000
  0
ACAD_PROXY_OBJECT
  5
3E3
102
{ACAD_REACTORS
330
3CE
102
}
330
3CE
100
AcDbProxyObject
 90
      499
 91
      503
 93
      249
310
90D312F313622203D2031272D30220000000000002C0FC000000000000284000
  0
ACAD_PROXY_OBJECT
  5
3E4
102
{ACAD_REACTORS
330
3CE
102
}
330
3CE
100
AcDbProxyObject
 90
      499
 91
      503
 93
      249
310
90D332F333222203D2031272D30220000000000002E0FC000000000000284000
  0
ACAD_PROXY_OBJECT
  5
3E5
102
{ACAD_REACTORS
330
3CE
102
}
330
3CE
100
AcDbProxyObject
 90
      499
 91
      503
 93
      241
310
90C312F3822203D2031272D3022000000000000300FC000000000000284000
  0
ACAD_PROXY_OBJECT
  5
3E6
102
{ACAD_REACTORS
330
3CE
102
}
330
3CE
100
AcDbProxyObject
 90
      499
 91
      503
 93
      249
310
90D332F313622203D2031272D3022000000000000320FC000000000000284000
  0
ACAD_PROXY_OBJECT
  5
3E7
102
{ACAD_REACTORS
330
3CE
102
}
330
3CE
100
AcDbProxyObject
 90
      499
 91
      503
 93
      241
310
90C312F3422203D2031272D3022000000000000340FC000000000000284000
  0
ACAD_PROXY_OBJECT
  5
3E8
102
{ACAD_REACTORS
330
3CE
102
}
330
3CE
100
AcDbProxyObject
 90
      499
 91
      503
 93
      241
310
90C332F3822203D2031272D3022000000000000360FC000000000000284000
  0
ACAD_PROXY_OBJECT
  5
3E9
102
{ACAD_REACTORS
330
3CE
102
}
330
3CE
100
AcDbProxyObject
 90
      499
 91
      503
 93
      241
310
90C312F3222203D2031272D3022000000000000380FC000000000000284000
  0
ACAD_PROXY_OBJECT
  5
3EA
102
{ACAD_REACTORS
330
3CE
102
}
330
3CE
100
AcDbProxyObject
 90
      499
 91
      503
 93
      241
310
90C332F3422203D2031272D30220000000000003A0FC000000000000284000
  0
ACAD_PROXY_OBJECT
  5
3EB
102
{ACAD_REACTORS
330
3CE
102
}
330
3CE
100
AcDbProxyObject
 90
      499
 91
      503
 93
      161
310
90A3122203D2031272D30224000000000000284000
  0
ACAD_PROXY_OBJECT
  5
3EC
102
{ACAD_REACTORS
330
3CE
102
}
330
3CE
100
AcDbProxyObject
 90
      499
 91
      503
 93
      257
310
90E312D312F3222203D2031272D30220000000000003E0FC000000000000284000
  0
ACAD_PROXY_OBJECT
  5
3ED
102
{ACAD_REACTORS
330
3CE
102
}
330
3CE
100
AcDbProxyObject
 90
      499
 91
      503
 93
      225
310
90A3322203D2031272D302200000000000002100000000000000284000
  0
ACAD_PROXY_OBJECT
  5
3EE
102
{ACAD_REACTORS
330
3CE
102
}
330
3CE
100
AcDbProxyObject
 90
      499
 91
      503
 93
      225
310
90A3622203D2031272D302200000000000006100000000000000284000
  0
ACAD_PROXY_OBJECT
  5
3EF
102
{ACAD_REACTORS
330
3CE
102
}
330
3CE
100
AcDbProxyObject
 90
      499
 91
      503
 93
      249
310
90D31272D3022203D2031272D30220000000000000A100000000000000284000
  0
ACAD_PROXY_OBJECT
  5
2F
102
{ACAD_REACTORS
330
2A
102
}
330
2A
100
AcDbProxyObject
 90
      499
 91
      501
 93
      436
310
42CC9915DA5C99599C985B595049028333333333333E3BF0000000000000FB0107901411070040501600405405064090741402480A0340
1001
ACAD
1000
AcDbSavedByObjectVersion
1070
     0
  0
ACAD_PROXY_OBJECT
  5
31
102
{ACAD_REACTORS
330
2A
102
}
330
2A
100
AcDbProxyObject
 90
      499
 91
      501
 93
      500
310
424CD108121A5919195B90640502408333333333333E3BF0000000000000FB01079024090700405020000000000001110200405405064090740C02480A0340
1001
ACAD
1000
AcDbSavedByObjectVersion
1070
     0
  0
ACAD_PROXY_OBJECT
  5
30
102
{ACAD_REACTORS
330
2A
102
}
330
2A
100
AcDbProxyObject
 90
      499
 91
      501
 93
      436
310
42CCD915DA5C99599C985B595059028333333333333E3BF0000000000000FB0107901411070040501600405405064090741402480A0340
1001
ACAD
1000
AcDbSavedByObjectVersion
1070
     0
  0
ACAD_PROXY_OBJECT
  5
32
102
{ACAD_REACTORS
330
2A
102
}
330
2A
100
AcDbProxyObject
 90
      499
 91
      501
 93
      388
310
4150985CDA58D07406404333333333333E3BF0000000000000FB0107A41107004050150841D405064090741402480A0350
1001
ACAD
1000
AcDbSavedByObjectVersion
1070
     0
  0
ACAD_PROXY_OBJECT
  5
36
102
{ACAD_REACTORS
330
2A
102
}
330
2A
100
AcDbProxyObject
 90
      499
 91
      501
 93
      428
310
42109C9A59DA1D195B90C409028333333333333E3BF0000000000000FB010790141107004050150841D405064090741402480A029950
1001
ACAD
1000
AcDbSavedByObjectVersion
1070
     0
  0
ACAD_PROXY_OBJECT
  5
3A
102
{ACAD_REACTORS
330
2A
102
}
330
2A
100
AcDbProxyObject
 90
      499
 91
      501
 93
      452
310
42D0DBDB1BDC90DA185B99D95104090240C333333333333E3BF0000000000000FB0108901411070040501508421405064090741402480A0350
1001
ACAD
1000
AcDbSavedByObjectVersion
1070
     0
  0
ACAD_PROXY_OBJECT
  5
34
102
{ACAD_REACTORS
330
2A
102
}
330
2A
100
AcDbProxyObject
 90
      499
 91
      501
 93
      500
310
4290DBDB98D95C1D1D585B10940D028333333333333E3BF0000000000000FB0107902409070040501000000000000111010841D405064090740C02480A0340
1001
ACAD
1000
AcDbSavedByObjectVersion
1070
     0
  0
ACAD_PROXY_OBJECT
  5
35
102
{ACAD_REACTORS
330
2A
102
}
330
2A
100
AcDbProxyObject
 90
      499
 91
      501
 93
      412
310
40D11A5B50B409028333333333333E3BF0000000000000FB010790141107004050150841D405064090741402480A02677FFFFFD0
1001
ACAD
1000
AcDbSavedByObjectVersion
1070
     0
  0
ACAD_PROXY_OBJECT
  5
39
102
{ACAD_REACTORS
330
2A
102
}
330
2A
100
AcDbProxyObject
 90
      499
 91
      501
 93
      444
310
42D19858D95C185D1D195C9B90F409028333333333333E3BF0000000000000FB010790141107004050150841D405064090741402480A0350
1001
ACAD
1000
AcDbSavedByObjectVersion
1070
     0
  0
ACAD_PROXY_OBJECT
  5
2B
102
{ACAD_REACTORS
330
2A
102
}
330
2A
100
AcDbProxyObject
 90
      499
 91
      501
 93
      388
310
41119B185D240901404333333333333E3BF0000000000000F9010740A41107004050150841D405064090741402480A1B50
1001
ACAD
1000
AcDbSavedByObjectVersion
1070
     0
  0
ACAD_PROXY_OBJECT
  5
2C
102
{ACAD_REACTORS
330
2A
102
}
330
2A
100
AcDbProxyObject
 90
      499
 91
      501
 93
      476
310
43519B185D15DA5D1A115919D95CD0140901404333333333333E3BF0000000000000F9010740901411070040501600405405064090741402480A1B50
1001
ACAD
1000
AcDbSavedByObjectVersion
1070
     0
  0
ACAD_PROXY_OBJECT
  5
2D
102
{ACAD_REACTORS
330
2A
102
}
330
2A
100
AcDbProxyObject
 90
      499
 91
      501
 93
      412
310
41D1DBDD5C985D5910240902404333333333333E3BF0000000000000F9010740A411070040501641D405064090741402480A1B50
1001
ACAD
1000
AcDbSavedByObjectVersion
1070
     0
  0
ACAD_PROXY_OBJECT
  5
2E
102
{ACAD_REACTORS
330
2A
102
}
330
2A
100
AcDbProxyObject
 90
      499
 91
      501
 93
      500
310
4411DBDD5C985D5915DA5D1A115919D95CD0340902404333333333333E3BF0000000000000F9010740901411070040501600405405064090741402480A1B50
1001
ACAD
1000
AcDbSavedByObjectVersion
1070
     0
  0
ACAD_PROXY_OBJECT
  5
38
102
{ACAD_REACTORS
330
2A
102
}
330
2A
100
AcDbProxyObject
 90
      499
 91
      501
 93
      444
310
42D31A5B995C185D1D195C9B90E409028333333333333E3BF0000000000000FB010790141107004050750841D405064090741402483A0350
1001
ACAD
1000
AcDbSavedByObjectVersion
1070
     0
  0
ACAD_PROXY_OBJECT
  5
33
102
{ACAD_REACTORS
330
2A
102
}
330
2A
100
AcDbProxyObject
 90
      499
 91
      501
 93
      420
310
425499585B1A5CDD1A58D08409028333333333333E3BF0000000000000FB01079019070040501508421405064090741402480A1B40
1001
ACAD
1000
AcDbSavedByObjectVersion
1070
     0
  0
ACAD_PROXY_OBJECT
  5
37
102
{ACAD_REACTORS
330
2A
102
}
330
2A
100
AcDbProxyObject
 90
      499
 91
      501
 93
      412
310
41D51A1A58DAD95B90D409028333333333333E3BF0000000000000FB010790141107004050150C41D405064090741402480A0350
1001
ACAD
1000
AcDbSavedByObjectVersion
1070
     0
  0
XRECORD
  5
77E
102
{ACAD_REACTORS
330
775
102
}
330
775
100
AcDbXrecord
 90
        0
  0
XRECORD
  5
794
102
{ACAD_REACTORS
330
775
102
}
330
775
100
AcDbXrecord
1000
DSTYLE
1002
{
1070
   340
340
11
1002
}
  0
XRECORD
  5
77F
102
{ACAD_REACTORS
330
775
102
}
330
775
100
AcDbXrecord
  1
{3C9F024D-5903-410E-B2CB-C298F559705D}
  0
XRECORD
  5
778
102
{ACAD_REACTORS
330
775
102
}
330
775
100
AcDbXrecord
  1

  0
XRECORD
  5
77D
102
{ACAD_REACTORS
330
775
102
}
330
775
100
AcDbXrecord
 90
        4
  0
XRECORD
  5
77A
102
{ACAD_REACTORS
330
775
102
}
330
775
100
AcDbXrecord
340
1A
  0
XRECORD
  5
77C
102
{ACAD_REACTORS
330
775
102
}
330
775
100
AcDbXrecord
 90
    10781
  0
XRECORD
  5
77B
102
{ACAD_REACTORS
330
775
102
}
330
775
100
AcDbXrecord
340
19
  0
XRECORD
  5
781
102
{ACAD_REACTORS
330
775
102
}
330
775
100
AcDbXrecord
 40
0.0
  0
XRECORD
  5
784
102
{ACAD_REACTORS
330
775
102
}
330
775
100
AcDbXrecord
340
0
  0
XRECORD
  5
78A
102
{ACAD_REACTORS
330
775
102
}
330
775
100
AcDbXrecord
 10
0.0
 20
0.0
 30
0.0
  0
XRECORD
  5
786
102
{ACAD_REACTORS
330
775
102
}
330
775
100
AcDbXrecord
 10
0.0
 20
0.0
 30
0.0
  0
XRECORD
  5
789
102
{ACAD_REACTORS
330
775
102
}
330
775
100
AcDbXrecord
 10
0.0
 20
0.0
 30
0.0
  0
XRECORD
  5
787
102
{ACAD_REACTORS
330
775
102
}
330
775
100
AcDbXrecord
 10
0.0
 20
0.0
 30
0.0
  0
XRECORD
  5
788
102
{ACAD_REACTORS
330
775
102
}
330
775
100
AcDbXrecord
 10
0.0
 20
0.0
 30
0.0
  0
XRECORD
  5
785
102
{ACAD_REACTORS
330
775
102
}
330
775
100
AcDbXrecord
 10
0.0
 20
0.0
 30
0.0
  0
XRECORD
  5
782
102
{ACAD_REACTORS
330
775
102
}
330
775
100
AcDbXrecord
340
0
  0
XRECORD
  5
783
102
{ACAD_REACTORS
330
775
102
}
330
775
100
AcDbXrecord
 70
     0
  0
XRECORD
  5
779
102
{ACAD_REACTORS
330
775
102
}
330
775
100
AcDbXrecord
  1

  0
XRECORD
  5
776
102
{ACAD_REACTORS
330
775
102
}
330
775
100
AcDbXrecord
 90
        1
  0
XRECORD
  5
777
102
{ACAD_REACTORS
330
775
102
}
330
775
100
AcDbXrecord
 90
       70
  0
XRECORD
  5
78D
102
{ACAD_REACTORS
330
775
102
}
330
775
100
AcDbXrecord
340
0
  0
XRECORD
  5
793
102
{ACAD_REACTORS
330
775
102
}
330
775
100
AcDbXrecord
 10
0.0
 20
0.0
 30
0.0
  0
XRECORD
  5
78F
102
{ACAD_REACTORS
330
775
102
}
330
775
100
AcDbXrecord
 10
0.0
 20
0.0
 30
0.0
  0
XRECORD
  5
792
102
{ACAD_REACTORS
330
775
102
}
330
775
100
AcDbXrecord
 10
0.0
 20
0.0
 30
0.0
  0
XRECORD
  5
790
102
{ACAD_REACTORS
330
775
102
}
330
775
100
AcDbXrecord
 10
0.0
 20
0.0
 30
0.0
  0
XRECORD
  5
791
102
{ACAD_REACTORS
330
775
102
}
330
775
100
AcDbXrecord
 10
0.0
 20
0.0
 30
0.0
  0
XRECORD
  5
78E
102
{ACAD_REACTORS
330
775
102
}
330
775
100
AcDbXrecord
 10
0.0
 20
0.0
 30
0.0
  0
XRECORD
  5
78B
102
{ACAD_REACTORS
330
775
102
}
330
775
100
AcDbXrecord
340
0
  0
XRECORD
  5
78C
102
{ACAD_REACTORS
330
775
102
}
330
775
100
AcDbXrecord
 70
     0
  0
XRECORD
  5
780
102
{ACAD_REACTORS
330
775
102
}
330
775
100
AcDbXrecord
  1
{FAEB1C32-E019-11D5-929B-00C0DF256EC4}
  0
DICTIONARYVAR
  5
79A
102
{ACAD_REACTORS
330
795
102
}
330
795
100
DictionaryVariables
280
     0
  1
1:1
  0
DICTIONARYVAR
  5
79B
102
{ACAD_REACTORS
330
795
102
}
330
795
100
DictionaryVariables
280
     0
  1
2
  0
DICTIONARYVAR
  5
79C
102
{ACAD_REACTORS
330
795
102
}
330
795
100
DictionaryVariables
280
     0
  1
1
  0
DICTIONARYVAR
  5
799
102
{ACAD_REACTORS
330
795
102
}
330
795
100
DictionaryVariables
280
     0
  1
80.000000
  0
DICTIONARYVAR
  5
798
102
{ACAD_REACTORS
330
795
102
}
330
795
100
DictionaryVariables
280
     0
  1
5.000000
  0
DICTIONARY
  5
79F
330
3D
100
AcDbDictionary
280
     1
  3
ACAD_XREC_ROUNDTRIP
360
7A0
  0
DICTIONARY
  5
79D
330
3C
100
AcDbDictionary
280
     1
  3
ACAD_XREC_ROUNDTRIP
360
79E
  0
DICTIONARY
  5
7A1
330
3E
100
AcDbDictionary
280
     1
  3
ACAD_XREC_ROUNDTRIP
360
7A2
  0
XRECORD
  5
7A0
102
{ACAD_REACTORS
330
79F
102
}
330
79F
100
AcDbXrecord
102
MATERIAL
148
0.0
149
0.0
149
0.0
 93
        0
 94
      127
282
     0
 72
     1
 77
     1
171
     1
175
     1
179
     1
273
     0
  0
XRECORD
  5
79E
102
{ACAD_REACTORS
330
79D
102
}
330
79D
100
AcDbXrecord
102
MATERIAL
148
0.0
149
0.0
149
0.0
 93
        0
 94
      127
282
     0
 72
     1
 77
     1
171
     1
175
     1
179
     1
273
     0
  0
XRECORD
  5
7A2
102
{ACAD_REACTORS
330
7A1
102
}
330
7A1
100
AcDbXrecord
102
MATERIAL
148
0.0
149
0.0
149
0.0
 93
        0
 94
      127
282
     0
 72
     1
 77
     1
171
     1
175
     1
179
     1
273
     0
  0
ENDSEC
  0
EOF
